<?xml version="1.0" encoding="UTF-8" standalone="no"?>
<!-- Created with Inkscape (http://www.inkscape.org/) -->

<svg
   xmlns:dc="http://purl.org/dc/elements/1.1/"
   xmlns:cc="http://creativecommons.org/ns#"
   xmlns:rdf="http://www.w3.org/1999/02/22-rdf-syntax-ns#"
   xmlns:svg="http://www.w3.org/2000/svg"
   xmlns="http://www.w3.org/2000/svg"
   xmlns:sodipodi="http://sodipodi.sourceforge.net/DTD/sodipodi-0.dtd"
   xmlns:inkscape="http://www.inkscape.org/namespaces/inkscape"
   width="538.57721mm"
   height="117.25677mm"
   viewBox="0 0 538.57721 117.25677"
   version="1.1"
   id="svg260"
   inkscape:version="0.92.1 r15371"
   sodipodi:docname="C.svg">
  <defs
     id="defs254">
    <clipPath
       clipPathUnits="userSpaceOnUse"
       id="clipPath18">
      <path
         d="m 1790.544,1270.209 h 1526.685 v 332.393 H 1790.544 Z"
         id="path16"
         inkscape:connector-curvature="0" />
    </clipPath>
  </defs>
  <sodipodi:namedview
     id="base"
     pagecolor="#ffffff"
     bordercolor="#666666"
     borderopacity="1.0"
     inkscape:pageopacity="0.0"
     inkscape:pageshadow="2"
     inkscape:zoom="0.35"
     inkscape:cx="932.06948"
     inkscape:cy="-352.69811"
     inkscape:document-units="mm"
     inkscape:current-layer="layer1"
     showgrid="false"
     fit-margin-top="0"
     fit-margin-left="0"
     fit-margin-right="0"
     fit-margin-bottom="0"
     inkscape:window-width="1920"
     inkscape:window-height="1136"
     inkscape:window-x="1680"
     inkscape:window-y="27"
     inkscape:window-maximized="1" />
  <metadata
     id="metadata257">
    <rdf:RDF>
      <cc:Work
         rdf:about="">
        <dc:format>image/svg+xml</dc:format>
        <dc:type
           rdf:resource="http://purl.org/dc/dcmitype/StillImage" />
        <dc:title></dc:title>
      </cc:Work>
    </rdf:RDF>
  </metadata>
  <g
     inkscape:label="Calque 1"
     inkscape:groupmode="layer"
     id="layer1"
     transform="translate(140.77672,61.741477)">
    <g
       transform="matrix(0.35277777,0,0,-0.35277777,-772.44413,503.61679)"
       id="g12">
      <g
         id="g14"
         clip-path="url(#clipPath18)">
        <g
           id="g20"
           transform="translate(2558.1421,1498.9336)">
          <path
             d="M 0,0 C 1.649,2.368 5.465,-0.34 7.788,0.995 8.383,0.953 9.572,1.416 9.189,0.294 9.989,0.124 9.7,0.995 10.287,0.995 14.182,-0.658 17.573,1.99 20.115,0 20.915,-0.233 20.66,0.634 21.212,0.634 25.998,0.124 31.924,0.103 39.549,0 c -0.127,-0.85 1.607,0.167 1.055,-1.122 1.948,0.74 4.702,-0.064 6.011,-1.016 4.659,-0.086 7.328,-1.653 10.968,-3.557 3.81,-2.076 6.224,-2.352 7.753,-5.994 1.268,0.212 1.055,-1.058 2.117,-1.058 0.205,-2.075 2.194,-3.07 3.214,-4.571 0.212,-0.425 0.042,-1.356 0.297,-1.802 0.17,-0.23 0.928,-0.4 1.098,-0.697 0.594,-1.229 0.934,-3.133 1.359,-4.596 0.673,-1.861 0.8,-4 1.055,-5.628 0.128,-0.595 0.679,-0.892 0.722,-1.42 0.382,-3.978 0.085,-8.552 -0.34,-12.361 -0.424,-3.686 -2.159,-7.074 -2.116,-9.888 -1.31,-1.759 -2.5,-4.574 -3.173,-6.352 -0.679,-1.652 -1.954,-2.962 -2.839,-4.594 -1.777,-0.719 -3.263,-1.628 -3.851,-3.473 -2.117,-0.252 -3.051,-2.096 -4.914,-1.479 -2.457,-1.378 -6.563,-2.839 -9.572,-2.457 0.128,-0.591 -0.928,-1.059 -2.118,-0.382 0.256,-1.187 -1.394,0.212 -1.394,-0.995 -7.073,-0.401 -15.753,-0.613 -24.766,-0.741 v 1.42 c -0.468,-0.148 -0.256,-0.871 -0.34,-1.42 -3.937,-0.063 -5.593,-0.191 -9.19,-0.339 -1.778,-4.447 -0.638,-8.847 -2.075,-13.042 0.043,-0.528 1.062,-0.124 1.062,-0.74 -0.212,-4.255 -0.637,-5.356 0,-8.468 0.502,-1.27 -1.232,-0.212 -1.062,-1.08 1.947,-3.282 0.34,-9.419 1.062,-12.68 -1.062,-1.059 -4.999,-2.181 -5.678,-0.404 -1.31,-1.31 -3.682,0.319 -4.949,-1.395 -6.308,1.059 -10.252,-0.467 -17.998,0 -1.14,1.586 -0.383,3.176 -0.383,4.996 0.17,7.005 0.467,13.36 0.765,20.408 0.042,2.053 -0.595,4.298 0.34,6.394 0,0.888 -0.552,1.08 -1.105,1.398 1.403,1.373 -0.381,3.364 1.105,3.894 -0.722,8.043 -0.638,15.878 -1.105,23.669 -0.212,4.255 0.595,7.601 -0.296,10.542 1.019,1.607 0.084,3.133 0,4.66 -0.085,2.686 0.254,5.1 0.296,7.724 0.17,3.069 -0.126,6.121 0,9.887 0.17,2.627 -0.679,5.844 -0.679,8.446 0,1.59 1.317,2.921 0,3.938 0.764,2.584 0.467,4.403 0,7.009 4.658,0.677 10.797,-0.021 15.201,0.361 C -6.224,-1.271 -0.808,2.793 0,0 m 15.838,-50.534 c 0.928,0.148 -0.17,-1.569 1.141,-1.038 4.87,0.4 10.668,0.276 15.158,-0.361 -0.17,1.462 2.244,0.382 3.221,0.697 1.353,0.977 2.831,1.887 4.865,2.139 0.297,1.483 1.486,2.077 2.881,2.456 3.214,5.611 3.171,14.164 -1.147,18.717 -1.226,0.697 -3.088,0.846 -3.47,2.495 -1.734,0 -3.087,0.362 -3.554,1.782 -7.965,-0.468 -15.201,-0.064 -23.626,0 -0.553,-0.787 -0.042,-2.564 -1.403,-2.479 0.17,-0.994 1.105,-1.292 1.063,-2.52 0.212,-7.516 -0.256,-14.119 0.722,-22.208 1.055,-0.718 2.578,0.489 4.149,0.32"
             style="fill:#006e3f;fill-opacity:1;fill-rule:nonzero;stroke:none"
             id="path22"
             inkscape:connector-curvature="0" />
        </g>
        <g
           id="g24"
           transform="translate(2841.2783,1461.1646)">
          <path
             d="m 0,0 c -5.423,-0.234 -19.52,-0.085 -27.146,0.297 -0.297,2.033 -0.17,5.207 -1.097,7.431 -0.212,0.655 -1.777,0.952 -0.637,1.734 -0.765,0.107 -0.892,-0.487 -1.735,1.42 -6.606,3.367 -13.721,5.059 -22.317,4.298 -7.235,-0.743 -12.999,-4.914 -17.318,-9.212 -0.291,-1.521 -0.587,-3.176 -2.074,-3.553 -1.182,-2.946 -1.862,-6.394 -3.215,-9.148 -0.382,-4.319 -0.212,-8.872 -1.019,-12.723 1.359,-2.202 1.359,-4.826 2.117,-7.431 1.947,-7.281 6.104,-14.313 9.487,-19.095 4.362,-3.409 7.492,-6.628 13.8,-6.968 6.818,-0.442 14.528,2.776 18.719,6.313 3.3,2.793 5.884,6.138 7.746,10.563 -0.085,0.316 -0.297,0.401 -0.297,0.698 -4.743,1.862 -15.456,-0.676 -19.477,1.777 0.424,7.855 -1.31,14.861 -0.333,20.515 4.233,0.676 5.925,0.382 9.523,-0.361 0.381,0.063 0.255,0.68 0.721,0.68 12.108,-0.995 28.491,0.357 36.711,-1.038 -0.68,-1.947 -0.042,-3.26 0,-5.271 0.121,-9.505 -0.169,-18.886 0,-28.622 0.121,-8.28 0.376,-17.127 -0.722,-27.205 -7.073,0.276 -14.351,-0.404 -17.955,0 -0.928,3.515 -0.588,8.15 -2.159,10.967 -3.215,-1.632 -5.289,-4.404 -8.469,-6.372 -0.467,-0.319 -1.267,-0.382 -1.734,-0.701 -1.31,-0.783 -4.192,-2.517 -6.393,-3.176 -1.226,-0.358 -1.268,-0.294 -2.415,-0.718 -6.436,-2.245 -16.851,-1.905 -24.766,0 -2.924,0.718 -5.424,2.835 -8.426,2.835 -1.317,1.845 -4.149,1.823 -6.053,2.818 -1.615,0.847 -3.264,2.33 -5.339,3.533 -0.765,0.489 -1.479,1.08 -2.414,1.781 -2.712,1.819 -5.246,2.729 -7.073,5.293 -0.035,0.484 -0.035,0.973 0.34,1.037 -2.16,1.628 -3.767,4.676 -5.289,7.43 -1.565,2.772 -3.137,5.82 -4.574,8.808 -2.925,6.287 -4.531,13.229 -5.629,19.389 0.8,5.547 1.098,13.866 2.45,20.157 0.722,0.166 0.042,1.629 1.062,0.697 -0.723,0.698 -0.169,1.693 0,2.522 -0.128,0.867 0.807,0.846 1.055,1.393 0.722,5.506 5.551,8.639 6.35,11.985 1.743,0.591 1.827,2.392 2.84,3.536 0.255,0.336 1.02,0.272 1.395,0.697 0.297,0.34 0.042,1.144 0.34,1.441 0.169,0.106 0.892,-0.149 1.019,0 0.254,0.106 -0.127,0.868 0,1.016 0.468,0.316 1.055,-0.128 1.14,0 0.552,0.676 0.764,2.117 1.402,2.835 0.63,0.825 2.032,0.447 1.734,1.778 0.927,0 1.821,0.043 1.778,1.058 0.891,0 0.425,-0.23 0.383,-0.697 1.903,2.181 5.161,3.894 6.35,4.595 1.735,0.867 3.257,2.096 5.289,2.793 -0.17,-0.021 0.17,-0.485 0.297,-0.315 0.467,0.421 0.467,0.57 1.486,1.037 1.099,0.592 0.801,0.166 1.779,0.337 0.969,0.212 2.328,0.53 3.808,1.079 0.85,0.276 1.48,0.149 2.882,0.722 0.46,0.23 -0.34,0.57 0.332,0.698 1.318,0.34 3.137,0.042 4.957,0.382 2.541,0.4 4.828,1.311 8.426,1.017 1.818,-0.149 3.596,-1.059 5.295,-1.399 5.841,-1.144 11.598,-2.33 16.979,-3.558 0.169,-0.276 0.339,-0.57 0.339,-1.037 6.981,-0.718 10.203,-5.101 14.479,-8.49 0.043,-0.527 0.085,-0.994 -0.34,-1.037 0.808,-0.127 0.85,-0.803 1.396,-1.44 0.679,-0.719 1.231,-1.141 1.776,-2.138 C -5.509,14.27 -1.614,7.558 0,0"
             style="fill:#006e3f;fill-opacity:1;fill-rule:nonzero;stroke:none"
             id="path26"
             inkscape:connector-curvature="0" />
        </g>
        <g
           id="g28"
           transform="translate(2436.3706,1495.7158)">
          <path
             d="m 0,0 c 1.733,-6.185 3.306,-14.016 5.295,-21.531 0.631,-2.541 1.735,-5.143 2.45,-7.771 0.382,-1.462 0.637,-2.856 1.062,-4.233 0.679,-2.457 1.14,-4.595 1.819,-7.069 0.638,-2.648 1.02,-5.336 2.415,-7.75 -1.141,-0.064 1.098,-4.022 1.395,-5.313 0.339,-1.038 0.127,-2.627 0.382,-3.494 0.807,-2.565 2.754,-4.868 2.499,-9.23 1.14,-1.547 1.565,-3.834 2.117,-5.993 2.5,1.738 2.287,6.142 3.179,9.527 0.418,1.652 1.225,3.238 1.693,5.696 0.127,0.317 0.673,0.952 0.715,1.376 0.084,0.337 -0.503,0.783 -0.291,1.459 0.036,0.276 0.928,0.722 1.012,1.015 0.171,0.532 -0.084,1.06 0,1.442 0.596,1.713 1.02,3.706 1.778,5.99 0.892,2.669 1.275,4.68 2.117,7.749 0.17,0.804 0.594,1.61 0.722,2.456 0.297,1.756 0.425,3.261 0.722,4.595 1.225,5.842 3.979,13.634 5.629,20.512 0.467,1.823 0.552,3.77 1.013,5.611 0.509,1.759 0.933,3.6 1.826,5.334 12.574,-0.191 28.363,0.383 41.66,-1.1 -0.637,-10.521 1.062,-22.548 0,-33.829 0,-0.085 0.424,-0.425 0.382,-0.74 -0.085,-0.106 -0.764,-0.468 -0.764,-0.383 0,-0.719 0.764,-1.079 0.764,-1.755 -0.298,-14.356 0.51,-30.233 0.68,-43.759 0.042,-5.063 0.127,-9.74 0.672,-15.245 -0.425,-0.845 -0.672,-0.148 -1.054,-0.679 0.382,-0.761 -0.043,-0.273 1.054,-0.718 -0.97,-3.746 -0.212,-9.888 -0.339,-14.079 -9.863,0.467 -15.662,0.127 -26.459,0.361 -1.905,4.212 -0.637,8.467 -0.723,11.983 -0.042,1.437 -0.927,2.138 -0.722,3.132 0.383,1.608 0.425,0.171 0,1.459 -0.163,0.595 0.722,1.272 0.722,1.739 0,0.421 -0.679,0.339 -0.722,0.718 -0.375,2.393 1.19,5.973 -0.375,9.569 -0.382,1.165 1.183,0.297 0.715,1.42 0.17,0.74 -0.672,0.464 -0.715,0.995 0.503,4.701 -0.679,11.073 0.715,14.903 -1.31,1.356 0.128,2.879 -1.012,4.574 0.425,1.798 0.886,3.979 0.672,5.99 -0.077,0.995 -0.672,1.819 -0.672,2.815 0,0.934 0.595,1.567 0.672,2.478 0.128,0.994 -0.885,2.669 -0.672,3.514 0.715,3.661 0,8.766 0,12.724 -1.147,-0.847 -1.317,-3.303 -1.777,-4.595 -0.298,-0.677 -0.765,-0.358 -0.765,-0.315 -0.17,-0.765 0.212,-1.739 0,-2.478 -0.085,-0.74 -0.764,-1.335 -0.977,-2.139 -0.333,-0.845 0.128,-1.989 -0.375,-2.817 -1.02,-1.523 -1.742,-5.672 -2.499,-8.128 -0.426,-1.608 -0.807,-3.07 -1.403,-4.911 -0.502,-1.546 -0.799,-4.046 -1.437,-6.414 -0.254,-1.187 -0.722,-2.861 -1.734,-3.897 -1.267,-5.315 -1.862,-9.949 -4.617,-14.82 1.02,-0.931 -1.012,-3.452 -0.34,-2.793 -1.564,-3.813 -2.583,-11.286 -5.288,-15.159 0.588,-3.664 -1.777,-5.335 -2.075,-9.547 -6.69,0.234 -14.316,0 -21.934,0.319 -1.479,3.702 -2.457,7.873 -3.179,12.404 -0.503,-0.425 -1.31,2.244 -0.716,3.515 -2.414,3.491 -2.499,10.691 -4.572,14.5 0.211,0.553 -0.426,2.053 0.34,2.075 -1.276,0.701 -0.214,1.61 -1.778,2.075 0.418,3.727 -2.117,9.253 -2.797,11.749 -0.467,1.696 -0.17,1.866 -1.062,4.233 -0.248,0.574 -0.928,1.866 -1.438,3.517 -1.436,4.973 -2.795,10.647 -5.246,15.115 0.163,4.383 -2.039,6.5 -2.797,10.649 -1.904,-2.266 -0.892,-5.611 -1.104,-8.51 -0.46,-6.224 -0.297,-15.985 -0.333,-20.133 -0.084,-3.218 0.121,-7.137 0,-11.983 -0.467,-12.999 -0.254,-26.866 -0.764,-38.828 -0.382,0.404 -0.85,0.149 -0.298,0 -8.552,-1.437 -18.585,0.085 -25.446,-1.437 0.765,0.825 -0.085,0.803 -1.062,0.74 -0.248,17.233 0.765,30.675 0.382,46.977 -0.382,12.808 -0.884,26.083 -0.757,37.748 0.17,9.144 -0.255,19.708 0.757,27.924 -0.254,0.506 2.288,-0.51 1.02,-0.383 C -36.457,0.166 -19.903,1.692 -11.98,0 -8.002,1.649 -3.598,0.021 0,0 m 59.274,-96.011 c 0.68,-0.043 0.977,0.255 1.105,0.701 -0.553,0 -1.233,0.021 -1.105,-0.701"
             style="fill:#006e3f;fill-opacity:1;fill-rule:nonzero;stroke:none"
             id="path30"
             inkscape:connector-curvature="0" />
        </g>
        <g
           id="g32"
           transform="translate(2694.7749,1495.376)">
          <path
             d="m 0,0 c 1.062,-2.817 2.414,-4.468 2.16,-6.372 0.34,-0.318 0.042,-1.313 1.02,-1.016 -0.596,-1.844 0.841,-3.282 1.819,-5.356 0.714,-1.611 0.467,-3.346 2.074,-4.213 -0.68,-0.043 0,-1.968 0.383,-2.86 0.714,-1.99 2.449,-4.889 3.129,-7.027 0.467,-1.335 0.467,-4.426 2.159,-5.272 0.043,-3.915 1.862,-4.128 2.117,-7.451 1.147,0.569 0.935,-2.836 1.735,-4.532 0.594,-1.292 0.934,-0.952 1.445,-2.521 0.382,-1.267 0.587,-2.687 1.055,-3.893 0.892,-2.309 2.838,-5.991 4.191,-9.57 1.063,-2.623 1.529,-5.398 2.457,-8.063 1.105,-2.861 2.329,-5.654 3.596,-8.83 4.149,-10.627 9.318,-22.822 12.702,-33.914 -9.353,-0.233 -19.513,0.358 -29.298,0.698 -2.754,5.99 -4.913,12.616 -7.745,18.377 -6.521,-0.065 -11.647,0.505 -17.7,-0.362 -0.893,-0.021 -0.426,0.297 -0.383,0.698 -4.786,-0.528 -14.564,-0.336 -20.107,-0.336 -3.774,-5.675 -5.764,-13.952 -8.094,-18.377 -3.596,-0.825 -9.778,-0.404 -13.798,-0.319 -4.192,0.085 -8.808,-0.612 -14.819,-0.379 0.552,3.346 1.267,6.266 2.456,9.569 0.298,0.698 1.225,1.395 1.48,2.095 0.085,0.486 -0.255,1.208 0,1.736 1.02,3.43 3.3,7.706 3.852,12.046 1.522,1.08 1.147,3.26 1.734,4.974 0.085,0.085 0.638,0 0.723,0.277 0.934,3.557 2.542,7.979 3.894,11.009 0.976,2.053 1.316,5.164 3.179,6.309 -0.255,0.357 -0.425,0.846 -0.383,1.416 2.075,3.196 3.809,8.258 5.671,12.722 0.638,1.654 0.723,3.409 2.5,4.256 -0.552,2.393 1.105,0.701 0.68,3.898 1.395,0.19 1.267,3.005 1.735,3.872 0.084,0.043 0.722,-0.463 0.722,-0.378 0.417,1.036 0.255,2.92 0.757,4.569 0.934,0 0.892,2.139 1.062,2.521 0.17,0.446 0.63,-0.127 0.63,0 0.34,0.931 0,2.351 0.425,3.474 0.128,0.463 0.425,1.288 0.68,1.819 0.084,0.275 0.934,0.761 1.055,1.079 0.042,0.148 -0.546,0.846 -0.333,1.377 0.212,0.634 1.479,0.847 0.673,2.433 1.819,1.334 0.68,3.727 2.839,4.998 0.169,5.25 3.094,11.346 4.616,15.537 3.002,0.276 6.648,0.846 8.808,-0.378 2.074,1.246 5.544,0.081 8.808,0 3.299,-0.064 6.265,0.187 8.127,0 0.425,-0.043 0.17,-0.382 0,-0.34 1.013,-0.042 2.414,0.506 3.512,0 m -17.658,-37.089 c 1.487,-0.085 -0.042,-2.564 -0.715,-2.84 0.63,-3.048 -2.371,-5.292 -2.074,-9.144 -1.53,-2.456 -2.244,-5.632 -2.5,-8.489 -1.649,-1.484 -1.565,-3.834 -2.116,-5.632 -0.553,-1.862 -1.608,-3.515 -1.735,-5.654 1.65,-2.053 5.458,0.042 7.405,-1.437 1.063,-0.403 0.213,1.143 1.403,0.719 6.768,-0.127 11.002,-0.656 16.978,-0.319 0.799,3.451 -3.264,6.436 -2.117,10.185 -2.372,2.053 -1.785,7.006 -3.901,9.187 -1.056,4.616 -2.366,8.977 -4.277,12.701 -0.714,4.255 -0.842,5.866 -3.129,7.813 -1.395,-2.074 -1.232,-5.653 -3.222,-7.09"
             style="fill:#006e3f;fill-opacity:1;fill-rule:nonzero;stroke:none"
             id="path34"
             inkscape:connector-curvature="0" />
        </g>
        <g
           id="g36"
           transform="translate(2253.8433,1456.1904)">
          <path
             d="M 0,0 C -3.435,-0.212 -3.902,0.783 -7.074,0.315 -7.839,0.294 -8.179,0.655 -8.093,1.396 -8.639,1.31 -8.263,0.315 -8.851,0.315 c -3.434,0.638 -6.988,-0.084 -10.21,0.722 -0.375,0.104 -0.841,0.719 -0.757,0.676 -0.424,0.064 -1.019,-0.633 -1.402,-0.676 -1.819,-0.126 -3.724,1.101 -5.629,0.359 -0.042,0.317 -0.424,0.275 -0.722,0.317 -3.979,12.299 -22.267,22.991 -34.926,12.069 -3.222,-2.819 -8.638,-10.482 -10.968,-15.92 -1.061,-2.457 -1.607,-4.999 -2.797,-7.434 -0.425,-0.846 -2.031,-5.038 -1.776,-7.048 0.126,-0.91 0.68,-0.91 1.061,-1.756 0.375,-0.974 0.29,-2.16 0.715,-3.155 1.063,-2.881 2.967,-5.802 4.574,-8.85 2.967,-5.547 6.182,-10.67 10.585,-14.819 3.434,-2.541 6.181,-4.107 12.03,-4.615 -0.51,1.015 2.032,0.636 3.511,1.036 3.513,1.143 8.171,4.446 10.585,7.116 0.97,1.037 1.055,2.22 2.457,3.873 1.565,1.862 3.469,4.847 4.616,8.086 11.3,-0.043 17.651,-0.043 27.181,0 -0.339,0.19 -0.424,-1.459 -0.339,-0.677 -0.17,-4.34 -4.532,-8.596 -5.29,-13.803 -3.986,-5.314 -6.145,-12.404 -9.19,-18.653 -4.446,-2.117 -8.765,-6.096 -13.424,-6.75 -5.416,-2.542 -13.254,-4.234 -19.817,-4.935 -1.268,-0.106 -2.917,-0.421 -4.192,-0.379 -0.503,0.064 -1.011,0.74 -1.011,0.74 -0.554,0 0.211,-0.51 -0.383,-0.74 -1.268,-0.319 -4.446,0.23 -6.012,0.379 -0.765,0.106 -1.734,0.234 -2.498,0.361 -2.627,0.549 -3.64,1.058 -5.629,1.777 -0.893,0.298 -2.033,0.043 -2.84,0.362 -0.934,0.318 -1.692,1.334 -2.797,1.755 -1.819,0.68 -3.213,1.079 -5.331,2.478 -0.382,0.276 -0.722,0.825 -1.02,1.059 -0.212,0.106 -0.885,-0.149 -1.097,0 -0.043,0.084 0.588,0.548 0.382,0.697 -0.127,0.085 -0.68,-0.166 -1.061,0 -0.765,0.382 -1.395,1.292 -2.457,2.117 -1.947,1.483 -3.597,2.478 -5.289,4.233 -1.742,1.824 -1.742,2.457 -3.179,5.293 -0.127,0.297 -0.97,0.553 -1.098,0.723 -0.637,1.373 -0.934,3.43 -1.777,5.271 -0.765,1.798 -2.039,3.366 -2.796,5.292 -0.34,0.847 -0.425,1.734 -0.68,2.478 -4.871,12.043 -7.491,26.611 -4.277,40.941 0.935,4.043 3.392,8.447 4.617,13.106 1.226,0 -0.085,0.91 1.395,1.058 0.424,3.685 2.372,3.685 2.838,7.388 0.213,0.17 0.425,-0.634 0.383,-0.719 1.268,0.932 2.415,4.592 3.512,5.991 0.552,0.127 0.594,-0.319 1.062,-0.34 1.14,1.61 2.705,4.553 4.95,3.919 0.636,0.063 0.169,1.164 0.679,1.394 4.446,0.149 8.255,4.681 12.362,4.256 0.892,1.101 2.584,1.377 3.851,2.099 0.765,0.166 0.722,-0.509 0.765,-1.059 1.019,2.666 5.212,2.283 7.703,3.575 1.147,0.234 0.765,-0.952 1.444,-1.121 0.886,0.106 -0.466,0.658 0,1.419 2.457,0.719 6.097,1.229 6.351,1.462 0.17,0.719 2.202,0.294 1.056,-0.382 1.904,0.613 3.603,0.549 4.998,0 0.509,-0.276 0.722,-0.234 0.637,-1.08 0.801,1.186 5.374,-0.043 4.949,-1.037 1.99,1.164 3.136,-1.25 5.678,-0.697 5.927,-3.346 15.117,-4.978 19.726,-10.589 C -8.936,24.767 -4.83,16.129 -2.118,8.446 -1.147,5.693 0.629,2.942 0,0"
             style="fill:#006e3f;fill-opacity:1;fill-rule:nonzero;stroke:none"
             id="path38"
             inkscape:connector-curvature="0" />
        </g>
        <g
           id="g40"
           transform="translate(3204.937,1496.4341)">
          <path
             d="m 0,0 c -0.714,-6.839 0.893,-16.578 -0.382,-21.169 -0.12,-0.68 0.467,-1.739 -0.63,-1.399 1.097,-3.005 0.928,-7.579 0,-10.627 0.595,-3.112 0.843,-5.866 0.63,-9.186 0,-0.999 -0.715,-1.038 -0.63,-0.68 -0.382,-1.862 0.63,-4.171 0.63,-6.372 0.213,-15.074 -0.842,-36.772 -0.332,-47.675 0.297,-4.956 0.545,-10.227 0,-14.84 -3.979,-0.637 -6.903,-0.021 -10.925,0 -3.264,0.085 -7.244,-0.637 -9.913,-0.361 0.256,-0.021 -1.777,-0.34 -0.672,0.719 -2.882,-1.374 -4.743,0.106 -7.796,-0.719 -2.959,5.292 -6.35,10.079 -8.842,15.92 -1.488,0.889 -2.287,3.536 -3.477,5.653 -1.734,2.985 -3.894,5.59 -4.617,8.489 -2.874,3.979 -5.161,8.341 -7.362,13.74 -2.245,3.217 -4.957,7.749 -5.679,11.282 -2.202,2.096 -3.936,6.669 -5.671,9.887 -1.098,2.138 -1.862,5.25 -4.233,5.336 -2.245,-2.161 -0.851,-5.884 -0.68,-8.873 0.169,-3.235 -0.171,-6.474 0,-9.505 0.084,-1.755 1.528,-4.319 0,-5.67 0.297,-0.468 0.934,-0.68 1.019,-1.399 0.34,-6.309 0.297,-15.92 0,-21.888 0,-0.022 0.509,-0.382 0.424,-0.722 l -0.763,-0.34 c -0.256,-7.534 1.103,-14.985 0,-21.549 -9.609,-0.425 -16.767,0.294 -26.085,0.698 0,5.207 -0.757,10.203 -0.714,15.222 0,1.65 0.545,2.75 0.374,4.552 -0.29,2.518 -0.63,10.879 -0.714,16.618 -0.212,7.345 0.042,14.478 0,21.888 -0.128,10.925 -1.105,23.478 0.34,33.875 -0.722,0.106 -0.765,2.517 -0.765,3.512 0.085,4.68 0.849,10.881 0.425,14.865 8.765,0.251 20.235,0.123 28.958,-0.68 1.189,-1.016 2.839,-3.133 2.414,-4.616 3.597,-3.069 5.713,-10.627 7.831,-13.421 1.529,-2.053 3.094,-5.356 4.573,-8.107 2.925,-5.717 6.181,-10.988 9.488,-16.557 1.99,-3.473 3.511,-7.706 6.351,-10.244 0.8,-3.601 3.427,-5.293 4.234,-8.872 2.159,-0.846 2.669,-6.032 5.331,-6.733 0.256,0.233 0.553,0.382 1.062,0.382 -0.169,9.59 -0.34,19.244 -1.062,28.579 -0.084,0.722 -0.672,1.526 -0.715,2.139 -0.255,3.196 -0.043,6.669 0,9.887 0.17,10.181 0.46,17.675 0,28.243 0.383,0.761 4.064,1.649 3.554,1.08 C -17.317,-0.084 -9.522,0.506 0,0"
             style="fill:#006e3f;fill-opacity:1;fill-rule:nonzero;stroke:none"
             id="path42"
             inkscape:connector-curvature="0" />
        </g>
        <g
           id="g44"
           transform="translate(3303.7627,1478.4189)">
          <path
             d="m 0,0 c 1.692,-0.616 0.552,1.395 1.777,1.079 2.16,-6.669 4.829,-9.019 6.054,-16.238 -6.769,-1.143 -15.789,-0.633 -22.565,-0.696 -0.764,-0.086 -1.104,-0.702 -1.819,-0.745 -0.426,-0.042 -1.233,0.659 -2.117,0.745 -1.36,0.081 -2.499,-0.256 -3.852,0.696 -0.17,5.102 -3.094,9.101 -6.061,13.084 -1.607,-0.509 -2.747,0.825 -4.234,0.995 -3.341,0.464 -6.726,-0.807 -9.48,-0.34 -1.104,-0.655 -3.136,-1.883 -4.277,-1.419 -0.127,-1.289 -1.062,-1.437 -2.456,-2.454 -1.097,-0.828 -1.693,-0.931 -2.457,-3.515 -0.297,-0.782 0.128,-1.525 0,-2.138 -0.085,-0.319 -0.971,-1.629 -0.722,-3.154 0.085,-0.446 0.722,-1.526 1.402,-2.5 1.437,-1.904 2.839,-2.58 5.289,-3.915 1.571,-0.761 2.457,-1.335 3.603,-1.398 1.098,0 2.202,-1.713 4.574,-1.059 -0.042,-0.612 0.418,-0.697 0.333,-1.394 4.489,-0.234 8.05,-1.781 14.104,-2.078 0,-1.99 0.552,0.149 2.874,-0.379 3.051,-1.926 5.382,-3.282 9.148,-3.898 1.649,-1.925 5.968,-3.767 8.808,-5.293 0.297,-0.314 0.425,-0.76 0.382,-1.437 0.68,1.123 0.842,-0.382 1.395,-0.68 0.467,-0.251 1.401,-0.042 1.734,-0.336 0.893,-0.743 1.274,-2.287 2.16,-3.154 0.17,-0.234 0.892,0.106 1.062,0 0.085,-0.149 -0.085,-0.659 0,-0.744 1.097,-0.909 1.479,-1.5 2.797,-2.095 v -1.101 c 2.032,-0.888 2.279,-3.724 3.214,-5.628 0.934,-1.93 2.074,-4.915 2.074,-8.111 0,-0.719 0.722,-1.313 0.722,-1.777 0.043,-1.144 -0.17,-2.772 -0.34,-4.255 -0.085,-0.617 -0.042,-2.308 -1.062,-2.457 0.171,-0.336 0.808,-0.336 0.68,-1.016 -0.849,-0.846 -0.34,-2.436 -1.012,-3.579 -0.085,-0.103 -1.105,-0.337 -1.105,-0.337 -0.339,-0.845 -0.042,-2.137 -0.339,-2.797 -0.043,-0.166 -0.673,0.043 -0.716,0 -0.424,-0.654 -0.594,-2.474 -1.062,-3.196 -0.255,-0.485 -1.479,-0.91 -1.734,-1.374 -0.17,-0.297 0.128,-0.888 0,-1.1 -0.212,-0.277 -1.105,-0.34 -1.395,-0.723 -0.255,-0.294 -0.128,-1.16 -0.382,-1.415 -0.297,-0.277 -1.275,-0.128 -1.105,0 -0.382,-0.277 0.255,-0.553 -0.297,-1.038 -0.291,-0.234 -1.182,-0.085 -1.437,-0.382 -0.043,-0.085 0.551,-0.549 0.34,-0.677 -0.765,-0.637 -2.797,-1.44 -3.137,-2.839 -1.82,-0.464 -4.277,-1.058 -5.713,-2.814 h -2.415 c -0.843,-0.403 -1.523,-0.804 -2.117,-1.42 -2.287,-0.294 -4.192,-0.064 -4.956,-0.358 -1.438,-0.551 -3.002,-1.376 -5.289,-1.758 -0.638,-0.085 -0.764,0.382 -1.395,0.361 -1.529,-0.106 -3.094,-1.207 -4.617,-1.42 -2.754,-0.422 -5.253,0.297 -7.412,-1.079 -0.51,1.292 -0.8,0.233 -2.117,0.36 -0.673,0.064 -0.758,0.613 -1.055,0.719 -0.51,0.107 -1.36,-0.379 -1.735,-0.315 -1.189,0.145 -2.754,0.676 -3.943,0.995 -1.352,0.421 -0.928,0.148 -2.45,0.379 l -0.298,0.679 c -1.104,0.358 -2.966,0.085 -3.943,0.358 -0.715,0.233 -2.323,1.568 -3.172,1.759 -0.255,0.021 -0.595,-0.467 -1.063,-0.34 -2.116,0.655 -3.978,1.82 -6.35,1.735 -2.237,2.393 -6.982,2.287 -8.843,4.998 -0.723,-1.206 -1.147,0.847 -1.444,0 -0.716,0.358 -1.225,1.059 -1.395,2.097 -1.147,-0.723 -0.977,0.973 -1.735,1.798 -0.213,0.212 -0.849,0.063 -1.02,0.34 -1.649,2.265 -2.542,5.883 -4.616,7.388 -0.333,5.399 -5.459,11.409 -4.949,17.654 5.332,0.212 10.67,-0.803 16.214,-0.336 2.074,0.167 4.192,-0.574 6.01,-0.701 0.851,-0.064 1.778,0.51 2.542,0.34 0.34,-0.106 1.02,-0.677 1.02,-0.677 -0.128,0 1.183,1.205 2.117,0.337 0,-3.324 1.693,-4.255 1.055,-6.709 0.765,0.188 0.383,-0.785 1.062,-1.759 0.29,-0.421 1.012,-0.549 1.395,-1.101 0.212,-0.212 -0.213,-0.298 0.34,-1.037 1.097,-1.399 2.669,-1.989 3.894,-3.873 5.041,-1.738 11.937,-2.606 17.657,-1.059 0,-1.547 2.457,0.634 2.457,-1.079 3.427,1.713 7.237,1.101 9.566,3.894 1.146,1.334 0.976,3.324 2.457,4.956 -0.978,1.969 0.85,3.554 0,5.65 -0.383,0.765 -1.106,1.314 -2.117,1.398 -0.128,0.74 0.212,0.953 0.34,1.42 -2.669,-0.319 -2.797,1.925 -5.297,1.756 0.468,0.467 0.171,0.548 0,1.058 -2.662,-0.276 -3.766,1.207 -5.586,1.735 -1.189,0.361 -2.244,0.361 -3.264,0.744 -0.715,0.293 -1.564,0.994 -2.747,1.015 -0.382,0.064 -0.807,-0.425 -1.444,-0.297 -2.875,0.591 -5.373,2.414 -8.51,1.756 -1.098,2.031 -4.822,1.526 -5.586,3.855 -1.693,-0.127 -1.863,1.208 -3.555,1.101 0.502,1.33 -1.019,0.634 -0.722,1.713 -0.765,-0.697 -1.182,0.932 -2.499,0.761 -1.353,2.075 -4.235,2.988 -6.351,4.957 -0.468,0.399 -0.511,0.952 -1.056,1.373 -0.976,0.85 -2.414,1.186 -3.518,2.096 -0.467,0.446 -0.758,1.462 -1.395,2.138 -1.267,1.228 -3.264,2.35 -4.616,3.898 -0.298,0.318 -0.043,1.079 -0.298,1.398 -0.552,0.613 -1.691,1.374 -2.456,2.453 -0.298,0.319 -0.546,0.804 -0.758,1.059 -1.735,2.457 -4.361,7.516 -3.851,12.387 0.162,1.862 1.946,3.426 1.394,5.292 2.118,2.138 2.584,4.995 4.234,7.07 0.637,0.782 1.82,1.122 2.457,2.074 0.673,0.974 2.287,2.457 3.894,3.915 1.522,1.377 3.214,2.84 4.913,4.574 1.693,-0.803 2.161,1.462 4.277,0.382 1.267,2.097 4.695,1.629 7.066,2.457 0.425,0.167 0.085,0.401 0.085,0.401 1.905,1.249 4.744,1.1 6.945,1.738 2.925,0.803 8.086,0.867 11.981,1.755 4.743,1.016 10.839,-0.361 15.583,-0.739 0.85,-1.102 2.117,-1.696 3.512,-1.378 0.68,-1.1 0.935,-1.525 2.5,-1.058 1.691,-1.926 4.743,-4.021 7.369,-5.611 C -3.554,9.824 -1.989,6.287 0,3.894 0.17,3.069 0,2.538 -0.297,2.138 -0.467,1.165 1.02,3.006 1.104,1.756 1.146,0.761 0,0.931 0,0 m -12.319,9.187 c -1.19,1.015 -1.062,-1.292 0,0 M -4.192,6.729 V 4.57 c 0.595,0.021 1.098,-0.06 1.438,-0.357 -0.503,0.824 0.892,1.313 0,1.437 -1.65,-1.523 -0.297,1.546 -1.438,1.079 m -6.35,-5.334 c 0.297,1.186 -0.553,1.143 -1.062,1.441 -0.043,-0.91 0.807,-0.91 1.062,-1.441 m 8.85,-1.756 c 1.182,-1.059 1.055,1.334 0,0 M -13.721,-1.08 c -0.333,-2.116 1.614,-0.212 0,0 m 5.975,-2.818 c 0.545,0.043 0.8,-0.145 1.097,-0.336 -0.17,0.464 0.425,1.798 -0.34,1.756 0,-0.655 -0.969,-0.467 -0.757,-1.42"
             style="fill:#006e3f;fill-opacity:1;fill-rule:nonzero;stroke:none"
             id="path46"
             inkscape:connector-curvature="0" />
        </g>
        <g
           id="g48"
           transform="translate(2356.8945,1395.7896)">
          <path
             d="m 0,0 c -3.553,-1.165 -6.053,-3.26 -9.863,-4.931 -2.032,-0.85 -3.681,-1.335 -5.296,-2.819 -6.726,-1.479 -12.66,-3.681 -19.052,-3.915 -4.992,-0.106 -11.81,2.033 -15.874,4.277 -0.467,0.234 -0.765,0.149 -1.062,0.318 -0.843,0.592 -2.627,1.438 -4.276,2.139 -3.003,1.288 -5.247,2.074 -8.086,3.915 -0.382,0.191 -0.85,0.953 -1.098,1.016 -0.467,0.255 -0.637,-0.485 -1.019,-0.34 -0.382,0.149 -2.203,1.526 -3.179,2.117 -0.46,0.276 -0.715,0.85 -1.055,1.037 -0.127,0.128 -0.722,-0.484 -1.062,-0.272 -0.928,0.315 -2.875,2.602 -4.567,2.75 -0.382,1.547 -2.287,2.776 -2.457,5.293 -0.976,1.292 -2.074,2.669 -2.882,4.255 -1.565,3.133 -2.796,6.584 -4.233,10.606 -1.395,3.855 -3.725,8.871 -3.852,14.058 -0.212,0.825 -0.807,1.143 -1.062,1.841 0.255,3.133 -0.63,5.02 -0.332,8.425 0.545,7.622 4.233,15.307 6.308,21.913 0.842,0.085 0.672,1.25 1.777,1.038 -0.51,2.074 0.843,3.766 1.777,5.674 0.68,1.395 1.14,2.666 2.074,3.873 -0.127,-0.149 1.396,0.889 1.098,0.383 0.17,0.294 0,1.057 0.34,1.734 0.383,0.825 1.402,2.627 2.456,4.255 3.222,0.74 6.139,4.298 10.246,5.315 0.297,0.615 1.656,1.27 2.5,1.755 1.606,0.871 3.221,1.419 4.573,2.099 1.147,0.612 3.179,2.117 4.956,1.735 1.65,1.84 5.034,2.351 8.085,3.218 5.289,1.48 10.925,1.947 17.7,1.016 3.3,-0.446 6.48,-1.82 9.481,-1.714 C -6.86,97.891 3.095,93.593 8.127,84.385 11.52,80.87 13.382,75.514 15.201,69.928 17.021,64.295 18.465,57.752 19.095,51.572 19.308,49.77 18.762,47.739 18.762,45.919 18.798,34.824 18.041,22.441 13.424,14.143 12.285,12.047 11.137,9.654 9.912,8.107 9.658,7.834 8.723,7.622 8.127,7.112 7.71,6.627 7.499,5.653 7.074,5.292 6.351,4.659 3.179,2.33 2.5,2.117 1.402,1.777 1.819,2.712 0.765,1.441 0.425,1.123 0.128,0.425 0,0 m -49.413,76.257 v -0.68 c -2.322,-2.222 -4.446,-4.825 -6.01,-7.787 -1.65,-3.24 -2.287,-6.692 -3.555,-10.207 -0.085,-0.378 0,-1.037 -1.02,-1.037 0.553,-3.388 -1.182,-6.627 -0.714,-9.93 0.212,-1.289 1.734,-2.117 0.714,-3.533 1.105,-0.595 1.948,-2.775 1.445,-3.834 1.905,-2.602 3.596,-5.356 4.531,-8.846 3.3,-3.073 4.992,-7.792 9.226,-9.909 0.128,-0.468 0.467,-0.676 0.339,-1.441 1.105,0.722 1.651,-0.909 2.457,-1.374 3.385,-1.887 9.523,-2.924 13.084,-2.099 1.396,0.255 3.47,0.85 4.957,0.297 5.119,1.674 7.661,5.994 10.203,10.27 1.139,5.777 3.723,12.596 4.948,19.453 0.934,5.229 0.298,11.52 -1.692,16.514 -1.352,1.607 -2.286,4.192 -3.256,5.676 -1.403,2.201 -2.245,2.919 -4.575,5.313 -3.554,3.66 -9.488,8.383 -14.818,8.825 -7.711,0.637 -12.157,-3.006 -15.881,-5.671 -0.298,1.186 -1.14,1.186 -0.383,0"
             style="fill:#006e3f;fill-opacity:1;fill-rule:nonzero;stroke:none"
             id="path50"
             inkscape:connector-curvature="0" />
        </g>
        <g
           id="g52"
           transform="translate(2986.082,1460.4248)">
          <path
             d="m 0,0 v -0.383 c 1.565,5.99 5.628,14.334 9.523,19.814 1.445,2.011 2.924,3.473 3.852,5.293 3.264,1.42 5.72,4.637 9.232,6.351 5.756,2.754 14.061,5.21 20.072,6.354 2.747,0.485 5.587,1.204 8.129,1.08 3.426,-0.234 7.285,-1.929 10.966,-2.84 8.681,-2.265 16.936,-4.867 24.342,-9.525 1.317,-0.847 2.67,-2.139 4.277,-2.5 3.221,-4.634 8.425,-9.947 9.148,-14.819 1.147,-0.569 1.019,-2.308 2.117,-2.836 2.031,-8.361 4.828,-15.898 4.276,-25.403 -0.468,-7.116 -3.427,-14.925 -6.393,-22.207 -2.5,-6.206 -5.544,-12.429 -8.468,-18.377 -2.032,-4.169 -6.946,-8.259 -12.023,-8.828 -0.594,-1.314 -2.287,-1.591 -3.518,-2.117 -3.47,-1.484 -8.214,-2.67 -11.98,-4.298 -1.693,-0.234 -0.425,0.553 -1.055,0.74 -0.34,-0.655 -0.808,-1.144 -1.487,-1.437 -5.417,-1.017 -9.395,-3.091 -15.831,-2.076 -1.104,0.167 -2.075,0.805 -3.179,1.017 -3.13,0.697 -6.989,1.352 -10.585,1.756 -3.052,1.841 -6.564,3.112 -10.245,4.298 -1.395,1.649 -2.924,1.989 -4.957,3.132 -2.329,1.356 -4.488,3.133 -6.69,5.272 -0.297,0.34 -0.383,0.846 -0.715,1.079 -2.797,2.585 -5.297,7.052 -7.753,10.649 -2.287,7.009 -4.779,14.291 -6.012,21.871 C -6.776,-17.573 -2.712,-9.126 0,0 m 24.681,-23.291 c 0.382,-3.26 2.84,-5.228 2.84,-7.809 2.414,-3.005 4.191,-7.855 6.351,-10.206 0.722,-0.825 1.607,-1.671 2.117,-2.138 0.17,-0.17 -0.128,-0.846 0,-1.079 0.721,-0.847 1.904,-1.23 2.117,-2.097 0.126,-0.506 0.467,-0.063 0.722,-0.336 5.033,-6.542 14.819,-8.45 23.329,-4.595 0.927,1.735 3.13,2.096 4.573,3.494 0.716,0.782 1.607,2.304 2.451,3.534 3.986,6.035 6.181,14.248 7.072,22.27 0.383,3.77 1.063,8.807 0.723,12.723 0,0 -0.638,0.467 -0.723,0.701 -0.085,0.442 0.085,0.931 0,1.398 -1.139,5.608 -2.584,9.736 -5.331,13.08 -0.594,0.765 -2.627,1.803 -2.797,3.176 -1.437,-0.633 -1.352,0.828 -2.499,1.42 -0.339,0.234 -1.182,0.085 -1.734,0.34 C 55.678,14.394 44.966,14.415 38.828,9.547 37.001,8.107 35.989,5.564 33.574,4.57 33.192,2.878 32.094,1.841 31.415,0.74 30.607,-0.638 30.19,-2.372 28.534,-3.537 c -1.778,-5.334 -3.767,-10.542 -5.289,-16.238 0.382,-1.228 0.884,-2.202 1.096,-3.516 -0.588,-0.145 -0.042,-0.484 0.34,0"
             style="fill:#006e3f;fill-opacity:1;fill-rule:nonzero;stroke:none"
             id="path54"
             inkscape:connector-curvature="0" />
        </g>
        <g
           id="g56"
           transform="translate(2964.1909,1387.7041)">
          <path
             d="m 0,0 c -10.373,0.378 -18.331,-0.68 -28.244,0.697 -1.436,1.059 -2.031,2.773 -2.832,4.213 -4.828,8.256 -11.987,19.541 -17.318,28.962 -4.106,7.26 -8.638,15.558 -11.986,22.271 -2.287,4.445 -4.277,9.355 -7.449,13.38 -1.571,-3.557 -0.382,-7.179 -0.34,-10.609 0.213,-8.804 0,-18.225 -0.34,-27.814 -0.297,-9.106 0,-21.28 -1.097,-30.807 -9.019,-0.696 -16.858,-0.739 -26.04,-1.015 -1.318,4.17 0.169,9.654 0,13.803 -0.128,1.632 -1.063,2.69 -0.765,4.531 0,0.17 0.722,1.016 0.765,1.059 0,0.7 -0.596,-0.277 -0.765,0.722 -0.213,1.522 0.085,3.256 0,4.909 -0.213,14.165 0.34,23.585 0.765,34.612 0.083,4.765 0.628,9.76 0.671,14.482 0,3.283 -0.671,6.351 -0.671,9.57 -0.128,9.569 0.042,18.946 0.339,28.263 7.533,0.337 14.266,-0.382 21.885,-0.382 5.041,0 8.552,0.633 8.425,-3.894 3.18,-2.733 4.362,-6.775 6.393,-10.248 2.033,-3.409 4.234,-6.879 6.018,-10.904 0.291,-0.549 0.503,0.149 0.97,-0.697 2.883,-5.569 4.532,-10.1 8.893,-14.143 0.255,-2.665 1.948,-5.016 3.18,-7.069 2.704,-4.574 5.246,-8.638 7.745,-12.724 1.225,-1.968 2.118,-4.318 4.234,-5.653 1.522,4.744 1.183,10.245 1.437,15.537 0.34,7.728 1.359,15.265 1.02,21.914 -0.042,1.84 -0.765,3.83 0.382,5.653 0.248,1.565 -0.934,-0.531 -0.722,1.016 0.213,1.037 0.298,1.862 0.34,2.836 0.339,6.988 -0.85,10.121 0,17.636 6.903,1.162 16.425,0.74 25.447,1.122 1.394,-3.685 0.084,-9.866 0.34,-14.524 0.169,-2.139 1.521,-4.596 0,-5.654 C 2.074,87.709 1.309,82.923 1.352,78.37 1.479,75.259 2.371,71.998 1.734,69.523 1.564,68.674 1.352,68.887 1.352,68.802 1.988,67.934 1.395,59.934 1.352,57.52 1.352,53.94 1.225,49.77 1.062,46.255 0.977,44.839 0.382,43.567 0.34,42.382 0,33.259 1.606,25.488 0,18.331 0.934,12.192 0.509,7.683 0,0"
             style="fill:#006e3f;fill-opacity:1;fill-rule:nonzero;stroke:none"
             id="path58"
             inkscape:connector-curvature="0" />
        </g>
        <g
           id="g60"
           transform="translate(1968.0366,1454.4946)">
          <path
             d="m 0,0 c 0.382,-1.207 1.947,-1.313 2.882,-2.095 0.849,-0.846 1.649,-2.202 2.415,-3.197 3.554,-4.425 7.235,-12.026 3.936,-19.096 -0.595,-1.186 -0.34,-0.127 -0.765,-1.734 -0.212,-0.914 -1.267,-3.218 -2.074,-4.255 -5.757,-7.516 -17.566,-12.621 -26.883,-7.074 -1.523,0.996 -3.137,3.134 -4.914,4.956 -1.353,1.416 -3.13,2.688 -3.895,3.534 -0.127,0.233 0.171,1.08 -0.297,1.78 -0.467,0.57 -1.649,0.995 -2.117,2.118 -0.928,2.053 -1.777,7.937 -0.758,11.664 0.503,1.756 3.215,5.926 4.61,7.431 0.467,0.485 0.764,-0.298 1.019,0 0.552,0.4 1.055,1.671 1.82,2.389 0.935,0.998 2.202,1.739 2.839,3.197 C -17.062,4.362 -5.841,4.086 0,0"
             style="fill:#006e3f;fill-opacity:1;fill-rule:nonzero;stroke:none"
             id="path62"
             inkscape:connector-curvature="0" />
        </g>
        <g
           id="g64"
           transform="translate(1981.5034,1499.2705)">
          <path
             d="m 0,0 c 1.947,-1.378 5.126,-0.634 8.425,-0.677 3.349,0 7.244,0.34 10.245,0 0.468,-0.042 1.062,0.149 1.403,0 0.289,-0.106 0.17,-0.701 0,-0.701 0.715,0 1.649,0.659 2.491,0.701 2.585,0.149 5.594,-0.17 8.511,-0.701 0.17,-4.909 -0.971,-9.059 -0.716,-13.42 0.255,-4.596 2.118,-8.999 1.438,-13.782 2.287,-5.292 0.68,-11.261 3.852,-16.196 13.084,-0.676 26.976,-2.287 39.89,-2.814 2.073,1.671 0.297,5.757 1.394,8.446 0.297,0.762 0.595,0.443 0.382,1.378 -0.382,1.565 0.255,2.75 0.34,4.634 0.043,1.058 -0.425,2.159 -0.34,3.154 0.383,10.5 1.693,22.062 2.414,32.116 2.5,0.552 5.375,0.361 8.129,0.361 2.711,0.042 5.204,0.382 7.746,0.382 2.924,0 6.181,-1.058 8.509,0 2.118,-0.382 4.022,-0.425 5.679,-0.382 1.692,0.085 3.512,0.909 5.289,-0.361 0.595,0.91 2.33,0.743 3.894,0.743 1.317,0.336 0.468,-1.377 0.68,-2.12 0.722,0.468 1.14,1.228 1.395,2.12 5.721,-0.807 11.944,1.015 19.095,-0.743 -1.139,-3.661 1.947,-7.979 -0.375,-12.341 -0.084,-0.846 1.649,0.233 1.054,-1.037 -0.17,-2.882 0.85,-6.606 0,-10.585 -6.733,-0.064 -9.947,0.294 -15.158,0 -0.51,0.569 -1.437,0.655 -1.055,2.138 -0.764,-0.169 -0.043,-1.887 -0.722,-2.138 -2.244,0.294 -5.926,-0.765 -7.03,0.655 -5.417,-1.649 -13.375,0.403 -19.394,-0.995 -0.247,-2.436 0.383,-5.632 -0.374,-7.43 -0.255,-1.101 1.182,-0.447 0.672,-1.757 0.467,-24.072 1.105,-41.748 1.777,-64.974 4.913,-1.144 12.582,0 18.678,0.361 2.414,0.106 5.034,0.382 6.733,-0.361 1.693,0.785 4.482,0.913 7.406,1.079 2.839,0.128 5.926,-0.145 8.467,0.319 0.043,-8.276 -1.521,-19.159 -2.838,-27.181 -23.918,0.167 -49.788,-0.276 -67.361,0 -1.02,7.325 -0.807,16.553 -0.807,26.144 0,3.196 0.637,6.521 -0.63,9.527 -10.295,0.697 -20.625,1.882 -30.02,1.376 -1.487,-5.674 -2.797,-11.094 -3.895,-16.557 -1.274,-6.708 -2.542,-12.34 -2.796,-20.83 -10.84,-0.637 -20.703,-1.249 -32.477,-1.441 -1.055,-6.286 -0.042,-11.813 0,-16.575 0.043,-4.87 -0.468,-9.865 0.34,-16.556 3.724,-1.692 8.425,-0.379 11.98,-0.379 7.497,0 14.103,-0.51 21.849,-0.382 1.062,-17.361 -0.085,-39.78 0.425,-55.381 0.042,-2.691 0.8,-5.463 -0.425,-7.452 0.977,-2.117 0.509,-2.776 0.425,-5.632 -8.851,0 -18.125,-1.335 -26.848,-0.719 0.085,11.324 1.359,25.68 1.019,40.244 -4.276,1.525 -11.817,0.276 -16.935,0.739 -2.585,0.191 -0.596,0.382 -2.797,0 -1.607,-0.357 -4.277,-0.063 -6.351,0 -9.948,0.276 -25.447,0.489 -33.532,0.701 -2.542,0.043 -5.084,0 -7.413,0 -2.329,0.043 -4.737,0.358 -7.108,-0.382 -1.19,-5.335 -0.765,-15.835 -0.68,-19.729 0.17,-6.711 0.213,-16.514 -0.34,-23.669 -4.106,0.208 -8.425,0.718 -12.362,0.718 -2.584,0 -5.254,-0.212 -8.128,0.319 -0.68,0.149 -2.287,-0.34 -1.777,1.059 -0.51,-0.064 -0.128,-1.059 -0.679,-1.059 -2.755,1.208 -6.012,-0.297 -8.129,1.395 -0.382,2.563 -0.722,3.898 0.715,5.696 -0.928,2.16 1.063,4.617 0,7.027 2.202,5.569 1.862,15.541 3.477,21.51 0.339,1.674 -0.51,0.424 -0.68,1.08 1.267,6.924 2.457,16.428 3.512,24.051 13.806,1.586 26.763,1.777 38.827,2.435 4.064,0.252 8.002,0.337 11.307,1.438 0.213,10.755 -0.509,21.19 -1.019,32.116 -0.17,3.642 0.68,8.046 -1.055,10.966 -10.585,-0.361 -18.5,-1.27 -30.402,-1.798 -2.542,-0.084 -6.777,0 -7.746,0 -1.82,3.894 -1.82,10.351 -2.839,16.235 -1.013,6.245 -1.947,12.702 -3.172,18.037 -11.18,-0.23 -22.614,0.531 -32.477,-0.358 -1.147,-11.898 0.297,-23.669 -0.679,-34.254 -8.596,-0.594 -17.489,0.592 -28.286,0.34 -1.777,-0.021 -3.512,-0.722 -5.289,-0.722 -1.317,0.064 -2.753,0.722 -4.234,0.722 -2.329,-0.021 -4.744,-0.807 -7.073,-0.722 -2.457,0.17 -4.956,0.889 -7.406,0.722 -1.232,-0.084 -2.584,-0.594 -3.816,-0.722 -3.045,-0.149 -7.491,0.255 -11.725,0.382 -1.735,1.459 -0.849,4 -1.019,6.033 -0.085,0.531 -0.298,0.782 -0.34,1.398 -0.248,3.048 -1.14,8.489 -0.716,12.005 -1.061,1.862 -1.776,5.607 -1.061,7.766 7.88,1.633 13.552,0.064 20.837,1.377 1.097,0.319 1.309,-0.297 1.691,-0.676 5.884,1.123 12.49,0.655 21.595,0.676 -0.212,0.319 -0.467,0.635 0,0.698 0.886,0.276 0.716,1.695 0.716,2.521 0,5.314 -1.183,13.084 0,18.694 -0.928,0.23 -1.055,4.128 0,6.31 -1.31,1.754 -0.716,4.084 -0.716,6.01 0,3.388 -0.637,7.134 0.333,9.187 -0.715,0.658 0.043,2.945 -0.715,3.536 0.631,2.776 0.085,6.67 0,10.606 -0.085,5.101 0.8,10.712 -1.062,14.143 -1.352,0.591 -3.002,-0.043 -4.531,0 -1.055,0.021 -1.012,0.74 -0.758,0.697 -2.372,0.468 -6.606,-0.315 -9.87,-0.357 -3.341,-0.064 -6.478,-0.064 -9.523,0 -6.732,0.085 -12.786,0.187 -17.997,-0.34 -0.8,9.505 0.382,17.718 0.34,24.664 3.263,1.606 6.861,0.382 10.245,0.382 4.998,-0.042 9.615,0 14.486,0 0.757,0 1.607,0.315 2.449,0.379 0.766,0.021 0.043,-0.528 1.445,-0.379 0.757,0.06 7.363,-0.106 7.405,0 0,0 6.564,0.379 8.469,0.379 1.904,-0.043 3.773,-0.719 5.593,-0.761 0.885,0 1.989,0.34 2.832,0.382 2.202,0.082 5.042,-0.149 8.177,-0.382 1.055,-1.675 0.673,-4.171 0.673,-6.67 0,-7.154 1.523,-14.904 2.117,-22.27 0.426,-5.144 -0.17,-10.185 0.383,-16.579 0.127,-1.649 0,-3.341 1.394,-4.57 10.295,0.591 19.265,1.735 29.68,2.453 3.392,0.255 7.116,-0.166 10.592,1.059 1.481,6.269 1.311,12.153 3.215,18.716 0.085,0.446 -0.255,1.038 0,1.399 0,0.106 0.68,0.442 0.637,0.379 0.34,1.844 -0.297,4.19 0,6.35 0.758,5.315 1.947,11.499 2.874,16.557 9.955,0.107 21.468,-0.042 33.157,0 1.013,0.107 0.468,1.714 1.734,1.438 0.723,13.678 2.075,23.882 2.457,36.328 -1.352,1.547 -4.616,0.871 -7.37,1.079 -10.288,0.978 -28.831,1.42 -42.764,3.197 0.382,4.068 -0.8,6.248 0.382,8.809 -1.182,0.446 -0.297,2.519 -0.382,4.616 -0.213,16.786 -1.097,34.063 -0.673,48.354 5.884,0.421 17.361,0 25.064,-0.362 0.043,-14.44 -0.085,-30.211 0,-43.082 6.394,-1.165 13.127,-0.17 19.053,0 7.873,0.212 13.594,-0.17 20.49,0 0.977,0.042 2.117,0.657 3.179,0.722 10.584,0.442 23.117,-0.51 32.094,1.037 0.68,3.448 0.255,7.494 0,11.707 -0.467,9.59 -1.231,20.324 -1.734,29.276 8.212,0.362 18.84,-2.052 27.138,-2.516 0.509,-18.971 0.638,-45.136 0,-68.13 C 25.276,30.866 10.373,32.583 0.34,31.121 -0.212,29.892 0.043,25.977 -0.382,24.409 -0.51,24.029 0.17,23.201 0.34,21.232 0.552,18.164 -0.042,14.291 0,10.648 0.043,7.03 0.084,3.515 0,0 m 135.238,0 c 0.588,0.085 1.098,0.297 1.353,0.761 C 135.954,0.658 134.856,1.122 135.238,0 m -0.382,-3.831 c -0.425,1.143 1.098,0.234 0.722,1.394 h -1.062 c 0.043,-0.526 -0.17,-1.309 0.34,-1.394 m -3.512,0.719 c -1.741,0.973 -0.891,-1.165 0,0 m 7.406,0.319 h -0.764 V -4.17 h 0.764 z m -3.894,-2.457 c -0.212,0.403 -0.382,0.803 -0.722,1.079 -0.043,-0.485 0.552,-1.904 0.722,-1.079 m -3.178,-1.735 c 0.467,-0.931 2.116,0.213 1.062,0.676 0,-0.591 -0.978,-0.191 -1.062,-0.676 M -5.332,-19.687 c -1.316,0 -3.604,-0.297 -4.573,0 -1.147,0.209 -1.02,1.016 -1.445,1.016 0.425,0 -0.545,-0.974 -0.715,-1.016 -1.784,-0.765 -7.456,0.272 -9.87,0.293 -0.756,1.06 0.468,-0.527 -0.339,-0.293 -10.797,0 -24.512,0.378 -37.426,-0.382 -1.522,-3.388 -0.765,-6.985 -1.062,-10.585 -0.248,-3.303 -1.055,-6.521 -1.437,-9.887 -0.298,-3.746 0,-7.601 -0.298,-11.283 -0.212,-2.584 -0.969,-5.02 -1.055,-7.431 -0.212,-2.839 -0.637,-5.568 -0.383,-8.468 0.469,-4.764 1.438,-9.275 2.16,-13.802 0.383,-2.776 0.723,-5.126 1.395,-9.126 0.383,-2.457 0.893,-5.926 1.734,-9.187 5.934,-0.931 12.2,-0.743 18.338,-0.765 6.096,0 12.193,-0.336 17.744,-0.315 5.076,0.022 10.457,1.144 16.17,1.777 5.417,0.571 11.265,1.356 16.597,2.117 0.509,9.063 0.339,18.101 0.339,27.86 0.042,2.543 -0.169,5.038 0,6.734 0.17,1.374 0.595,0.74 0,1.798 0.255,-0.446 0,0.697 0,0.697 -0.297,4.298 0.808,10.501 0.382,15.499 -0.636,7.749 -3.469,16.111 -4.233,24.367 -4.489,0.74 -8.808,0.424 -12.023,0.382"
             style="fill:#006e3f;fill-opacity:1;fill-rule:nonzero;stroke:none"
             id="path66"
             inkscape:connector-curvature="0" />
        </g>
      </g>
    </g>
  </g>
</svg>
