<?xml version="1.0" encoding="UTF-8" standalone="no"?>
<!-- Created with Inkscape (http://www.inkscape.org/) -->

<svg
   xmlns:dc="http://purl.org/dc/elements/1.1/"
   xmlns:cc="http://creativecommons.org/ns#"
   xmlns:rdf="http://www.w3.org/1999/02/22-rdf-syntax-ns#"
   xmlns:svg="http://www.w3.org/2000/svg"
   xmlns="http://www.w3.org/2000/svg"
   xmlns:sodipodi="http://sodipodi.sourceforge.net/DTD/sodipodi-0.dtd"
   xmlns:inkscape="http://www.inkscape.org/namespaces/inkscape"
   width="496.00485mm"
   height="348.92761mm"
   viewBox="0 0 496.00485 348.92761"
   version="1.1"
   id="svg504"
   inkscape:version="0.92.1 r15371"
   sodipodi:docname="F.svg">
  <defs
     id="defs498" />
  <sodipodi:namedview
     id="base"
     pagecolor="#ffffff"
     bordercolor="#666666"
     borderopacity="1.0"
     inkscape:pageopacity="0.0"
     inkscape:pageshadow="2"
     inkscape:zoom="0.62178608"
     inkscape:cx="937.332"
     inkscape:cy="659.39076"
     inkscape:document-units="mm"
     inkscape:current-layer="layer1"
     showgrid="false"
     fit-margin-top="0"
     fit-margin-left="0"
     fit-margin-right="0"
     fit-margin-bottom="0"
     inkscape:window-width="1680"
     inkscape:window-height="1013"
     inkscape:window-x="0"
     inkscape:window-y="0"
     inkscape:window-maximized="1" />
  <metadata
     id="metadata501">
    <rdf:RDF>
      <cc:Work
         rdf:about="">
        <dc:format>image/svg+xml</dc:format>
        <dc:type
           rdf:resource="http://purl.org/dc/dcmitype/StillImage" />
        <dc:title></dc:title>
      </cc:Work>
    </rdf:RDF>
  </metadata>
  <g
     inkscape:label="Calque 1"
     inkscape:groupmode="layer"
     id="layer1"
     transform="translate(523.16906,201.76738)">
    <g
       transform="matrix(0.35277777,0,0,-0.35277777,-1207.1684,436.77535)"
       id="g451">
      <g
         transform="translate(2757.9268,1039.2314)"
         id="g162">
        <path
           inkscape:connector-curvature="0"
           id="path164"
           style="fill:#73bb81;fill-opacity:1;fill-rule:evenodd;stroke:none"
           d="m 0,0 c 7.062,14.102 10.303,35.397 6.879,55.559 -53.616,-2.918 -80.225,19.727 -109.287,40.045 -23.785,-19.637 -54.715,-32.598 -85.924,-45.217 h -1.456 c -1.144,-2.755 -5.927,-2.049 -8.159,-3.871 1.464,-17.151 10.575,-27.131 16.402,-40.068 2.961,-4.944 4.783,-10.959 9.524,-14.192 1.323,-5.671 5.056,-8.974 8.241,-12.962 17.635,-24.169 34.943,-48.768 64.196,-62.003 3.918,-5.33 14.301,-1.639 17.674,1.321 7.2,4.349 15.488,7.722 20.503,14.238 13.39,8.816 26.014,18.337 35.445,30.958 7.056,5.03 11.608,12.32 16.441,19.383 C -5.689,-11.842 -3.229,-5.604 0,0 m 252.526,187.401 c 50.165,3.37 79.5,26.354 111.986,46.47 -26.793,37.903 5.279,90.224 51.839,76.282 31.169,-9.317 27.335,-63.165 1.372,-77.558 15.259,-4.967 35.668,-4.967 55.985,-5.151 34.944,1.803 68.288,5.127 95.493,14.216 1.363,-8.677 4.463,-15.648 5.509,-24.556 -5.509,-11.207 -18.087,-15.625 -27.29,-23.3 -23.553,-11.279 -48.746,-21.05 -77.857,-27.11 -5.378,-0.865 -9.704,-2.799 -16.355,-2.597 1.054,-9.702 6.239,-15.624 9.521,-23.231 8.884,-14.032 17.172,-28.588 27.335,-41.366 3.594,-4.378 6.057,-9.797 10.885,-12.939 v -1.299 c 5.381,-6.971 10.575,-14.125 17.774,-19.339 4.236,-8.086 12.205,-12.643 17.719,-19.407 12.076,-11.892 25.195,-22.663 39.638,-32.278 h 1.363 c 1.957,-3.759 6.56,-5.011 9.524,-7.79 -0.733,-8.108 0.181,-18.065 -1.326,-25.854 h -5.463 -17.81 c -38.733,2.436 -69.661,12.459 -96.856,25.854 -4.557,4.716 -9.981,8.631 -15.038,12.937 v -2.549 c 1.82,-39.248 5.971,-76.241 9.568,-113.757 -16.083,12.345 -28.02,28.61 -43.691,41.367 v 1.294 c -4.739,4.58 -8.15,10.342 -13.666,14.193 -37.991,48.108 -79.722,99.27 -76.449,182.209 -10.703,-3.032 -22.914,-11.096 -39.538,-11.64 -18.544,-0.571 -35.948,6.537 -50.53,10.364 -5.965,3.847 -12.66,6.97 -19.129,10.341 -1.461,-5.945 -4.373,-10.524 -5.424,-16.812 -6.238,-6.537 -10.019,-15.512 -16.4,-21.96 -6.514,-8.086 -15.031,-14.234 -23.235,-20.683 -5.281,-4.895 -13.304,-7.149 -17.764,-12.912 -4.147,-0.365 -6.105,-2.826 -9.525,-3.875 6.606,-12.709 8.251,-30.113 9.525,-47.833 -3.059,-1.801 -0.458,-8.999 -1.274,-12.894 v -7.79 c -3.741,-22.301 -8.161,-43.987 -13.713,-64.601 -7.063,-19.566 -14.306,-38.996 -21.826,-58.132 -3.459,-3.19 -4.646,-8.495 -6.834,-12.936 -12.258,-25.467 -27.744,-47.862 -43.688,-69.799 -6.927,-5.053 -11.983,-11.933 -17.721,-18.107 -0.823,17.107 5.057,39.111 4.099,60.751 2.278,8.611 2.278,26.263 0,34.921 0.821,18.429 -5.782,29.886 -9.569,43.918 -6.741,-0.068 -8.288,-5.104 -13.666,-6.448 -4.282,-2.823 -10.84,-3.531 -13.622,-7.767 h -1.361 c -5.287,-1.413 -9.936,-3.577 -13.668,-6.444 -30.115,-6.22 -66.698,-32.279 -105.108,-29.726 -17.902,1.16 -38.539,14.943 -55.986,21.977 -20.177,8.065 -38.455,14.697 -55.992,21.96 -8.471,-45.9 4.326,-93.051 10.932,-133.142 -2.818,-3.846 -5.552,3.258 -9.522,2.598 -12.25,9.952 -23.685,20.637 -35.486,30.977 v 1.347 c -7.931,7.973 -13.847,17.901 -21.87,25.829 -32.796,49.068 -61.271,102.23 -66.872,177.083 v 21.936 c 0.768,10.455 1.224,21.207 4.054,29.724 -47.156,15.264 -79.32,44.624 -99.637,85.262 -1.41,-0.297 -0.907,-2.529 -2.691,-2.553 -6.833,-5.647 -14.711,-10.18 -20.5,-16.831 -16.22,-8.337 -32.256,-16.787 -46.424,-27.104 4.014,-17.77 5.79,-37.612 6.833,-58.135 V 12.939 c -4.42,-67.355 -18.176,-125.832 -53.205,-164.142 -12.165,42.346 -25.558,83.527 -40.963,122.754 0.46,4.738 -1.545,7.176 -2.727,10.363 -23.966,-16.517 -51.849,-40.523 -77.864,-59.451 -1.134,0.251 -1.226,-0.502 -1.319,-1.299 -3.958,0.319 -4.737,-2.436 -6.833,-3.873 -5.422,-3.052 -10.748,-6.147 -14.984,-10.342 h -2.781 c -2.873,17.083 -9.385,30.773 -13.709,46.517 -0.186,7.971 5.871,10.044 8.285,15.51 10.346,16.011 21.004,31.824 30.022,49.113 v 1.296 c 13.851,25.215 28.431,49.75 31.386,85.284 -37.486,10.136 -73.255,21.936 -106.46,36.197 -1.737,10.409 -5.56,18.904 -8.159,28.404 -1.686,1.687 -0.594,2.048 0,3.896 2.184,0.339 2.277,-1.23 4.053,-1.322 56.953,-6.083 107.246,4.008 148.795,19.407 -35.812,9.157 -39.727,66.856 -8.203,82.709 44.511,22.39 78.224,-38.745 51.938,-74.942 13.761,-5.444 29.978,-8.585 44.963,-12.94 29.024,-5.964 65.425,-2.163 83.281,10.342 8.06,-1.002 10.025,-7.721 16.401,-10.342 4.282,-3.71 8.426,-7.47 13.667,-10.341 4.099,-4.282 9.386,-7.47 15.03,-10.32 17.638,-10.386 35.95,-20.202 62.734,-22.003 3.285,-2.118 15.857,-2.118 19.185,0 4.967,-0.338 8.881,0.206 12.204,1.321 -1.457,22.938 3.465,39.866 9.567,55.559 6.286,8.292 12.852,16.288 23.235,20.706 12.533,3.21 24.15,-0.957 34.123,-3.896 18.953,-9.977 21.596,-42.689 9.521,-62.028 -1.82,-0.841 -2.506,-2.799 -2.69,-5.168 -5.461,-5.602 -10.427,-11.685 -17.764,-15.513 2.142,-2.21 5.103,-3.801 8.198,-5.146 6.785,-2.644 11.707,-7.062 20.46,-7.791 25.915,-10.866 59.272,-3.394 79.176,5.169 5.058,2.187 28.843,17.995 30.022,18.108 4.464,0.275 21.956,-12.413 30.069,-15.486 22.092,-8.431 54.67,-12.504 80.547,-6.495 7.335,1.687 14.627,3.417 20.455,6.495 5.056,0.772 7.974,3.599 12.301,5.146 -8.068,5.694 -15.267,12.28 -21.825,19.36 -22.732,32.666 -1.685,65.172 34.075,64.647 37.495,-0.568 56.085,-38.517 43.644,-76.26 29.072,1.432 48.886,11.479 66.971,23.275 15.084,9.775 28.201,21.553 38.228,36.176 6.512,-1.185 7.328,-7.721 13.621,-9.042 8.151,-3.509 22.137,-8.339 32.751,-5.15" />
      </g>
      <g
         transform="translate(3231.6348,1266.6758)"
         id="g166">
        <path
           inkscape:connector-curvature="0"
           id="path168"
           style="fill:#006bb1;fill-opacity:1;fill-rule:evenodd;stroke:none"
           d="m 0,0 c -20.317,0.184 -40.726,0.184 -55.985,5.15 25.963,14.394 29.797,68.242 -1.372,77.559 -46.56,13.941 -78.632,-38.379 -51.839,-76.282 -32.486,-20.116 -61.821,-43.1 -111.986,-46.47 7.198,21.162 13.939,42.755 17.726,67.174 -4.555,2.983 -14.901,0.431 -21.826,1.3 -51.793,5.192 -81.542,31.318 -113.305,55.578 -3.959,4.829 -8.515,9.133 -13.619,12.892 -1.822,0.481 -2.232,2.279 -4.099,2.599 -4.602,1.321 -11.434,-6.426 -15.078,-10.341 -35.263,-24.261 -71.159,-48.063 -114.62,-64.602 -2.01,-52.71 8.561,-93.622 24.6,-129.247 -25.877,-6.009 -58.455,-1.936 -80.547,6.495 -8.113,3.073 -25.605,15.76 -30.069,15.486 -1.179,-0.113 -24.964,-15.921 -30.022,-18.108 -19.904,-8.563 -53.261,-16.036 -79.176,-5.169 -3.647,10.297 -4.472,23.323 -8.204,33.618 12.075,19.339 9.432,52.051 -9.521,62.027 -2.049,23.441 -5.196,45.922 -5.463,71.072 -16.996,12.754 -33.948,25.578 -50.525,38.769 -7.106,7.857 -14.854,15.194 -23.141,21.959 -19.733,22.709 -41.047,43.892 -57.358,69.793 -27.113,-29.521 -51.117,-61.912 -79.181,-90.453 -6.057,-4.624 -11.481,-9.82 -16.403,-15.537 -13.758,-8.906 -23.189,-21.96 -40.953,-27.106 -3.596,-34.944 -7.795,-69.362 -16.403,-99.522 -14.985,4.354 -31.202,7.496 -44.963,12.939 26.286,36.198 -7.427,97.332 -51.939,74.943 -31.523,-15.853 -27.608,-73.552 8.204,-82.709 -41.549,-15.4 -91.842,-25.491 -148.795,-19.408 1.736,8.655 10.252,15.195 16.355,21.96 18.002,20.066 38.952,42.504 47.842,72.412 -47.477,26.174 -91.348,55.67 -131.074,89.157 v 5.149 36.216 5.172 c 45.332,-16.949 90.978,-33.599 154.211,-33.599 15.494,-2.163 40.505,-2.163 55.99,0 3.965,-0.16 8.931,0.681 10.889,-1.322 3.052,3.485 -3.551,6.175 -6.789,7.744 -4.465,5.287 -9.432,10.044 -14.985,14.215 -8.928,15.058 -21.873,25.692 -21.873,46.536 0,28.339 27.656,46.242 54.631,46.538 46.872,0.522 68.428,-51.616 60.038,-96.947 68.799,24.465 130.208,67.107 173.349,120.205 16.769,-21.186 31.478,-44.261 51.933,-62.026 4.425,-5.287 9.387,-10.026 15.037,-14.239 25.285,-22.48 51.612,-44.099 96.812,-47.787 2.416,-2.145 14.033,-2.145 16.401,0 5.006,-0.412 8.838,0.179 12.25,1.295 -1.82,31.618 5.014,65.809 19.182,86.56 h 1.365 c 2.916,5.854 8.526,9.134 12.257,14.237 8.47,3.075 12.669,7.813 20.545,9.044 85.741,13.393 82.599,-103.05 27.244,-124.053 20.497,-15.057 46.423,-25.01 81.917,-25.855 1.5,-2.141 12.205,-2.141 13.668,0 47.33,1.253 77.123,19.091 105.097,38.772 30.799,-16.059 61.364,-32.347 107.835,-33.623 3.641,-2.14 16.812,-2.14 20.453,0 33.304,0 55.537,10.364 79.229,19.384 -27.517,14.738 -68.341,71.732 -32.804,103.415 10.383,9.181 31.022,16.494 47.788,16.742 51.574,0.982 88.797,-55.578 64.144,-107.218 37.176,-2.826 62.69,16.49 83.281,33.619 5.151,3.783 9.706,8.064 13.668,12.917 10.704,10.935 20.454,22.846 28.614,36.174 C 71.071,223.645 86.52,208.175 94.216,196.42 85.466,163.278 67.702,138.771 49.114,115.011 40.414,107.77 32.163,100.045 24.554,91.756 11.891,83.441 0.595,73.964 -13.666,67.176 -5.057,48.656 0.685,27.338 0,0" />
      </g>
      <g
         transform="translate(2994.0947,1180.0977)"
         id="g170">
        <path
           inkscape:connector-curvature="0"
           id="path172"
           style="fill:#006bb1;fill-opacity:1;fill-rule:evenodd;stroke:none"
           d="m 0,0 c 14.582,-3.827 31.986,-10.936 50.53,-10.364 16.624,0.544 28.835,8.608 39.538,11.639 -3.273,-82.938 38.458,-134.1 76.449,-182.209 -1.271,0 -1.004,-1.591 -1.41,-2.597 -17.818,-29.566 -36.9,-57.992 -60.044,-82.687 -3.741,-0.818 -6.88,-8.837 -9.524,-6.445 v 19.407 c -0.867,6.468 1.776,16.288 -1.364,20.638 -1.097,55.833 -7.564,106.58 -21.78,149.908 -58.674,-36.718 -105.831,-84.213 -169.333,-116.31 5.551,20.615 9.971,42.301 13.712,64.602 C -48.509,-96.221 -23.135,-49.183 0,0" />
      </g>
      <g
         transform="translate(2569.5947,1089.6182)"
         id="g174">
        <path
           inkscape:connector-curvature="0"
           id="path176"
           style="fill:#006bb1;fill-opacity:1;fill-rule:evenodd;stroke:none"
           d="M 0,0 C 31.209,12.619 62.139,25.58 85.924,45.217 114.986,24.899 141.595,2.254 195.211,5.172 c 3.424,-20.161 0.183,-41.457 -6.879,-55.559 -10.154,-0.34 -17.671,12.482 -27.242,16.836 -5.332,6.627 -12.981,11 -19.137,16.741 -16.219,13.552 -30.424,35.808 -46.416,45.263 -2.279,-17.679 -6.019,-33.92 -5.516,-54.306 -3.145,-9.042 -0.411,-23.689 -1.273,-34.898 v -20.66 -21.96 c 0.816,-6.056 -1.872,-15.486 1.273,-19.384 -0.776,-3.073 1.775,-9.386 -1.273,-10.341 -29.253,13.236 -46.56,37.834 -64.196,62.003 C 16.994,-46.765 7.701,-24.078 0,0" />
      </g>
      <g
         transform="translate(3220.6563,1180.0977)"
         id="g178">
        <path
           inkscape:connector-curvature="0"
           id="path180"
           style="fill:#006bb1;fill-opacity:1;fill-rule:evenodd;stroke:none"
           d="M 0,0 C -3.282,7.606 -8.468,13.528 -9.521,23.23 -2.87,23.029 1.455,24.963 6.834,25.828 5.333,17.128 5.922,0.248 0,0" />
      </g>
      <g
         transform="translate(2086.2715,961.6943)"
         id="g182">
        <path
           inkscape:connector-curvature="0"
           id="path184"
           style="fill:#006bb1;fill-opacity:1;fill-rule:evenodd;stroke:none"
           d="M 0,0 C 26.016,18.928 53.898,42.935 77.864,59.451 79.046,56.264 81.051,53.826 80.591,49.088 68.159,25.555 51.621,5.924 35.54,-14.215 28.157,-20.114 21.323,-26.606 15.084,-33.6 9.935,-36.493 5.06,-39.637 1.462,-43.918 -1.774,-31.847 0.961,-14.215 0,0" />
      </g>
      <g
         transform="translate(2039.3525,1558.8828)"
         id="g186">
        <path
           inkscape:connector-curvature="0"
           id="path188"
           style="fill:#73bb81;fill-opacity:1;fill-rule:nonzero;stroke:none"
           d="m 0,0 c 21.187,8.951 31.89,13.259 53.302,21.368 4.284,1.638 7.65,2.344 9.882,2.141 2.417,-0.228 4.152,-1.299 5.606,-3.146 1.364,-1.775 2.598,-4.442 3.733,-7.857 C 73.758,9.088 74.398,6.197 74.398,3.92 74.436,1.572 73.805,-0.252 72.523,-1.616 70.566,-3.76 67.428,-5.741 63.138,-7.336 35.266,-17.903 21.461,-23.574 -6.02,-35.534 c -8.882,-3.898 -14.982,-3.646 -18.579,0.296 -1.555,1.638 -3.331,4.716 -5.151,9.111 -17.543,42.048 -26.242,63.097 -43.735,105.168 -1.189,2.872 -2.048,5.104 -2.459,6.654 -0.366,1.501 -0.412,3.505 -0.093,5.896 0.504,4.241 5.15,8.361 14.034,12.259 9.705,4.212 16.676,4.327 20.132,0.361 1.502,-1.752 3.148,-5.031 4.832,-9.473 C -22.184,56.88 -14.854,37.881 0,0" />
      </g>
      <g
         transform="translate(2162.1709,1637.0361)"
         id="g190">
        <path
           inkscape:connector-curvature="0"
           id="path192"
           style="fill:#73bb81;fill-opacity:1;fill-rule:nonzero;stroke:none"
           d="m 0,0 c 5.195,1.665 7.156,4.533 5.882,8.769 -0.823,3.032 -2.736,5.081 -5.653,6.175 -2.957,1.069 -6.698,0.91 -11.068,-0.523 -4.464,-1.481 -8.382,-4.647 -11.666,-9.614 -3.227,-4.921 -4.188,-9.363 -3.001,-13.259 C -15.303,-4.99 -10.199,-3.303 0,0 M 41.459,19.022 C 43.644,10.891 43.196,4.258 40.094,-0.818 37.086,-5.991 33.078,-9.271 28.109,-10.775 9.026,-16.58 -0.54,-19.658 -19.403,-26.126 c 1.089,-3.645 4.236,-5.969 9.385,-6.993 5.149,-1.002 9.881,-0.774 14.261,0.59 7.695,2.529 13.484,5.218 17.447,8.178 0.824,0.572 1.181,0.869 2.049,1.458 2.734,2.439 5.195,4.012 7.29,4.648 4.326,1.299 8.928,-0.594 13.53,-5.626 2.736,-2.963 4.373,-5.855 5.148,-8.338 3.231,-11.777 -9.246,-21.57 -36.992,-30.567 -9.615,-3.147 -18.681,-4.396 -27.196,-3.622 -8.57,0.751 -15.855,3.095 -21.828,6.993 -11.616,7.629 -19.951,17.764 -24.277,30.705 -5.607,16.332 -4.646,31.412 3.41,45.194 7.934,13.804 20.503,23.619 37.453,29.154 19.273,6.289 35.666,4.125 48.063,-6.17 6.556,-5.448 10.885,-12.304 13.119,-20.456" />
      </g>
      <g
         transform="translate(2232.2412,1604.5073)"
         id="g194">
        <path
           inkscape:connector-curvature="0"
           id="path196"
           style="fill:#73bb81;fill-opacity:1;fill-rule:nonzero;stroke:none"
           d="m 0,0 c -2.873,0.869 -4.875,3.055 -5.79,6.494 -0.905,3.417 0.505,9.519 3.56,17.857 0.96,2.575 3.007,4.464 6.284,5.378 3.329,0.889 8.251,0.477 14.671,-1.321 6.467,-1.734 11.894,-2.096 16.449,-0.914 8.241,2.075 12.022,4.669 11.299,7.884 -0.551,2.548 -5.609,3.28 -14.902,2.255 -8.79,-1.024 -18.04,-0.114 -27.656,2.686 -4.508,1.275 -8.79,4.147 -12.661,8.566 -3.922,4.395 -6.83,10.067 -8.652,17.107 -5.426,20.957 7.054,35.946 37.669,43.643 9.981,2.485 20.823,2.69 32.393,0.592 5.426,-1.003 8.427,-3.189 9.112,-6.423 0.639,-3.165 -0.047,-7.515 -2.186,-12.894 -2.051,-5.397 -4.648,-8.471 -7.838,-9.248 -1.639,-0.384 -4.959,-0.091 -9.928,0.822 -4.922,0.934 -10.117,0.751 -15.311,-0.616 -8.201,-2.027 -11.976,-4.579 -11.251,-7.516 0.957,-3.965 6.338,-5.424 15.897,-4.193 9.202,1.207 18.773,0.822 28.156,-1.277 4.373,-0.978 8.425,-3.462 12.029,-7.469 3.595,-4.057 6.146,-9.545 7.609,-16.585 C 80.364,37.88 80.318,31.619 78.681,26.129 77.082,20.66 74.217,16.105 70.064,12.687 62.6,6.541 52.3,1.916 39.547,-1.295 26.832,-4.579 13.715,-4.122 0,0" />
      </g>
      <g
         transform="translate(2429.9189,1746.0771)"
         id="g198">
        <path
           inkscape:connector-curvature="0"
           id="path200"
           style="fill:#73bb81;fill-opacity:1;fill-rule:nonzero;stroke:none"
           d="m 0,0 c 9.887,1.345 16.033,-0.521 18.266,-5.488 1.226,-2.484 2.05,-5.855 2.505,-10.09 0.502,-4.217 0.457,-7.634 -0.181,-10.274 -0.64,-2.62 -1.867,-4.624 -3.643,-5.968 -2.779,-2.004 -6.924,-3.416 -12.531,-4.19 -5.471,-0.411 -8.152,-0.594 -13.623,-1.028 2.92,-21.911 4.374,-32.869 7.428,-54.735 0.634,-5.17 0.542,-9.113 -0.366,-11.825 -1.004,-2.708 -2.734,-4.625 -5.24,-5.9 -2.506,-1.18 -5.78,-2.095 -9.978,-2.754 -4.145,-0.64 -7.559,-0.75 -10.11,-0.274 -2.646,0.48 -4.601,1.595 -5.972,3.371 -1.412,1.801 -2.362,3.486 -2.774,5.104 -0.457,1.592 -0.914,3.939 -1.508,7.062 -3.369,21.548 -5.006,32.343 -8.336,53.894 -3.101,-0.503 -4.554,-0.777 -7.562,-1.276 -3.642,-0.366 -6.515,-0.023 -8.154,1.048 -3.007,2.003 -5.285,6.81 -6.467,14.078 -1.875,11.16 1.365,17.445 9.742,18.927 2.873,0.457 4.292,0.731 7.108,1.184 -0.676,4.328 -1.042,6.496 -1.727,10.776 -1.639,10.479 0.822,20.615 7.609,30.408 6.698,9.751 17.858,15.88 33.073,17.997 3.464,0.5 5.972,0.727 7.746,0.751 1.684,0.023 3.777,-0.389 6.101,-1.162 C 5.422,48.337 8.148,43.37 9.246,34.67 10.023,28.088 9.291,23.145 7.242,20.07 5.467,17.679 2.275,15.809 -1.869,15.104 c -1.28,-0.207 -3.375,-0.435 -6.11,-0.819 -5.326,-0.731 -7.74,-2.85 -7.237,-6.243 0.539,-4.487 0.861,-6.766 1.454,-11.252 C -8.245,-1.889 -5.471,-1.253 0,0" />
      </g>
      <g
         transform="translate(2495.4697,1699.2451)"
         id="g202">
        <path
           inkscape:connector-curvature="0"
           id="path204"
           style="fill:#73bb81;fill-opacity:1;fill-rule:nonzero;stroke:none"
           d="m 0,0 c 0.459,-4.532 2.645,-8.406 6.567,-11.663 3.915,-3.28 8.379,-4.692 13.531,-4.258 5.051,0.43 9.155,2.62 12.25,6.605 3.145,3.964 4.552,8.178 4.242,12.641 -0.319,4.443 -2.278,8.476 -5.836,12.052 -3.55,3.597 -8.15,5.147 -13.713,4.67 C 11.525,19.567 7.154,17.199 4.061,13.054 0.961,8.86 -0.359,4.534 0,0 m 35.127,46.082 c 0.458,0.205 5.743,12.049 16.217,12.733 5.609,0.362 9.8,0.184 12.58,-0.457 2.771,-0.727 4.693,-2.048 5.918,-4.029 1.142,-2.008 1.914,-3.783 2.234,-5.378 0.227,-1.547 0.502,-3.917 0.593,-7.058 1.456,-28.839 2.095,-43.26 3.505,-72.075 0.137,-3.143 0.137,-5.535 0.045,-7.131 -0.138,-1.569 -0.588,-3.508 -1.499,-5.512 -1.593,-3.645 -6.24,-5.717 -13.576,-6.17 -7.382,-0.48 -12.396,0.092 -14.994,1.752 -2.645,1.71 -4.921,7.858 -4.921,7.858 -0.631,0.092 -12.618,-11.933 -24.28,-12.981 -11.617,-1.097 -22.869,3.211 -34.121,12.844 -11.158,9.682 -17.719,21.529 -19.318,35.809 -1.594,14.238 2.138,27.402 11.617,39.317 9.521,11.914 20.728,18.542 33.533,19.704 4.922,0.408 9.478,0 13.576,-1.322 4.098,-1.322 7.017,-2.666 8.655,-3.965 1.685,-1.34 4.236,-3.939 4.236,-3.939" />
      </g>
      <g
         transform="translate(2661.9404,1760.1563)"
         id="g206">
        <path
           inkscape:connector-curvature="0"
           id="path208"
           style="fill:#73bb81;fill-opacity:1;fill-rule:nonzero;stroke:none"
           d="m 0,0 c 2.643,-0.819 4.969,-2.255 6.742,-4.259 1.775,-2.007 2.644,-5.218 2.598,-9.615 -0.047,-4.394 -1.5,-9.179 -4.283,-14.37 -2.642,-5.173 -6.557,-7.771 -11.616,-7.771 -2.599,0 -4.967,0.572 -7.289,1.642 -2.327,1.116 -5.426,1.615 -9.252,1.593 -3.822,-0.021 -7.334,-1.41 -10.658,-4.032 -3.237,-2.688 -4.873,-5.876 -4.83,-9.544 0.367,-17.334 0.506,-25.99 0.772,-43.301 0.045,-3.165 0,-5.535 -0.174,-7.131 -0.186,-1.569 -0.824,-3.462 -1.875,-5.489 -1.865,-3.622 -7.199,-5.488 -15.718,-5.718 -6.511,-0.205 -11.298,0.728 -14.077,2.983 -2.278,1.756 -3.778,4.876 -4.051,8.658 -0.094,1.345 -0.141,3.416 -0.186,6.014 -1.134,28.927 -1.681,43.393 -2.781,72.323 -0.136,3.165 -0.09,5.512 0.047,7.104 0.183,1.573 0.685,3.374 1.646,5.355 1.819,3.76 7.374,5.877 16.622,6.125 8.617,0.251 14.035,-1.295 16.219,-4.35 1.599,-2.14 2.552,-6.741 2.552,-6.741 0.046,-0.024 1.776,2.14 3.057,3.53 1.362,1.436 4.279,3.303 8.652,5.695 4.464,2.392 8.379,3.576 11.754,3.622 3.422,0.024 6.24,-0.16 8.518,-0.548 C -5.287,1.437 -2.735,0.841 0,0" />
      </g>
      <g
         transform="translate(2749.7764,1758.3584)"
         id="g210">
        <path
           inkscape:connector-curvature="0"
           id="path212"
           style="fill:#73bb81;fill-opacity:1;fill-rule:nonzero;stroke:none"
           d="m 0,0 c 9.928,-0.595 15.58,-3.6 16.941,-8.956 0.733,-2.662 0.963,-6.147 0.688,-10.387 -0.275,-4.258 -0.998,-7.584 -2.096,-10.067 -1.053,-2.46 -2.644,-4.167 -4.648,-5.146 -3.051,-1.436 -7.426,-1.985 -13.117,-1.641 -5.331,0.613 -8.069,0.978 -13.438,1.572 -1.053,-22.096 -1.601,-33.1 -2.643,-55.17 -0.23,-5.24 -1.054,-9.065 -2.415,-11.548 -1.509,-2.461 -3.512,-4.057 -6.158,-4.785 -2.635,-0.662 -6.1,-0.956 -10.29,-0.796 -4.191,0.179 -7.474,0.75 -9.98,1.73 -2.416,0.955 -4.192,2.46 -5.233,4.487 -1.05,2.003 -1.599,3.851 -1.828,5.489 -0.137,1.664 -0.137,4.078 -0.137,7.244 0.546,21.845 0.915,32.758 1.462,54.603 -3.055,0.087 -4.555,0.11 -7.655,0.179 -3.644,0.365 -6.286,1.23 -7.787,2.643 -2.643,2.484 -3.879,7.675 -3.832,15.08 0.228,11.275 4.419,16.855 12.988,16.672 2.865,-0.064 4.282,-0.088 7.147,-0.179 0.09,4.396 0.135,6.559 0.228,10.933 0.32,10.592 4.602,20.046 12.897,28.357 8.382,8.27 20.363,12.098 35.761,11.256 3.419,-0.206 5.925,-0.434 7.655,-0.754 1.683,-0.294 3.595,-1.138 5.736,-2.301 3.74,-2.072 5.608,-7.493 4.966,-16.242 -0.362,-6.581 -1.956,-11.342 -4.601,-13.96 -2.047,-2.052 -5.551,-3.191 -9.797,-3.1 -1.179,0.068 -3.367,0.206 -6.056,0.366 -5.332,0.32 -8.15,-1.276 -8.288,-4.716 C -13.713,6.33 -13.85,4.075 -14.078,-0.458 -8.479,-0.252 -5.654,-0.16 0,0" />
      </g>
      <g
         transform="translate(2805.7617,1699.5879)"
         id="g214">
        <path
           inkscape:connector-curvature="0"
           id="path216"
           style="fill:#73bb81;fill-opacity:1;fill-rule:nonzero;stroke:none"
           d="m 0,0 c -0.403,-4.464 1.007,-8.749 4.243,-12.688 3.32,-3.988 7.42,-6.265 12.525,-6.81 5.102,-0.525 9.475,0.773 13.3,4.121 3.786,3.303 5.927,7.153 6.429,11.596 0.45,4.418 -0.685,8.767 -3.556,12.916 -2.873,4.235 -7.107,6.674 -12.618,7.263 C 14.763,16.993 10.07,15.558 6.245,12.049 2.461,8.54 0.364,4.533 0,0 m 42.782,38.495 c 0.459,0.068 7.74,10.73 18.225,9.339 5.508,-0.727 9.612,-1.73 12.258,-2.937 2.588,-1.207 4.279,-2.872 5.047,-5.081 0.825,-2.185 1.281,-4.098 1.281,-5.694 0,-1.597 -0.229,-3.943 -0.639,-7.085 -3.825,-28.587 -5.689,-42.893 -9.568,-71.457 -0.412,-3.143 -0.816,-5.489 -1.228,-7.039 -0.411,-1.479 -1.235,-3.326 -2.415,-5.124 -2.231,-3.256 -7.246,-4.396 -14.535,-3.394 -7.336,1.002 -12.076,2.53 -14.398,4.67 -2.278,2.164 -3.459,8.609 -3.459,8.609 -0.502,0.251 -14.49,-9.226 -26.2,-8.041 -11.617,1.23 -21.908,7.634 -31.157,19.274 -9.202,11.659 -13.526,24.598 -12.53,38.928 1.006,14.326 7.015,26.515 18.404,36.353 11.481,9.885 23.738,14.193 36.539,12.825 4.827,-0.503 9.201,-1.824 13.08,-3.919 3.823,-2.095 6.466,-3.916 7.83,-5.557 1.416,-1.615 3.465,-4.67 3.465,-4.67" />
      </g>
      <g
         transform="translate(2934.1035,1669.3828)"
         id="g218">
        <path
           inkscape:connector-curvature="0"
           id="path220"
           style="fill:#73bb81;fill-opacity:1;fill-rule:nonzero;stroke:none"
           d="m 0,0 c 3.001,-4.327 6.971,-6.902 12.021,-7.881 5.06,-0.956 9.523,0.047 13.531,3.028 4.06,2.963 6.429,6.651 7.29,11.028 0.821,4.372 -0.047,8.791 -2.598,13.186 -2.544,4.442 -6.697,7.245 -12.251,8.292 -5.561,1.025 -10.39,0 -14.308,-3.142 C -0.319,21.41 -2.598,17.586 -3.375,13.122 -4.107,8.654 -2.917,4.305 0,0 m 54.026,103.506 c 1.412,1.73 3.651,2.736 6.652,2.96 2.871,0.298 6.606,-0.114 11.252,-1.115 4.556,-0.98 8.158,-2.21 10.755,-3.6 2.592,-1.433 4.283,-3.257 4.961,-5.513 0.593,-2.277 0.914,-4.188 0.823,-5.784 C 88.33,88.884 87.921,86.515 87.333,83.437 77.262,35.329 72.249,11.274 62.187,-36.811 c -0.641,-3.096 -1.236,-5.374 -1.738,-6.856 -0.539,-1.55 -1.591,-3.096 -2.956,-4.716 -2.734,-3.164 -8.797,-3.714 -18.047,-1.774 -9.248,2.004 -13.622,13.118 -13.622,13.118 -0.725,0.434 -15.258,-7.017 -25.285,-5.146 -11.974,2.232 -22.091,9.427 -30.425,21.731 -8.433,12.322 -11.754,25.513 -9.751,39.725 2.049,14.192 8.974,25.9 21.185,34.897 12.16,8.997 24.647,12.345 37.352,9.954 10.484,-1.913 18.095,-6.926 22.603,-14.852 3.228,16.993 4.776,25.467 7.969,42.482 0.502,3.097 1.097,5.42 1.591,6.902 0.503,1.481 1.508,3.119 2.963,4.852" />
      </g>
      <g
         transform="translate(3082.6631,1655.0762)"
         id="g222">
        <path
           inkscape:connector-curvature="0"
           id="path224"
           style="fill:#73bb81;fill-opacity:1;fill-rule:nonzero;stroke:none"
           d="m 0,0 c 5.197,-1.433 8.287,-0.046 9.432,4.193 0.821,3.074 0.226,5.855 -1.684,8.381 -1.92,2.552 -5.104,4.445 -9.614,5.697 -4.51,1.205 -9.386,0.637 -14.673,-1.71 -5.24,-2.368 -8.333,-5.534 -9.293,-9.567 C -15.486,4.285 -10.344,2.918 0,0 m 44.779,-6.811 c -2.36,-8.109 -6.191,-13.46 -11.341,-16.105 -5.19,-2.616 -10.293,-3.188 -15.307,-1.729 -19.137,5.649 -28.744,8.315 -48.017,13.371 -0.867,-3.78 0.641,-7.47 4.419,-11.184 3.78,-3.691 7.93,-6.129 12.395,-7.359 7.74,-2.163 14.032,-3.097 18.9,-2.777 0.914,0.069 1.418,0.069 2.416,0.138 3.558,0.498 6.475,0.453 8.613,-0.161 4.238,-1.254 7.239,-5.443 8.518,-12.212 0.78,-4.007 0.78,-7.4 0,-9.884 -3.281,-11.732 -18.816,-13.145 -46.836,-5.421 -9.742,2.686 -17.993,6.628 -24.781,11.981 -6.834,5.354 -11.709,11.411 -14.757,18.02 -5.926,12.844 -7.608,25.988 -4.69,39.404 3.595,16.881 12.157,29.112 25.916,36.379 13.667,7.265 29.252,8.656 46.424,3.94 19.594,-5.398 32.163,-16.196 37.406,-31.844 2.87,-8.224 3,-16.447 0.722,-24.557" />
      </g>
      <g
         transform="translate(3202.2979,1628.2217)"
         id="g226">
        <path
           inkscape:connector-curvature="0"
           id="path228"
           style="fill:#73bb81;fill-opacity:1;fill-rule:nonzero;stroke:none"
           d="m 0,0 c -5.195,2.21 -7.748,3.325 -12.891,5.467 -3.556,-10.776 -5.334,-16.128 -8.843,-26.904 -1.088,-3.531 -1.411,-6.262 -0.77,-8.219 0.631,-1.962 2.459,-3.508 5.599,-4.578 3.055,-1.163 5.426,-2.1 7.017,-2.873 1.552,-0.819 3.099,-2.072 4.6,-3.806 2.461,-2.753 2.461,-7.697 0.093,-14.645 -2.783,-8.155 -6.422,-12.528 -10.567,-12.94 -2.23,-0.225 -4.144,-0.113 -5.745,0.229 -1.546,0.343 -3.686,0.979 -6.602,2.072 -13.44,4.784 -22.735,11.325 -27.93,19.842 -5.143,8.543 -5.645,20.092 -1.181,34.784 3.552,11.663 5.325,17.471 8.836,29.09 -2.686,0.453 -5.559,1.203 -8.56,2.141 -2.966,0.978 -5.195,2.844 -6.432,5.716 -1.407,2.869 -1.27,6.971 0.321,12.391 1.508,5.352 3.01,9.203 4.372,11.389 1.463,2.233 2.966,3.737 4.472,4.328 2.684,1.047 5.783,1.001 9.159,-0.092 2.634,-1.207 3.96,-1.798 6.605,-3.029 2.461,8.11 3.64,12.14 6.099,20.249 0.918,3.01 1.731,5.173 2.371,6.587 0.686,1.363 1.913,2.685 3.414,4.052 2.87,2.438 8.842,2.507 17.862,-0.544 C 0.959,77.422 5.966,72.891 6.148,67.516 6.239,65.238 5.424,61.752 4.007,57.197 1.456,49.567 0.182,45.739 -2.232,38.087 4.007,36.468 8.607,35.055 11.755,33.939 c 3.048,-1.093 5.417,-2.073 6.879,-2.868 1.547,-0.777 3.137,-2.094 4.876,-3.874 2.957,-2.983 3.049,-8.608 0.136,-16.9 C 20.819,2.141 17.218,-2.231 13.027,-2.573 10.703,-2.803 8.7,-2.644 7.061,-2.278 5.424,-1.893 3.102,-1.115 0,0" />
      </g>
      <g
         transform="translate(3211.1807,1558.5859)"
         id="g230">
        <path
           inkscape:connector-curvature="0"
           id="path232"
           style="fill:#73bb81;fill-opacity:1;fill-rule:nonzero;stroke:none"
           d="m 0,0 c -1.959,2.482 -2.234,5.378 -1.09,8.771 1.182,3.326 5.692,7.401 12.89,12.391 2.141,1.505 4.922,1.821 8.106,0.546 3.281,-1.296 7.063,-4.579 11.436,-9.931 4.287,-5.375 8.614,-8.951 13.033,-10.776 7.877,-3.256 12.479,-3.462 13.713,-0.385 0.951,2.415 -2.78,6.015 -11.115,10.796 -7.748,4.513 -14.9,10.889 -21.276,19.045 -3.011,3.759 -4.831,8.677 -5.562,14.6 -0.817,5.968 0.046,12.345 2.461,19.156 7.244,20.366 25.832,25.036 55.353,12.665 9.705,-4.008 18.862,-10.407 27.196,-19.202 3.877,-4.099 5.105,-7.653 3.923,-10.707 -1.234,-3.029 -4.289,-6.102 -9.021,-9.222 -4.737,-3.101 -8.613,-4.011 -11.661,-2.69 -1.599,0.706 -4.152,2.938 -7.748,6.674 -3.643,3.783 -7.931,6.742 -13.073,8.86 -7.884,3.325 -12.35,3.531 -13.438,0.709 -1.463,-3.874 2.141,-8.339 10.749,-13.122 8.288,-4.624 15.99,-10.708 22.595,-18.155 3.009,-3.44 4.968,-7.926 5.738,-13.437 0.821,-5.448 -0.222,-11.458 -2.957,-18.044 -2.781,-6.559 -6.332,-11.571 -10.711,-15.058 -4.42,-3.485 -9.334,-5.465 -14.711,-5.762 -9.615,-0.431 -20.73,2.121 -33.032,7.176 C 19.455,-19.997 8.883,-11.683 0,0" />
      </g>
    </g>
  </g>
</svg>
