<?xml version="1.0" encoding="UTF-8" standalone="no"?>
<!-- Created with Inkscape (http://www.inkscape.org/) -->

<svg
   xmlns:dc="http://purl.org/dc/elements/1.1/"
   xmlns:cc="http://creativecommons.org/ns#"
   xmlns:rdf="http://www.w3.org/1999/02/22-rdf-syntax-ns#"
   xmlns:svg="http://www.w3.org/2000/svg"
   xmlns="http://www.w3.org/2000/svg"
   xmlns:sodipodi="http://sodipodi.sourceforge.net/DTD/sodipodi-0.dtd"
   xmlns:inkscape="http://www.inkscape.org/namespaces/inkscape"
   width="514.74896mm"
   height="275.8902mm"
   viewBox="0 0 514.74896 275.8902"
   version="1.1"
   id="svg336"
   inkscape:version="0.92.1 r15371"
   sodipodi:docname="LJ.svg">
  <defs
     id="defs330">
    <clipPath
       clipPathUnits="userSpaceOnUse"
       id="clipPath18">
      <path
         d="m 1895.383,814.105 h 1459.131 v 782.051 H 1895.383 Z"
         id="path16"
         inkscape:connector-curvature="0" />
    </clipPath>
  </defs>
  <sodipodi:namedview
     id="base"
     pagecolor="#ffffff"
     bordercolor="#666666"
     borderopacity="1.0"
     inkscape:pageopacity="0.0"
     inkscape:pageshadow="2"
     inkscape:zoom="0.35"
     inkscape:cx="815.61111"
     inkscape:cy="512.79589"
     inkscape:document-units="mm"
     inkscape:current-layer="layer1"
     showgrid="false"
     fit-margin-top="0"
     fit-margin-left="0"
     fit-margin-right="0"
     fit-margin-bottom="0"
     inkscape:window-width="1104"
     inkscape:window-height="637"
     inkscape:window-x="1776"
     inkscape:window-y="155"
     inkscape:window-maximized="0" />
  <metadata
     id="metadata333">
    <rdf:RDF>
      <cc:Work
         rdf:about="">
        <dc:format>image/svg+xml</dc:format>
        <dc:type
           rdf:resource="http://purl.org/dc/dcmitype/StillImage" />
        <dc:title></dc:title>
      </cc:Work>
    </rdf:RDF>
  </metadata>
  <g
     inkscape:label="Calque 1"
     inkscape:groupmode="layer"
     id="layer1"
     transform="translate(109.96377,82.093914)">
    <g
       transform="matrix(0.35277777,0,0,-0.35277777,-778.61276,480.99444)"
       id="g12">
      <g
         id="g14"
         clip-path="url(#clipPath18)">
        <g
           id="g20"
           transform="translate(3028.6704,1065.499)">
          <path
             d="m 0,0 c -7.29,-8.977 -18.041,-10.525 -24.804,-5.021 -7.822,6.397 -8.305,13.125 -0.613,22.536 l 0.438,0.504 c 8.034,9.195 13.234,9.718 19.961,4.17 C 4.631,14.327 6.201,7.6 0,0"
             style="fill:#becd00;fill-opacity:1;fill-rule:nonzero;stroke:none"
             id="path22"
             inkscape:connector-curvature="0" />
        </g>
        <g
           id="g24"
           transform="translate(3081.0469,1010.7266)">
          <path
             d="m 0,0 c -13.19,9.674 -23.285,26.908 -23.241,55.798 0,5.135 0.35,10.66 0.964,16.533 l 0.175,1.53 17.165,5.416 0.57,0.175 0.562,-0.087 C -3.586,79.277 11.92,76.527 27.646,64.688 43.327,52.851 59.009,31.754 59.009,-3.995 c 0,-1.311 -0.044,-2.666 -0.088,-3.999 l -0.044,-1.834 -1.789,-0.416 C 57,-10.288 50.229,-11.705 40.617,-11.705 28.997,-11.661 13.191,-9.608 0,0"
             style="fill:#97b314;fill-opacity:1;fill-rule:nonzero;stroke:none"
             id="path26"
             inkscape:connector-curvature="0" />
        </g>
        <g
           id="g28"
           transform="translate(3129.7861,1145.3892)">
          <path
             d="m 0,0 -0.255,0.435 -0.044,0.438 v 1.658 c 0,4.24 0.65,16.405 8.253,27.649 7.596,11.336 22.365,21.448 49.265,21.404 2.535,0 5.113,-0.109 7.91,-0.307 l 1.615,-0.087 0.044,-1.636 V 48.875 C 66.744,45.643 66.437,32.192 60.104,19.217 53.771,6.289 41.063,-6.073 17.347,-6.073 h -0.219 c -4.024,0 -8.349,0.373 -12.972,1.048 l -0.789,0.153 z"
             style="fill:#97b314;fill-opacity:1;fill-rule:nonzero;stroke:none"
             id="path30"
             inkscape:connector-curvature="0" />
        </g>
        <g
           id="g32"
           transform="translate(3117.0771,1355.2759)">
          <path
             d="M 0,0 C -13.454,5.167 -3.141,11.226 -4.411,26.973 -5.587,42.238 -24.68,38.941 -23.584,28 c 4.324,-41.421 -29.442,-12.045 -27.478,-38.438 0.964,-12.526 14.024,-7.479 19.224,-10.649 4.799,-2.892 2.491,-15.809 1.308,-29.351 -2.798,-31.144 -30.487,-94.805 12.797,-88.166 11.138,1.706 9.655,40.088 11.708,70.104 2.183,31.669 -2.228,40.938 2.096,43.473 5.675,3.068 39.617,-8.473 39.66,6.924 C 35.775,2.206 6.07,-2.271 0,0 m -101.992,16.317 c -14.674,2.805 -6.376,14.487 -9.517,30.465 -2.929,14.739 -22.89,8.494 -19.743,-2.426 12.008,-41.395 -27.784,-17.755 -20.926,-44.236 3.28,-12.577 15.682,-5.054 21.532,-7.304 5.464,-2.063 5.376,-15.649 6.684,-29.69 2.973,-32.225 -13.578,-102.168 29.311,-87.447 11.094,3.78 2.49,42.696 -0.957,73.61 -3.586,32.63 -9.788,41.289 -5.858,44.685 5.244,4.127 46.825,-1.059 44.028,14.63 -3.666,20.663 -37.958,6.522 -44.554,7.713 m -744.981,68.792 c -2.71,34.748 -26.644,73.065 -66.831,69.899 -40.756,-3.167 -49.885,-55.353 -47.57,-85.142 2.622,-33.35 16.47,-69.932 58.577,-66.678 43.196,3.374 58.614,45.569 55.824,81.921 m -50.886,-53.461 c -23.767,-1.837 -39.442,26.63 -41.326,50.152 -1.483,18.87 9.788,40.347 28.135,41.768 20.524,1.629 33.802,-20.692 35.336,-40.983 1.264,-15.561 -2.183,-49.378 -22.145,-50.937 m -120.822,-17.669 c -9.167,22.146 -15.718,45.011 -24.629,66.861 -16.865,41.169 -20.663,43.875 -30.275,53.494 -3.666,3.67 -11.569,9.152 -15.068,6.957 -5.069,-3.166 -5.281,-5.701 -4.455,-9.729 6.025,-29.427 19.742,-68.413 31.144,-96.062 10.349,-25.059 21.751,-50.294 34.679,-74.295 10.62,-20.203 26.951,-19.929 45.562,-12.209 16.901,6.942 52.807,18.793 48.221,31.798 -12.016,34.146 -54.773,-40.523 -85.179,33.185 M 216.212,-33.796 c -5.719,2.338 -12.14,3.627 -18.48,3.627 -12.401,0.044 -24.628,-5.102 -30.223,-17.559 -2.316,-5.233 -3.316,-10.189 -3.316,-14.853 0.131,-24.961 28.259,-41.069 27.996,-58.201 0,-2.228 -0.482,-4.543 -1.526,-6.859 -2.842,-6.244 -6.859,-8.081 -11.796,-8.121 -10.087,-0.11 -23.103,8.648 -31.495,8.691 -2.878,0.088 -5.412,-1.158 -6.683,-4.064 -0.387,-0.873 -0.563,-1.746 -0.563,-2.619 0.256,-9.13 16.376,-20.443 25.594,-24.987 6.069,-2.903 12.709,-4.411 19.304,-4.411 13.98,0 27.477,6.815 33.766,20.988 1.921,4.346 2.797,8.498 2.797,12.428 -0.219,24.296 -31.1,41.179 -30.837,58.464 0,2.085 0.475,4.148 1.396,6.267 3.797,8.421 8.998,10.605 14.76,10.649 7.867,0 16.559,-4.543 22.584,-4.642 2.842,-0.065 5.332,1.289 6.289,4.499 0.175,0.478 0.219,0.994 0.219,1.538 -0.175,6.172 -9.086,14.775 -19.786,19.165 M 147.679,93.549 c -0.044,-8.9 3.71,-17.044 14.286,-20.791 2.097,-0.752 5.982,-1.373 9.999,-1.373 4.894,0.04 10.226,0.829 11.884,4.956 0.219,0.536 0.57,1.333 0.57,2.348 0.036,0.818 -0.57,1.964 -1.666,2.337 -15.111,5.46 -20.181,9.108 -20.137,16.291 0,4.412 1.972,10.482 5.332,19.122 7.56,19.776 13.673,22.23 17.603,22.23 1.877,0 3.535,-0.599 5.2,-0.643 1.176,-0.066 2.659,0.687 3.185,2.206 0.263,0.872 0.35,1.607 0.35,2.249 -0.044,3.714 -3.016,5.208 -5.244,7.111 -2.359,1.997 -4.499,4.313 -4.499,9.871 0,2.498 0.482,5.752 1.709,9.871 l 0.088,0.27 -0.044,0.132 c 0.175,0.701 0.219,1.311 0.219,1.936 0.168,2.205 -1.403,4.269 -4.112,4.539 -0.212,0.099 -0.475,0.121 -0.694,0.121 -2.053,-0.022 -3.367,-1.538 -4.192,-3.013 -0.264,-0.362 -0.088,-0.175 -0.351,-0.665 -0.482,-1.026 -1.49,-3.17 -1.79,-3.966 -3.06,-5.646 -6.12,-6.563 -8.954,-7.041 -2.71,-0.438 -6.165,-0.099 -7.56,-3.791 -0.526,-1.442 -0.701,-2.794 -0.701,-4.017 0.044,-5.025 3.192,-7.567 3.104,-13.103 0,-2.524 -0.57,-5.81 -2.447,-10.255 -4.017,-9.207 -11.05,-24.099 -11.138,-36.932 m -258.969,18.683 h 0.351 c 2.658,-0.062 4.71,1.607 5.806,3.44 1.133,1.892 1.746,3.999 2.272,5.92 1.789,6.289 2.008,12.895 2.315,19.056 0.044,2.816 0.132,5.624 0.088,8.396 0,15.287 -1.402,30.498 -1.402,45.668 v 1.789 0.143 c 0.087,6.606 -4.887,10.09 -9.474,10.134 h -0.263 c -3.71,0.099 -5.682,-2.863 -6.157,-5.416 -4.068,-16.109 -6.376,-34.88 -10.488,-49.404 -4.062,-14.761 -9.693,-24.285 -19.042,-24.143 h -0.394 c -8.342,0.34 -12.665,4.13 -15.463,10.025 -2.797,5.931 -3.579,14.053 -3.535,21.992 0,2.545 0.088,5.113 0.176,7.567 0.307,8.312 0.869,17.876 0.869,26.897 0,1.647 -0.044,3.265 -0.044,4.871 -0.088,3.393 -0.518,5.774 -1.483,7.567 -1.008,1.833 -3.06,2.75 -4.85,2.684 -0.569,0 -1.176,-0.043 -1.789,-0.131 -5.113,-0.807 -7.859,-4.477 -8.779,-8.429 -1.008,-4.017 -0.789,-8.56 -0.965,-12.775 -0.255,-5.897 -0.299,-9.458 -0.299,-15.126 0,-4.66 0,-10.744 0.088,-20.79 0.044,-9.784 0.387,-20.605 4.017,-29.373 3.535,-8.813 10.963,-15.562 23.803,-15.978 0.658,0 1.395,-0.044 2.097,-0.044 14.322,0.044 27.346,5.548 40.624,5.482 0.694,0 1.308,0 1.921,-0.022 M -697.987,87.906 c 2.885,-8.257 8.341,-21.064 12.271,-28.405 3.542,-6.365 7.954,-13.494 16.996,-13.538 0.563,0 1.088,0.044 1.746,0.088 3.886,0.391 9.605,2.805 12.884,5.372 10.394,8.418 16.77,31.294 21.444,56.934 4.5,25.674 6.859,54.02 7.56,72.627 0,-0.088 0.263,2.666 0.263,5.23 -0.044,1.727 0.132,2.994 -0.789,4.598 -1.044,1.606 -3.016,2.206 -4.455,2.107 -0.351,0 -0.745,-0.044 -1.176,-0.044 -5.727,-0.479 -8.911,-5.515 -11.358,-11.606 -3.717,-9.327 -6.026,-22.562 -10.182,-33.558 -4.148,-11.062 -9.823,-19.206 -19.654,-19.786 h -0.914 c -11.05,-0.296 -19.742,14.283 -26.469,29.767 -3.411,7.665 -6.376,15.397 -9.305,21.328 -3.017,5.777 -5.507,10.415 -10.219,10.732 -0.175,0 -0.306,0 -0.438,-0.022 l -0.043,0.022 c -0.439,-0.022 -1.878,-0.065 -3.324,-1.146 -1.483,-1.103 -2.615,-3.21 -2.578,-6.289 v -0.624 c 0.307,-6.899 17.391,-64.567 27.74,-93.787 m 350.524,-20.191 c 4.061,0 8.254,0.5 12.577,1.475 8.517,1.987 16.339,6.19 22.628,12.358 2.403,2.316 4.061,4.163 4.149,6.541 0.044,0.92 -0.351,1.891 -1.096,2.48 -0.737,0.602 -1.439,0.646 -2.009,0.646 -3.184,-0.12 -8.297,-2.545 -14.848,-4.207 -1.877,-0.435 -3.798,-0.796 -5.807,-1.147 -4.105,-0.566 -8.385,-0.796 -10.963,-0.84 -11.928,0.132 -21.839,3.714 -24.724,15.879 -0.263,1.395 -0.482,2.794 -0.482,4.083 -0.044,10.689 9.612,20.791 20.049,23.128 9.13,2.118 18.391,2.48 27.777,3.309 12.672,1.102 16.383,12.252 16.295,19.874 0,1.789 -0.175,3.374 -0.526,4.773 -5.325,22.876 -27.207,39.792 -50.273,39.835 -3.491,0 -6.946,-0.416 -10.349,-1.19 -26.952,-6.249 -39.924,-32.685 -39.836,-57.789 0,-5.438 0.569,-10.832 1.789,-15.963 6.421,-28.054 26.295,-53.202 55.649,-53.245 m -14.506,108.292 c 1.14,0.248 2.36,0.39 3.63,0.39 h 0.088 c 8.297,0 18.209,-5.828 19.874,-13.538 0.351,-1.376 0.482,-2.797 0.482,-4.173 -0.087,-6.333 -3.455,-12.165 -16.164,-14.664 -2.402,-0.438 -4.63,-0.668 -6.639,-0.668 -9.042,0.044 -14.024,3.944 -14.98,8.487 -0.482,1.976 -0.657,3.908 -0.657,5.785 0.043,8.9 4.806,16.131 14.366,18.381 M -828.896,69.46 c 1.579,-11.343 3.543,-23.683 8.736,-33.4 5.069,-9.777 13.761,-16.96 27.521,-16.96 h 0.176 c 1.307,0 2.666,0.065 4.105,0.208 19.085,1.789 35.336,12.022 53.245,13.582 3.229,0.23 5.456,2.457 6.465,4.817 1.131,2.38 1.526,5.064 1.877,7.512 0.394,2.994 0.569,5.952 0.569,8.932 0,4.916 -0.394,9.795 -0.832,14.436 -2.053,22.712 -7.641,44.978 -10.394,67.463 -0.745,7.348 -6.333,10.788 -11.489,10.657 -0.438,0 -0.833,0 -1.22,-0.033 -4.368,-0.336 -6.296,-4.061 -6.508,-7.173 -2.359,-20.29 -2.271,-43.648 -4.893,-62.036 -2.754,-18.585 -8.086,-31.188 -20.137,-32.246 -0.965,-0.132 -2.009,-0.209 -2.929,-0.209 -10.481,0.077 -16.288,5.909 -20.313,14.765 -3.885,8.856 -5.324,20.539 -6.244,30.794 -1.132,11.978 -2.097,26.162 -4.062,38.601 -0.613,3.769 -1.351,6.332 -2.578,8.235 -1.176,1.954 -3.184,3.013 -5.149,2.958 -1.096,0 -2.052,-0.219 -3.148,-0.526 v -0.022 c -7.34,-2.162 -9.349,-8.439 -9.217,-14.542 0,-3.999 0.657,-8.224 1.051,-12.263 1.132,-13.027 1.702,-16.587 5.368,-43.55 m 330.168,108.708 c 4.244,-4.455 8.305,-10.123 8.656,-25.684 0.168,-14.086 -0.22,-35.709 4.579,-54.086 4.675,-18.267 15.251,-33.894 36.783,-33.894 h 0.131 c 1.176,0 2.403,0.044 3.667,0.132 4.28,0.325 11.752,2.348 18.522,5.719 6.684,3.374 13.016,7.874 13.192,14.524 v 0.602 c -0.088,0.917 -0.088,2.195 -0.614,3.528 -0.307,1.428 -1.877,3.123 -4.017,3.035 0,0 -0.263,0 -0.439,-0.055 -5.718,-0.405 -10.788,-0.657 -15.155,-0.657 -14.418,0.022 -21.62,2.567 -25.856,9.009 -4.368,6.563 -5.858,18.271 -6.727,36.724 -0.219,3.897 -0.306,7.436 -0.306,10.734 0,25.29 5.981,32.769 11.138,35.643 2.709,1.494 5.499,1.855 7.99,2.597 2.403,0.482 5.332,2.424 5.201,5.963 v 0.143 0.208 l -0.044,0.197 c -0.658,4.682 -3.368,7.435 -6.464,8.681 -4.631,1.921 -9.963,2.019 -14.593,5.35 -4.587,3.276 -9.13,9.937 -11.227,25.79 l -0.043,0.526 -0.132,0.143 c -0.738,4.083 -3.228,7.895 -7.815,7.84 -0.921,0 -1.877,-0.131 -2.886,-0.405 -3.929,-1.038 -5.148,-4.784 -5.543,-7.951 -0.043,-0.357 0,-0.153 0,-0.401 -0.043,-1.246 -0.087,-5.449 -0.087,-7.644 0,-0.251 -0.044,-0.515 0,-0.811 -0.789,-10.623 -4.719,-14.25 -8.824,-17.022 -2.008,-1.333 -4.148,-2.348 -6.026,-3.812 -1.84,-1.417 -3.454,-3.667 -3.367,-6.628 v -0.95 c 0.701,-9.195 6.07,-12.709 10.306,-17.088 M 95.967,-74.004 c 9.604,1.607 19.217,1.464 29.084,1.694 7.165,0.143 12.366,3.704 15.163,8.148 2.878,4.474 3.93,9.663 3.93,13.889 0,1.289 -0.175,2.48 -0.263,3.583 -4.368,25.559 -28.04,45.433 -53.728,45.477 -2.666,0 -5.325,-0.226 -8.034,-0.686 v 0.022 C 51.457,-7.085 36.126,-37.17 36.169,-65.06 c 0,-4.105 0.308,-8.166 1.001,-12.209 5.113,-30.932 25.688,-59.76 58.753,-59.804 3.228,0 6.596,0.259 9.999,0.829 9.174,1.574 17.734,5.547 24.811,11.639 2.71,2.38 4.763,4.196 5.026,7.406 0,1.048 -0.439,2.271 -1.315,2.969 -1.089,1.004 -2.14,1.004 -2.922,1.026 -3.585,-0.088 -8.867,-2.206 -15.506,-3.473 -1.972,-0.285 -4.024,-0.588 -6.077,-0.785 -2.622,-0.22 -5.324,-0.263 -7.64,-0.263 -1.445,0 -2.753,0.022 -3.805,0.043 -12.183,0.961 -21.795,5.11 -23.935,17.494 -0.175,1.004 -0.307,2.041 -0.307,3.045 -0.08,11.117 10.708,21.35 21.715,23.139 m -26.689,27.401 c -0.262,1.559 -0.394,3.024 -0.394,4.456 0.132,9.707 5.332,17.164 15.594,18.997 0.745,0.131 1.658,0.208 2.491,0.208 h 0.219 c 8.516,0 18.997,-6.847 20.129,-14.805 0.175,-1.048 0.219,-2.111 0.219,-3.192 -0.175,-6.723 -3.228,-12.5 -17.076,-14.52 -1.702,-0.23 -3.316,-0.296 -4.85,-0.296 -10.525,0.066 -15.638,4.587 -16.332,9.152 m 41.713,138.961 h 0.395 c 5.28,0 10.437,1.443 14.98,4.087 1.965,1.19 3.535,2.019 3.754,4.203 0,0.482 -0.175,0.982 -0.482,1.399 -1.044,1.146 -1.877,0.916 -2.79,1.004 -1.965,-0.022 -4.85,-0.46 -8.041,-0.504 -1.133,0 -2.36,0.099 -3.536,0.186 -2.534,0.274 -5.113,0.753 -6.595,1.103 -6.903,1.79 -11.928,5.164 -11.971,12.296 0.087,7.48 7.778,13.104 14.812,13.038 h 0.131 c 5.763,-0.044 11.307,-1.147 16.99,-2.064 0.693,-0.098 1.307,-0.142 1.965,-0.142 8.472,0.186 11.401,8.626 11.532,12.895 v 0.417 c -0.131,16.565 -14.068,31.557 -30.837,31.808 h -0.395 C 90.284,171.986 77.838,151.655 77.619,133.483 v -0.731 c -0.087,-19.896 10.7,-40.043 33.372,-40.394 m -11.708,55.039 v 0.336 c 0.175,6.913 4.193,11.818 11.007,11.869 h 0.044 c 5.2,0 11.752,-5.416 11.708,-10.657 v -0.131 c -0.307,-4.565 -2.053,-8.243 -10.182,-8.396 -0.431,0 -0.869,0 -1.351,0.022 -7.684,0.478 -11.051,3.962 -11.226,6.957 M -41.274,125.383 c 3.754,0.018 8.472,-2.023 13.322,-5.047 2.973,-1.79 6.946,-7.556 10.744,-13.246 3.886,-5.69 7.428,-11.336 11.665,-13.563 2.228,-1.125 4.499,-1.625 6.639,-1.625 4.93,-0.044 9.174,3.023 9.999,7.687 0.088,0.296 0.132,0.577 0.132,0.851 -0.22,4.313 -4.412,11.106 -9.306,19.089 -4.93,7.852 -10.612,16.203 -13.585,21.433 -4.492,7.852 -5.544,13.772 -5.631,18.793 0,1.793 0.175,3.474 0.394,5.124 0.57,5.602 16.12,39.189 18.347,44.704 1.089,2.841 2.228,5.481 2.228,8.169 0.081,2.564 -1.753,5.252 -4.85,6.015 -1.577,0.461 -3.454,0.939 -5.507,0.961 -5.412,0.065 -11.314,-3.667 -16.288,-16.105 -2.227,-5.723 -8.823,-16.435 -16.339,-16.478 h -0.218 c -3.185,-0.187 -9.825,4.934 -15.157,10.689 -5.506,5.733 -10.086,11.836 -11.357,13.29 -2.315,2.633 -5.719,4.794 -9.349,4.838 -0.738,0 -1.439,-0.131 -2.14,-0.361 -2.922,-0.742 -5.062,-3.243 -4.886,-6.08 0,-1.082 0.175,-2.185 0.475,-3.474 1.709,-6.836 9.962,-23.314 15.988,-38.024 1.965,-4.89 2.797,-9.269 2.797,-13.356 0,-7.709 -2.797,-14.348 -5.858,-20.582 -4.536,-9.313 -13.147,-19.188 -16.506,-25.889 -1.877,-3.812 -4.105,-9.655 -4.149,-14.381 0,-2.228 0.525,-4.642 2.753,-5.997 1.571,-0.938 3.229,-1.421 4.887,-1.421 h 0.044 c 10.313,0.417 18.566,14.272 22.715,19.831 3.235,4.488 8.078,9.48 13.322,12.844 1.439,0.895 2.929,1.311 4.675,1.311 m -586.829,-308.168 c -0.35,0 -0.825,-0.022 -1.263,-0.132 -2.534,-0.456 -8.692,-3.078 -17.34,-6.223 -2.14,-0.653 -4.324,-1.355 -6.551,-1.943 -4.675,-1.113 -9.481,-1.792 -12.497,-2.161 -1.615,-0.176 -3.316,-0.263 -4.975,-0.263 -11.576,0.131 -20.925,3.82 -24.986,15.681 -0.789,2.272 -1.052,4.521 -1.052,6.749 -0.087,11.508 9.437,22.931 20.4,26.532 10.218,3.451 20.838,4.893 31.407,6.836 12.884,2.315 16.77,13.257 16.595,21.646 0,3.144 -0.475,5.981 -1.177,8.231 -7.997,23.913 -32.063,40.296 -56.692,40.296 -5.639,0 -11.358,-0.866 -16.953,-2.71 -27.295,-9.13 -39.617,-36.089 -39.617,-62.394 0,-8.933 1.447,-17.843 4.149,-26.057 9.963,-29.745 33.109,-54.991 64.121,-55.101 6.245,0 12.841,1.07 19.611,3.342 9.174,3.038 14.769,4.499 26.47,13.3 3.367,3.407 5.113,6.618 5.244,9.591 0,1.219 -0.395,2.508 -1.308,3.447 -0.92,0.92 -2.227,1.333 -3.586,1.333 m -82.505,62.288 c -1.052,3.144 -1.578,6.179 -1.578,9.06 0.088,9.141 4.806,16.774 14.637,20.148 1.834,0.603 4.018,0.939 6.201,0.939 h 0.176 c 9.086,0 19.48,-5.438 22.014,-13.439 0.738,-2.089 1.132,-4.284 1.132,-6.336 -0.087,-6.596 -3.71,-12.929 -16.945,-16.902 -3.929,-1.136 -7.516,-1.618 -10.613,-1.618 -8.473,0.044 -13.541,3.649 -15.024,8.148 m 415.252,78.477 c -1.965,3.813 -6.377,12.037 -16.902,11.96 -1.008,0 -2.009,-0.065 -3.06,-0.208 -7.991,-1.048 -21.577,-3.835 -34.504,-7.296 -13.104,-3.58 -25.206,-7.545 -31.057,-12.023 -6.113,-4.638 -8.472,-11.04 -8.385,-17.493 0,-1.504 0.088,-3.089 0.307,-4.674 1.658,-11.518 6.728,-21.434 8.122,-31.896 0.657,-4.639 0.964,-10.058 1.176,-15.777 0.263,-8.604 0.789,-25.948 4.85,-35.033 l 0.044,-0.172 0.043,-0.088 c 1.578,-4.064 3.718,-8.125 6.552,-11.094 0.132,-0.176 0.219,-0.351 0.483,-0.57 l 0.701,-0.785 0.306,-0.044 c 1.615,-1.289 3.492,-2.271 5.588,-2.491 0.613,-0.044 1.183,-0.109 1.701,-0.109 h 0.57 c 4.412,0 7.472,3.757 7.903,7.23 0.526,2.053 0.745,4.083 0.745,5.767 0,6.683 -0.701,19.392 -0.701,33.675 0,14.787 0.745,31.287 3.806,44.138 3.052,13.004 8.297,21.338 15.681,22.167 0.782,0.088 1.614,0.187 2.352,0.187 7.297,0 12.541,-5.146 16.514,-12.812 3.886,-7.622 6.07,-17.208 6.946,-24.056 0.307,-2.293 0.614,-4.813 0.957,-7.424 0.57,-5.701 2.096,-19.797 4.849,-31.83 0.527,-2.513 1.315,-5.219 2.185,-8.104 0.131,-0.373 0.219,-0.457 0.219,-0.522 0.262,-1.004 0.657,-2.013 1.008,-2.973 l 0.131,-0.175 v -0.128 c 3.404,-8.867 7.991,-12.713 12.972,-12.713 0.482,0 0.957,0.088 1.264,0.088 1.27,0.219 2.403,0.438 3.542,1.07 0.387,0.285 0.562,0.438 0.694,0.526 2.272,1.702 2.666,4.302 2.885,7.008 0.175,1.53 0.219,3.144 0.219,4.981 -0.044,18.388 -7.647,54.334 -8.517,60.463 -1.92,13.976 -5.331,28.543 -12.189,41.23 m 137.241,-60.583 c -0.921,0.603 -1.702,0.713 -2.404,0.713 -2.403,-0.11 -4.324,-1.169 -7.252,-2.36 -2.834,-1.267 -6.114,-2.808 -9.824,-4.104 -1.965,-0.68 -4.193,-1.268 -6.377,-1.903 -4.543,-1.048 -9.261,-1.789 -12.234,-2.14 -1.526,-0.175 -3.184,-0.215 -4.806,-0.215 -11.262,0.149 -19.962,3.578 -23.847,14.882 -0.694,2.15 -1.044,4.312 -1.044,6.419 -0.088,10.931 9.13,21.993 19.611,25.378 9.955,3.352 20.399,4.85 30.968,6.749 13.191,2.348 17.209,13.771 17.077,22.244 0,3.21 -0.526,6.125 -1.22,8.461 -8.085,24.001 -32.152,40.414 -56.92,40.435 -5.718,0 -11.437,-0.873 -16.988,-2.749 -27.471,-9.207 -39.792,-36.232 -39.749,-62.416 0,-8.999 1.395,-17.921 4.237,-26.145 9.787,-29.592 32.977,-55.013 64.121,-55.101 6.245,0 12.884,1.048 19.743,3.364 9.524,3.188 18.041,8.998 24.592,16.685 2.447,2.754 4.105,4.982 4.237,8.028 0.043,1.299 -0.702,2.925 -1.921,3.775 m -81.505,61.621 c -1.008,2.961 -1.483,5.897 -1.483,8.672 0.044,8.704 4.456,15.865 13.841,19.075 1.753,0.547 3.762,0.877 5.902,0.877 h 0.175 c 8.648,0 18.603,-5.288 20.918,-12.669 0.658,-2.02 1.052,-4.039 1.052,-6.019 -0.088,-6.124 -3.279,-11.978 -16.163,-15.875 -3.799,-1.059 -7.209,-1.563 -10.175,-1.563 -8.217,0.044 -12.716,3.463 -14.067,7.502 m -186.463,10.857 c -2.14,3.48 -6.639,10.919 -16.383,10.919 -1.307,0 -2.797,-0.131 -4.323,-0.482 -7.823,-1.582 -21.226,-5.208 -33.985,-9.521 -12.753,-4.356 -24.586,-9.13 -30.224,-13.998 -5.157,-4.543 -7.297,-10.353 -7.253,-16.152 0,-2.141 0.219,-4.325 0.701,-6.432 2.359,-11.423 8.034,-20.977 10.131,-31.352 0.964,-4.561 1.577,-9.955 2.228,-15.645 0.788,-8.608 2.402,-25.837 7.033,-34.683 l 0.132,-0.175 0.044,-0.131 c 1.789,-3.974 4.192,-7.816 7.252,-10.657 0.131,-0.066 0.263,-0.263 0.526,-0.478 l 0.65,-0.701 h 0.351 c 1.701,-1.224 3.63,-2.096 5.769,-2.14 0.212,-0.044 0.519,-0.044 0.739,-0.044 h 0.087 c 2.491,0 4.762,0.679 6.333,2.271 1.621,1.574 2.227,3.539 2.446,5.46 0.394,1.53 0.482,3.013 0.482,4.412 0,0.526 -0.044,0.96 -0.044,1.398 -0.613,9.762 -3.622,32.214 -3.622,53.735 0,11.891 0.913,23.501 3.491,32.17 2.666,8.791 6.727,13.998 12.402,15.123 1.227,0.252 2.315,0.351 3.367,0.351 6.858,0.022 12.315,-4.894 16.595,-12.23 4.236,-7.283 6.858,-16.434 8.217,-23.04 0.431,-2.294 0.913,-4.752 1.395,-7.392 0.92,-5.624 3.403,-19.604 6.902,-31.397 0.745,-2.556 1.614,-5.174 2.71,-8.015 0.131,-0.347 0.175,-0.391 0.175,-0.435 0.431,-1.026 0.825,-1.987 1.264,-2.907 l 0.044,-0.15 0.131,-0.175 c 3.798,-8.235 8.341,-11.84 13.147,-11.84 0.701,0 1.308,0.088 1.877,0.176 1.352,0.262 2.447,0.657 3.579,1.398 0.263,0.176 0.439,0.395 0.57,0.483 2.14,1.833 2.315,4.455 2.403,7.117 v 1.662 c -0.044,17.339 -11.226,56.66 -12.49,63.146 -2.885,13.827 -7.165,28.142 -14.849,40.351 M -530.04,-80.892 c -2.578,25.52 -11.883,51.311 -41.756,51.344 -1.921,0 -3.981,-0.099 -6.121,-0.329 -2.747,-0.314 -7.114,-1.004 -11.007,-2.52 -3.755,-1.475 -7.597,-3.977 -7.684,-8.542 0,-0.27 0,-0.566 0.044,-0.818 v 0.022 c 0.307,-3.809 2.797,-6.366 5.631,-7.643 4.237,-1.998 9.612,-2.228 13.936,-3.288 4.412,-1.124 6.858,-2.38 7.297,-6.189 0.044,-0.274 0.044,-0.581 0.044,-0.874 0.43,-6.456 -10.094,-11.335 -21.839,-18.792 -11.533,-7.505 -23.592,-18.706 -23.504,-39.902 0,-2.118 0.087,-4.346 0.307,-6.661 0.306,-2.71 0.788,-5.701 1.701,-8.411 6.253,-21.049 17.866,-27.035 32.547,-27.035 h 0.869 c 6.946,0 14.637,1.004 23.153,1.921 6.64,0.745 22.015,2.973 27.996,6.249 4.237,2.227 6.947,5.653 7.648,10.393 0.212,1.684 0.256,3.539 0.256,5.416 0,3.911 -0.388,8.125 -0.739,11.555 -1.665,15.33 -7.252,29.416 -8.779,44.104 m -44.817,-56.4 c -0.438,-0.044 -0.789,-0.044 -1.176,-0.044 -7.647,-0.176 -14.067,8.516 -15.031,16.203 -0.088,0.789 -0.175,1.509 -0.175,2.228 -0.125,10.876 10.707,23.194 19.443,25.531 1.483,0.373 3.096,0.643 4.754,0.643 6.077,-0.139 12.585,-2.849 14.375,-14.75 0.175,-1.465 0.263,-2.864 0.263,-4.259 -0.088,-13.213 -8.298,-23.982 -22.453,-25.552 m 56.913,188.825 c -1.001,1.015 -2.009,0.993 -2.922,1.015 -3.28,-0.022 -8.78,-1.607 -15.338,-2.37 -1.965,-0.176 -4.105,-0.296 -6.245,-0.362 h -0.387 c -4.331,0 -8.612,0.362 -11.27,0.687 -12.541,1.815 -22.453,7.022 -23.724,20.192 0,0.602 -0.087,1.223 -0.087,1.833 -0.088,12.395 12.365,22.912 24.548,23.982 3.104,0.303 6.202,0.435 9.306,0.435 6.77,0 13.541,-0.544 20.399,-0.895 0.352,-0.022 0.738,-0.022 1.133,-0.022 14.593,0.121 19.049,14.097 19.049,21.916 0,0.624 0,1.202 -0.088,1.727 -2.491,27.058 -26.777,49.521 -53.816,49.543 -1.482,0 -2.972,-0.022 -4.499,-0.186 -33.021,-3.145 -50.843,-35.731 -50.843,-65.422 0,-2.25 0.132,-4.499 0.307,-6.705 3.017,-32.911 23.022,-64.424 58.614,-64.446 1.928,0 3.849,0.066 5.814,0.252 9.262,0.873 18.085,4.247 25.55,9.762 3.06,2.249 5.2,3.973 5.375,6.792 0,0.785 -0.307,1.658 -0.876,2.272 m -61.281,76.534 c 0.044,11.106 6.377,19.688 17.997,20.835 0.482,0.043 0.914,0.043 1.395,0.043 h 0.22 c 9.174,0 20.619,-8.092 21.268,-17.273 0.044,-0.625 0.176,-1.312 0.176,-1.976 -0.3,-7.753 -4.018,-14.59 -19.305,-15.583 -0.781,-0.044 -1.482,-0.066 -2.227,-0.066 -12.665,0.066 -18.954,5.712 -19.48,11.354 -0.044,0.92 -0.044,1.793 -0.044,2.666 m 342.227,-54.338 c 7.333,0 20.962,0.46 26.864,2.798 4.411,1.702 7.508,4.795 8.736,9.356 1.482,5.168 1.57,11.851 1.657,16.894 v 1.377 c -0.044,14.48 -3.454,28.27 -3.41,42.162 0,0.413 0,0.851 0.043,1.351 v 2.381 c 0.219,26.579 -7.552,53.615 -41.274,54.02 -0.264,0.055 -0.57,0.055 -0.789,0.055 -3.054,-0.055 -7.465,-0.23 -11.35,-1.432 -3.762,-1.091 -7.692,-3.44 -7.823,-7.979 -0.044,-0.186 -0.044,-0.252 -0.044,-0.274 -0.088,-3.813 2.053,-6.563 4.718,-8.169 3.974,-2.436 9.262,-3.309 13.323,-4.847 4.236,-1.65 6.551,-3.254 6.551,-6.957 v -0.153 c -0.043,-3.703 -2.534,-6.245 -7.252,-8.977 -13.973,-7.895 -44.854,-13.625 -45.38,-51.288 -0.088,-0.252 -0.088,-0.569 -0.088,-0.829 0,-2.501 0.176,-5.189 0.658,-7.709 2.79,-16.043 9.298,-24.395 18.691,-28.175 9.261,-3.787 20.794,-3.429 34.467,-3.605 h 1.702 m -17.427,23.358 v 0 c -8.261,0 -14.068,9.893 -14.155,18.085 v 0.142 c -0.176,11.42 12.972,23.672 22.539,25.005 0.826,0.121 1.746,0.187 2.71,0.187 6.64,-0.187 14.104,-3.123 14.542,-16.5 v -0.438 C -228.92,108.719 -238.7,97.175 -253.994,97.087 Z M -843.131,-67.211 c 1.57,0 3.317,0.109 5.106,0.438 0.745,0.165 1.577,0.457 2.885,0.84 0.614,0.241 1.227,0.438 1.789,0.646 0.57,0.282 0.833,0.348 1.49,0.764 7.334,4.269 10.174,10.338 10.043,16.456 0,1.19 -0.087,2.424 -0.219,3.648 -0.307,2.02 -1.351,5.503 -4.105,8.899 -2.797,3.372 -7.515,6.355 -14.191,6.355 -1.929,0 -3.981,-0.273 -6.209,-0.734 -9.692,-2.205 -16.244,-9.959 -16.288,-18.202 0,-1.168 0.132,-2.337 0.438,-3.505 1.615,-7.063 7.421,-15.605 19.086,-15.605 z m 67.744,-57.416 c -4.017,11.05 -8.56,21.667 -13.673,29.65 -5.149,7.914 -10.7,13.855 -18.085,14.02 -0.342,0 -0.649,-0.022 -0.956,-0.044 -12.84,-1.125 -27.127,-10.036 -27.434,-23.391 0,-1.377 0.132,-2.75 0.482,-4.116 1.702,-6.16 7.385,-9.086 12.928,-12.909 5.727,-3.776 11.752,-8.035 15.682,-14.784 11.489,-19.698 17.646,-41.537 23.285,-64.209 2.439,-9.849 6.07,-28.302 6.026,-45.532 0.044,-9.634 -1.139,-18.848 -4.017,-25.816 -2.929,-7.056 -7.253,-11.726 -14.2,-13.454 -1.131,-0.285 -2.271,-0.434 -3.491,-0.434 -4.981,-0.022 -10.4,2.42 -15.856,5.174 -5.508,2.618 -10.876,5.591 -16.734,5.701 -1.132,0 -2.227,-0.11 -3.36,-0.438 -6.551,-1.965 -10.481,-9.324 -10.7,-15.748 0,-0.916 0.088,-1.789 0.307,-2.618 2.227,-8.758 9.999,-14.787 18.997,-18.76 8.999,-4.021 19.568,-6.052 28.435,-6.052 3.498,0 6.727,0.263 9.611,1.005 31.926,7.84 41.538,34.442 41.363,62.678 -0.044,26.558 -7.815,55.561 -12.884,76.046 -2.009,7.95 -7.692,31.951 -15.726,54.031"
             style="fill:#ee7f00;fill-opacity:1;fill-rule:nonzero;stroke:none"
             id="path34"
             inkscape:connector-curvature="0" />
        </g>
        <g
           id="g36"
           transform="translate(3348.0063,1105.9043)">
          <path
             d="m 0,0 c -4.061,6.289 -94.082,8.911 -98.055,15.221 -8.736,13.867 -31.145,11.99 -74.822,10.766 -15.024,-0.416 -30.793,-0.328 -44.817,0.263 8.604,6.662 40.055,36.166 38.659,37.433 -1.445,1.399 -7.734,-0.57 -7.734,-0.57 l -53.158,-35.314 c -0.044,-0.066 -0.044,-0.066 -0.132,-0.11 -14.761,1.355 -24.241,3.495 -22.927,6.052 7.289,14.304 -58.139,11.204 -102.825,2.249 -44.766,-8.976 -137.015,-16.686 -152.521,-13.279 -15.462,3.43 -107.543,-11.989 -130.339,-24.175 -22.803,-12.209 -125.401,-48.112 -134.969,-19.243 -6.289,19.111 -113.825,-40.423 -156.985,-58.311 -43.195,-17.905 -73.681,-31.622 -95.389,-36.078 -21.714,-4.455 -33.109,-9.915 -48.359,-14.195 -5.062,-1.398 -14.411,-5.722 -24.76,-10.963 -8.517,0.478 -16.69,0.501 -21.496,5.591 -28.741,30.399 -82.111,109.154 -82.111,109.154 l -52.245,-9.437 c 0,0 19.786,-29.614 38.966,-61.039 v -0.022 c -3.542,-1.815 -8.085,-2.578 -12.928,-2.578 -15.119,-0.11 -33.985,7.863 -37.345,13.91 -3.542,5.745 -7.866,15.419 -13.454,15.792 -0.218,0 -0.438,0 -0.613,-0.088 -3.192,-0.479 -5.069,-3.539 -5.069,-7.381 0,-6.332 4.675,-15.375 17.34,-23.741 13.716,-9.039 30.362,-20.747 67.137,-21.423 10.394,-18.431 18.604,-34.595 19.918,-42.502 0.701,-4.017 3.667,-11.178 5.851,-16.901 -0.869,-1.376 -1.702,-2.753 -2.184,-4.258 -2.052,-6.051 -20.875,-11.511 -30.968,-16.927 -10.175,-5.416 -60.711,-33.806 -59.272,-40.183 1.482,-6.38 29.485,-49.575 33.327,-49.513 3.842,0.154 69.147,20.9 75.918,40.669 10.7,31.118 44.071,32.078 56.693,40.16 12.621,8.082 115.351,54.601 128.067,58.837 12.753,4.171 137.066,60.342 151.17,62 14.111,1.683 83.119,12.625 141.477,39.945 39.004,18.26 217.695,52.588 242.725,46.606 30.838,-7.314 110.509,2.535 142.216,6.662 5.068,-8.758 32.802,-52.088 56.393,-75.37 13.016,-12.84 13.147,-11.073 14.016,-10.218 1.965,1.746 -7.508,14.217 -7.508,14.217 -26.206,35.793 -25.118,36.666 -15.9,22.734 -5.763,8.713 -22.146,36.647 -30.005,50.101 l 69.226,-0.394 c 0,0 100.378,-6.245 124.92,-10.657 C -70.323,-10.963 -0.65,-23.15 4.5,-21.711 9.568,-20.269 3.981,-6.292 0,0"
             style="fill:#becd00;fill-opacity:1;fill-rule:nonzero;stroke:none"
             id="path38"
             inkscape:connector-curvature="0" />
        </g>
        <g
           id="g40"
           transform="translate(2175.1895,1205.1431)">
          <path
             d="m 0,0 c -3.761,-4.587 -13.19,-6.814 -16.689,-3.933 -4.018,3.276 -4.281,6.727 -0.351,11.62 l 0.219,0.238 c 4.149,4.784 10.744,4.828 14.593,2.469 C 3.316,7.162 3.141,3.93 0,0"
             style="fill:#97b314;fill-opacity:1;fill-rule:nonzero;stroke:none"
             id="path42"
             inkscape:connector-curvature="0" />
        </g>
        <g
           id="g44"
           transform="translate(2216.9023,1168.189)">
          <path
             d="m 0,0 c -3.718,21.097 -15.462,28 -28.266,27.824 -15.244,-0.044 -32.452,-8.56 -42.626,-10.025 -1.271,-0.24 -2.578,-0.284 -3.842,-0.284 -4.981,0 -9.656,1.398 -13.067,3.67 -3.403,2.271 -5.28,5.153 -5.28,8.166 -0.044,4.108 3.754,9.655 15.462,14.699 14.63,6.245 21.401,16.576 21.401,26.513 0,11.716 -9.305,22.463 -24.023,24.801 -1.571,0.281 -3.06,0.412 -4.543,0.412 -13.804,-0.044 -22.364,-10.919 -29.048,-21.152 -6.508,-10.372 -12.051,-20.067 -16.507,-19.589 -0.307,0 -0.525,0 -0.788,0.044 -4.894,1.004 -5.851,2.534 -6.727,6.332 -0.738,3.846 -0.395,9.828 -1.089,17.603 -1.139,14.034 -8.261,20.823 -16.821,20.761 -11.007,-0.098 -23.365,-10.375 -28.828,-25.3 -3.316,-8.389 -3.273,-10.836 -15.375,-12.581 -0.431,-0.044 -0.825,-0.088 -1.176,-0.088 -4.938,-0.132 -6.639,4.872 -9.174,11.401 -2.315,6.157 -5.85,13.527 -15.418,13.626 -0.088,0.043 -0.22,0.043 -0.307,0.043 -5.325,0.044 -9.35,-2.161 -11.876,-5.372 -2.491,-3.21 -3.587,-7.293 -3.587,-11.335 0,-6.136 2.403,-12.293 7.253,-14.783 5.157,-2.535 6.946,-5.197 6.946,-8.038 0.044,-2.053 -0.964,-4.587 -3.236,-7.513 -1.088,-1.442 -2.228,-1.833 -4.061,-1.877 -6.902,-0.219 -19.523,9.214 -32.057,9.346 -5.507,0.044 -11.094,-1.965 -15.813,-7.337 -3.798,-4.237 -5.55,-7.688 -5.55,-10.92 0.218,-6.354 6.463,-9.086 11.708,-12.361 5.594,-3.32 10.481,-6.771 10.788,-12.972 V 3.057 c -0.044,-3.667 -1.527,-5.592 -4.325,-7.425 -4.192,-2.706 -11.094,-4.193 -17.076,-7.161 -6.114,-2.973 -11.402,-8.17 -11.402,-17.691 v -0.197 c -0.087,-5.613 1.965,-9.502 5.332,-11.555 3.316,-2.118 7.553,-2.618 11.964,-2.618 5.814,0 12.103,0.873 17.208,0.873 5.025,0.043 8.56,-0.873 9.919,-3.232 1.877,-3.101 2.666,-5.811 2.666,-8.038 0,-5.592 -4.85,-9.477 -13.322,-10.266 -11.84,-0.851 -22.19,-8.604 -22.102,-22.602 0,-1.158 0.044,-2.315 0.219,-3.517 0.694,-7.162 6.464,-10.046 12.402,-9.915 8.692,0.088 19.042,4.718 23.891,8.451 5.069,4.13 11.753,8.845 16.778,8.801 2.227,-0.044 4.104,-0.741 5.938,-2.947 0.613,-0.764 0.869,-1.465 0.869,-2.425 0.175,-3.276 -4.281,-9.389 -9.254,-16.924 -4.982,-7.621 -10.401,-17.058 -11.665,-28.543 -0.131,-1.443 -0.175,-2.842 -0.175,-4.131 0,-12.164 6.42,-20.265 14.718,-20.287 7.427,0.022 15.075,6.246 19.83,19.217 1.84,5.46 7.866,15.901 13.892,15.551 1.008,0 2.008,-0.264 3.192,-0.873 3.096,-1.575 4.104,-4.149 4.148,-8.061 0,-6.135 -3.06,-14.392 -4.631,-20.899 -0.569,-2.404 -0.832,-4.803 -0.832,-7.096 0.044,-17.278 15.375,-28.873 29.661,-28.917 4.631,0 9.174,1.245 13.06,4.039 10.086,7.122 13.41,14.919 13.366,22.409 -0.088,10.634 -5.989,20.593 -5.946,29.048 0,0.478 0,0.982 0.088,1.46 0.745,7.363 3.674,9.328 6.946,9.437 3.587,0.044 8.341,-3.144 10.876,-8.367 2.096,-4.104 10.138,-19.435 21.795,-19.764 5.068,-0.022 10.182,3.188 14.943,10.81 2.572,4.218 3.755,7.775 3.755,10.963 -0.044,7.318 -5.938,11.292 -10.964,15.203 -5.2,3.974 -9.655,7.732 -9.655,14.02 v 0.197 c 0.044,0.544 0.482,1.29 1.271,1.943 0.869,0.676 2.184,1.18 3.447,1.18 1.402,-0.022 2.798,-0.57 4.061,-2.053 7.867,-9.392 20.312,-32.499 39.529,-32.736 5.42,0 11.226,1.899 17.303,6.486 10.788,8.012 15.2,16.335 15.2,24.264 -0.219,16.532 -18.041,29.504 -28.654,36.319 -2.315,1.482 -4.28,4.017 -4.324,7.903 0,2.578 0.913,5.766 3.448,9.699 4.324,6.552 9.787,11.573 19.567,11.617 0.877,0 1.79,-0.044 2.754,-0.131 1.745,-0.176 3.403,-0.264 5.025,-0.264 12.577,-0.018 20.655,5.026 25.198,11.446 4.631,6.464 5.946,14.107 5.946,19.567 0,1.837 -0.132,3.385 -0.351,4.631"
             style="fill:#97b314;fill-opacity:1;fill-rule:nonzero;stroke:none"
             id="path46"
             inkscape:connector-curvature="0" />
        </g>
        <g
           id="g48"
           transform="translate(2213.2285,1085.4385)">
          <path
             d="m 0,0 c -3.798,6.376 -12.884,15.966 -24.848,21.295 -0.745,0.329 -1.139,1.048 -0.964,1.789 0.131,0.745 0.745,1.355 1.527,1.377 0,0 2.183,0.11 5.595,0.11 7.771,0 21.926,-0.526 31.618,-4.368 6.771,-2.797 16.164,-10.091 16.383,-18.848 0,-2.315 -0.745,-4.631 -2.403,-6.771 -3.36,-4.499 -7.165,-6.42 -10.832,-6.42 C 7.735,-11.639 1.921,-3.035 0,0"
             style="fill:#97b314;fill-opacity:1;fill-rule:nonzero;stroke:none"
             id="path50"
             inkscape:connector-curvature="0" />
        </g>
        <g
           id="g52"
           transform="translate(1899.2246,1078.7773)">
          <path
             d="m 0,0 c -2.622,1.965 -3.886,4.39 -3.842,6.771 0.044,4.543 3.842,8.385 7.333,11.095 9.306,6.836 26.952,8.428 27.04,8.428 0.526,0.044 1.088,-0.215 1.263,-0.741 0.263,-0.522 0.088,-1.092 -0.387,-1.443 C 23.19,17.449 17.778,15.616 14.235,5.898 12.578,1.158 9.174,-1.877 5.237,-1.877 3.447,-1.877 1.614,-1.223 0,0"
             style="fill:#97b314;fill-opacity:1;fill-rule:nonzero;stroke:none"
             id="path54"
             inkscape:connector-curvature="0" />
        </g>
        <g
           id="g56"
           transform="translate(1965.5298,1224.7979)">
          <path
             d="m 0,0 c 0.307,-0.526 0.307,-1.18 -0.043,-1.771 -0.308,-0.479 -0.79,-0.72 -1.403,-0.72 h -0.176 c 0,0 -10.831,1.487 -21.663,4.762 -10.7,3.408 -22.145,8.079 -22.532,17.033 0,2.184 0.825,4.467 2.439,6.717 3.323,4.521 7.034,6.957 11.138,6.957 C -21.795,32.627 -12.146,19.304 0,0"
             style="fill:#97b314;fill-opacity:1;fill-rule:nonzero;stroke:none"
             id="path58"
             inkscape:connector-curvature="0" />
        </g>
        <g
           id="g60"
           transform="translate(2004.8398,955.2749)">
          <path
             d="m 0,0 c -9.831,0.329 -13.98,7.622 -13.761,15.375 0.132,15.922 12.709,37.761 12.753,37.958 0.526,0.896 1.665,1.312 2.622,0.896 C 2.578,53.855 3.097,52.83 2.929,51.825 2.403,49.51 2.184,47.154 2.184,44.795 2.14,30.75 9.868,16.708 10.043,7.841 10.043,5.767 9.48,3.626 7.859,2.074 6.245,0.548 4.017,0 1.22,0 H 0"
             style="fill:#97b314;fill-opacity:1;fill-rule:nonzero;stroke:none"
             id="path62"
             inkscape:connector-curvature="0" />
        </g>
        <g
           id="g64"
           transform="translate(2139.897,1220.4741)">
          <path
             d="M 0,0 C 0,0 14.455,9.126 12.972,21.576 11.701,32.616 2.965,29.994 4.368,22.339 5.807,14.63 8.209,6.091 0,0"
             style="fill:#c9d200;fill-opacity:1;fill-rule:nonzero;stroke:none"
             id="path66"
             inkscape:connector-curvature="0" />
        </g>
        <g
           id="g68"
           transform="translate(1943.209,1093.2358)">
          <path
             d="m 0,0 c 0,0 -11.752,-7.118 -5.551,-12.099 6.252,-4.934 3.017,-0.742 5.595,4.302 C 2.666,-2.75 14.367,3.955 14.367,3.955 14.367,3.955 14.674,6.902 0,0"
             style="fill:#c9d200;fill-opacity:1;fill-rule:nonzero;stroke:none"
             id="path70"
             inkscape:connector-curvature="0" />
        </g>
        <g
           id="g72"
           transform="translate(1998.1128,985.5244)">
          <path
             d="m 0,0 c 0,0 -3.535,-12.884 -1.096,-19.396 2.06,-5.24 5.683,-6.289 5.946,-4.474 0.351,1.834 -1.921,3.908 -3.367,7.882 C 0,-12.011 -0.92,-4.039 0,0"
             style="fill:#c9d200;fill-opacity:1;fill-rule:nonzero;stroke:none"
             id="path74"
             inkscape:connector-curvature="0" />
        </g>
        <g
           id="g76"
           transform="translate(2171.1211,1204.5298)">
          <path
             d="M 0,0 C 1.446,0.613 5.332,3.1 2.184,5.744 0.088,7.621 -1,2.49 -2.271,1.092 -3.447,-0.263 -1.789,-0.742 0,0"
             style="fill:#c9d200;fill-opacity:1;fill-rule:nonzero;stroke:none"
             id="path78"
             inkscape:connector-curvature="0" />
        </g>
        <g
           id="g80"
           transform="translate(1931.0625,1250.7524)">
          <path
             d="M 0,0 C 0,0 3.499,3.276 9.349,-1.432 14.331,-5.339 11.051,-7.348 8.911,-5.515 6.64,-3.678 2.228,-2.597 -1.088,-2.597 -4.412,-2.597 -1.438,-0.741 0,0"
             style="fill:#c9d200;fill-opacity:1;fill-rule:nonzero;stroke:none"
             id="path82"
             inkscape:connector-curvature="0" />
        </g>
        <g
           id="g84"
           transform="translate(2171.0776,1078.6021)">
          <path
             d="m 0,0 c 0,0 11.489,-9.302 4.587,-20.528 -5.675,-9.305 -9.043,-7.402 -6.552,-3.1 5.595,9.871 -0.562,18.256 -2.877,23.541 C -7.202,5.157 -2.184,1.793 0,0"
             style="fill:#c9d200;fill-opacity:1;fill-rule:nonzero;stroke:none"
             id="path86"
             inkscape:connector-curvature="0" />
        </g>
      </g>
    </g>
  </g>
</svg>
