<?xml version="1.0" encoding="UTF-8" standalone="no"?>
<!-- Created with Inkscape (http://www.inkscape.org/) -->

<svg
   xmlns:dc="http://purl.org/dc/elements/1.1/"
   xmlns:cc="http://creativecommons.org/ns#"
   xmlns:rdf="http://www.w3.org/1999/02/22-rdf-syntax-ns#"
   xmlns:svg="http://www.w3.org/2000/svg"
   xmlns="http://www.w3.org/2000/svg"
   xmlns:sodipodi="http://sodipodi.sourceforge.net/DTD/sodipodi-0.dtd"
   xmlns:inkscape="http://www.inkscape.org/namespaces/inkscape"
   width="511.37677mm"
   height="182.37305mm"
   viewBox="0 0 511.37677 182.37305"
   version="1.1"
   id="svg304"
   inkscape:version="0.92.1 r15371"
   sodipodi:docname="M.svg">
  <defs
     id="defs298">
    <clipPath
       clipPathUnits="userSpaceOnUse"
       id="clipPath176">
      <path
         d="M 0,2381.1 H 3367.561 V 0 H 0 Z"
         id="path174"
         inkscape:connector-curvature="0" />
    </clipPath>
  </defs>
  <sodipodi:namedview
     id="base"
     pagecolor="#ffffff"
     bordercolor="#666666"
     borderopacity="1.0"
     inkscape:pageopacity="0.0"
     inkscape:pageshadow="2"
     inkscape:zoom="0.35"
     inkscape:cx="2312.0956"
     inkscape:cy="-466.7866"
     inkscape:document-units="mm"
     inkscape:current-layer="layer1"
     showgrid="false"
     fit-margin-top="0"
     fit-margin-left="0"
     fit-margin-right="0"
     fit-margin-bottom="0"
     inkscape:window-width="1680"
     inkscape:window-height="1013"
     inkscape:window-x="0"
     inkscape:window-y="0"
     inkscape:window-maximized="1" />
  <metadata
     id="metadata301">
    <rdf:RDF>
      <cc:Work
         rdf:about="">
        <dc:format>image/svg+xml</dc:format>
        <dc:type
           rdf:resource="http://purl.org/dc/dcmitype/StillImage" />
        <dc:title></dc:title>
      </cc:Work>
    </rdf:RDF>
  </metadata>
  <g
     inkscape:label="Calque 1"
     inkscape:groupmode="layer"
     id="layer1"
     transform="translate(505.90862,157.04367)">
    <g
       transform="matrix(0.35277777,0,0,-0.35277777,-1169.6951,446.92062)"
       id="g270">
      <g
         transform="translate(2531.8438,1373.8535)"
         id="g162">
        <path
           inkscape:connector-curvature="0"
           id="path164"
           style="fill:#024e77;fill-opacity:1;fill-rule:nonzero;stroke:none"
           d="M 0,0 -45.584,-92.114 H -67.986 L -113.348,0 v -106.104 h -37.588 V 62.425 h 50.844 l 43.428,-92.599 43.625,92.599 H 37.615 V -106.104 H 0 Z" />
      </g>
      <g
         transform="translate(2724.5,1267.749)"
         id="g166">
        <path
           inkscape:connector-curvature="0"
           id="path168"
           style="fill:#024e77;fill-opacity:1;fill-rule:nonzero;stroke:none"
           d="M 0,0 -15.66,36.394 H -86.336 L -102.004,0 h -40.037 l 72.834,168.529 h 36.418 L 40.018,0 Z M -50.865,118.399 -72.1,69.438 h 42.174 z" />
      </g>
      <g
         id="g170">
        <g
           clip-path="url(#clipPath176)"
           id="g172">
          <g
             transform="translate(2914.2402,1380.3667)"
             id="g178">
            <path
               inkscape:connector-curvature="0"
               id="path180"
               style="fill:#024e77;fill-opacity:1;fill-rule:nonzero;stroke:none"
               d="m 0,0 c 0,-27.032 -10.68,-44.457 -32.033,-52.329 l 42.672,-60.289 H -35.66 l -37.377,53.776 h -26.051 v -53.776 h -37.588 v 168.53 h 63.869 c 26.194,0 44.899,-4.399 56.036,-13.244 C -5.547,33.82 0,19.603 0,0 m -45.313,-20.04 c 4.674,4.188 7.012,10.827 7.012,19.893 0,9.09 -2.422,15.331 -7.24,18.703 -4.84,3.389 -13.258,5.067 -25.318,5.067 h -28.229 v -49.924 h 27.471 c 12.859,0 21.658,2.115 26.304,6.261" />
          </g>
          <path
             inkscape:connector-curvature="0"
             id="path182"
             style="fill:#024e77;fill-opacity:1;fill-rule:nonzero;stroke:none"
             d="m 2946.346,1436.278 h 37.564 v -168.529 h -37.564 z" />
          <g
             transform="translate(3136.8008,1436.2783)"
             id="g184">
            <path
               inkscape:connector-curvature="0"
               id="path186"
               style="fill:#024e77;fill-opacity:1;fill-rule:nonzero;stroke:none"
               d="M 0,0 H 37.605 V -168.529 H 0 l -80.285,105.625 v -105.625 h -37.588 V 0 h 35.197 L 0,-108.471 Z" />
          </g>
          <g
             transform="translate(3248.8535,1402.6685)"
             id="g188">
            <path
               inkscape:connector-curvature="0"
               id="path190"
               style="fill:#024e77;fill-opacity:1;fill-rule:nonzero;stroke:none"
               d="m 0,0 c -3.602,-2.973 -5.42,-6.908 -5.42,-11.832 0,-4.898 2.199,-8.772 6.59,-11.685 4.441,-2.889 14.643,-6.323 30.619,-10.238 16.018,-3.957 28.42,-9.844 37.291,-17.716 8.799,-7.896 13.238,-19.392 13.238,-34.509 0,-15.078 -5.673,-27.372 -17.005,-36.753 -11.331,-9.424 -26.254,-14.111 -44.729,-14.111 -26.656,0 -50.719,9.881 -72.1,29.672 l 22.454,27.454 c 18.152,-15.894 34.966,-23.854 50.38,-23.854 6.934,0 12.332,1.488 16.27,4.482 3.957,2.953 5.926,6.972 5.926,12.042 0,5.067 -2.076,9.066 -6.262,12.04 -4.209,2.972 -12.481,5.987 -24.836,9.048 -19.664,4.647 -33.965,10.74 -43.049,18.215 -9.109,7.476 -13.613,19.203 -13.613,35.203 0,15.999 5.734,28.321 17.213,37.023 11.472,8.659 25.822,13.025 43.051,13.025 11.246,0 22.494,-1.961 33.777,-5.801 C 61.041,27.842 70.84,22.398 79.223,15.3 L 60.145,-12.207 C 45.502,-1.088 30.408,4.461 14.848,4.461 8.545,4.461 3.578,2.963 0,0" />
          </g>
          <g
             transform="translate(2240.8145,1383.4238)"
             id="g192">
            <path
               inkscape:connector-curvature="0"
               id="path194"
               style="fill:#024e77;fill-opacity:1;fill-rule:nonzero;stroke:none"
               d="M 0,0 22.096,-16.941 C -4.441,-63.22 -43.363,-88.995 -90.105,-106.125 l -42.637,208.808 85.019,15.874 11.053,-61.42 57.756,10.574 -32.979,181.513 -57.714,-10.449 11.269,-62.476 -86.072,-16.164 -19.596,95.865 68.367,15.362 -12.984,57.239 -192.066,-43.316 12.878,-57.249 66.596,15.075 19.076,-93.803 -86.113,-16.094 -13.838,58.078 -57.125,-13.536 41.752,-175.995 57.043,13.486 -14.447,60.841 84.453,15.809 43.035,-211.258 c -33.797,-2.178 -66.74,4.608 -91.723,12.295 -13.419,4.166 -24.625,8.543 -32.39,11.849 -3.502,1.529 -6.24,2.829 -8.237,3.75 l 9.133,29.946 -86.021,7.62 39.43,-93.603 21.841,25.631 c 22.383,-22.217 88.916,-73.939 171.696,-65.585 9.587,0.983 20.224,1.589 29.875,4.541 92.185,28.983 135.591,124.933 143.693,148.849 L 78.57,-43.326 74.129,58.478 Z" />
          </g>
        </g>
      </g>
    </g>
  </g>
</svg>
