<?xml version="1.0" encoding="UTF-8" standalone="no"?>
<!-- Created with Inkscape (http://www.inkscape.org/) -->

<svg
   xmlns:dc="http://purl.org/dc/elements/1.1/"
   xmlns:cc="http://creativecommons.org/ns#"
   xmlns:rdf="http://www.w3.org/1999/02/22-rdf-syntax-ns#"
   xmlns:svg="http://www.w3.org/2000/svg"
   xmlns="http://www.w3.org/2000/svg"
   xmlns:sodipodi="http://sodipodi.sourceforge.net/DTD/sodipodi-0.dtd"
   xmlns:inkscape="http://www.inkscape.org/namespaces/inkscape"
   width="534.55145mm"
   height="159.87572mm"
   viewBox="0 0 534.55145 159.87572"
   version="1.1"
   id="svg326"
   inkscape:version="0.92.1 r15371"
   sodipodi:docname="pc.svg">
  <defs
     id="defs320">
    <clipPath
       clipPathUnits="userSpaceOnUse"
       id="clipPath18">
      <path
         d="m 1809.597,1062.395 h 1515.264 v 453.191 H 1809.597 Z"
         id="path16"
         inkscape:connector-curvature="0" />
    </clipPath>
  </defs>
  <sodipodi:namedview
     id="base"
     pagecolor="#ffffff"
     bordercolor="#666666"
     borderopacity="1.0"
     inkscape:pageopacity="0.0"
     inkscape:pageshadow="2"
     inkscape:zoom="0.35"
     inkscape:cx="1230.176"
     inkscape:cy="-529.30126"
     inkscape:document-units="mm"
     inkscape:current-layer="layer1"
     showgrid="false"
     fit-margin-top="0"
     fit-margin-left="0"
     fit-margin-right="0"
     fit-margin-bottom="0"
     inkscape:window-width="1920"
     inkscape:window-height="1136"
     inkscape:window-x="1680"
     inkscape:window-y="27"
     inkscape:window-maximized="1" />
  <metadata
     id="metadata323">
    <rdf:RDF>
      <cc:Work
         rdf:about="">
        <dc:format>image/svg+xml</dc:format>
        <dc:type
           rdf:resource="http://purl.org/dc/dcmitype/StillImage" />
        <dc:title></dc:title>
      </cc:Work>
    </rdf:RDF>
  </metadata>
  <g
     inkscape:label="Calque 1"
     inkscape:groupmode="layer"
     id="layer1"
     transform="translate(219.65073,151.08667)">
    <g
       transform="matrix(0.35277777,0,0,-0.35277777,-858.03632,383.57838)"
       id="g12">
      <g
         id="g14"
         clip-path="url(#clipPath18)">
        <g
           id="g20"
           transform="translate(1982.5366,1420.3647)">
          <path
             d="m 0,0 c 34.254,10.542 70.873,12.298 104.455,5.714 10.627,6.223 22.649,13.041 37.043,21.067 C 95.221,39.419 42.928,38.676 -4.998,24.09 -96.367,-3.855 -172.352,-82.311 -172.939,-169.871 c -0.34,-41.813 15.66,-79.709 43.416,-108.942 l 22.273,47.018 c -16.264,20.175 -26.084,44.627 -27.146,71.557 C -137.312,-89.214 -76.26,-23.457 0,0 m 241.803,-36.35 c -13.205,16.83 -29.85,30.739 -48.733,41.706 -5.332,-9.972 -10.966,-20.536 -16.638,-31.312 9.65,-7.537 18.203,-16.217 25.318,-26.084 52.293,-72.507 13.85,-181.047 -104.539,-221.991 -50.213,-17.319 -97.721,-16.787 -136.463,-3.724 -12.574,-10.926 -26.338,-22.951 -42.211,-36.966 52.244,-27.032 122.57,-33.344 199.002,-6.457 153.059,53.732 194.932,195.066 124.264,284.828"
             style="fill:#c23016;fill-opacity:1;fill-rule:nonzero;stroke:none"
             id="path22"
             inkscape:connector-curvature="0" />
        </g>
        <g
           id="g24"
           transform="translate(2021.4429,1306.4868)">
          <path
             d="m 0,0 c 10.039,0 18.252,6.352 18.252,14.186 0,7.897 -8.213,14.248 -18.252,14.248 -10.033,0 -18.203,-6.351 -18.203,-14.248 C -18.203,6.352 -10.033,0 0,0 M 159.545,162.823 C 59.07,112.628 -34.041,44.27 -47.713,31.334 l -0.639,-0.595 c 0.639,0.595 -92.855,-134.495 -142.898,-256.373 l -1.232,-6.033 -0.248,-8.723 1.82,-3.702 3.129,2.729 C -56.479,-127.762 55.338,-42.36 56.527,-41.45 c 0.553,1.164 52.84,108.012 103.393,200.354 z m -1.572,-3.855 C 119.951,103.799 56.104,-12.446 55.424,-13.569 l -1.481,-3.239 C 52.08,-18.376 -135.828,-174.19 -185.238,-228.407 l -3.215,2.139 c 14.096,31.861 33.148,68.274 52.965,103.481 26.043,47.167 53.095,89.868 71.425,117.58 4.235,6.584 8.137,12.447 11.606,17.488 4.998,7.303 8.51,12.362 9.904,14.373 l 0.297,-0.085 c 0,0 0,0.021 0.043,0.085 l 0.17,-0.17 16.008,-6.794 c 3.217,8.341 13.631,14.458 26.035,14.458 14.988,0 27.146,-8.931 27.146,-19.962 C 27.146,3.261 14.988,-5.692 0,-5.692 c -12.191,0 -22.607,5.926 -25.957,14.181 -0.162,-0.909 -0.289,-1.819 -0.289,-2.75 0,-11.329 11.808,-20.515 26.246,-20.515 11.094,0 20.539,5.356 24.391,12.999 0,0 18.839,-6.436 19.009,-6.329 7.704,8.637 72.955,108.539 110.594,163.159 l 3.391,3.282 c 0.213,0.254 0.461,0.548 0.758,0.781 -3.768,-1.798 -8.297,-4.042 -13.418,-6.627 4.525,2.33 8.929,4.575 13.418,6.627 -0.17,-0.105 -0.256,-0.233 -0.297,-0.357 z M -180.41,-217.928 c 0.084,0.085 0.213,0.234 0.297,0.362 -0.084,-0.128 -0.127,-0.128 -0.254,-0.277 v -0.085"
             style="fill:#c23016;fill-opacity:1;fill-rule:nonzero;stroke:none"
             id="path26"
             inkscape:connector-curvature="0" />
        </g>
        <g
           id="g28"
           transform="translate(2455.437,1414.1377)">
          <path
             d="m 0,0 5.082,-64.865 5.078,-64.843 14.401,1.143 14.394,1.164 -5.424,68.487 C 30.572,-21.254 27.605,9.548 27.061,9.548 26.424,9.487 20.072,7.286 12.914,4.744 Z"
             style="fill:#c23016;fill-opacity:1;fill-rule:nonzero;stroke:none"
             id="path30"
             inkscape:connector-curvature="0" />
        </g>
        <g
           id="g32"
           transform="translate(2428.1284,1349.3149)">
          <path
             d="m 0,0 c -1.564,19.457 -2.67,23.733 -9.146,35.461 -8.811,15.856 -21.639,26.463 -35.098,29.047 -20.836,3.915 -55.133,-7.813 -67.623,-23.057 l -5.332,-6.478 7.279,-84.849 7.328,-84.831 11.436,-3.07 c 3.127,14.165 10.371,23.882 12.234,25.595 l -3.428,44.669 7.491,-3.366 c 5.502,-2.433 12.533,-2.921 26.296,-1.862 21.969,1.717 29.723,5.929 39.924,21.658 C 0.127,-37.323 2.16,-25.722 0,0 m -39.465,-49.918 c -7.789,-4.872 -20.277,-5.505 -32.98,-1.739 l -10.33,2.988 -3.852,41.005 -3.816,40.923 8.093,4.192 c 20.491,10.564 36.789,8.192 46.233,-6.67 4.787,-7.473 5.842,-12.256 7.619,-34.105 2.244,-28.771 -0.383,-39.967 -10.967,-46.594"
             style="fill:#c23016;fill-opacity:1;fill-rule:nonzero;stroke:none"
             id="path34"
             inkscape:connector-curvature="0" />
        </g>
        <g
           id="g36"
           transform="translate(2466.5308,1442.4019)">
          <path
             d="M 0,0 C 9.105,0.697 16.979,10.036 16.342,19.074 15.584,28.179 6.309,36.073 -2.797,35.376 -18.246,34.169 -24.518,14.564 -12.66,4.447 -8.977,1.355 -4.275,-0.319 0,0"
             style="fill:#c23016;fill-opacity:1;fill-rule:nonzero;stroke:none"
             id="path38"
             inkscape:connector-curvature="0" />
        </g>
        <g
           id="g40"
           transform="translate(2830.3257,1313.1997)">
          <path
             d="m 0,0 -4.234,54.046 -4.278,54.178 4.866,3.745 c 7.029,5.441 23.328,8.426 33.156,6.011 15.916,-3.873 17.445,-8.404 21.849,-64.483 L 55.254,4.339 68.508,5.377 81.795,6.414 77.563,59.572 c -4.532,58.514 -5.756,63.088 -18.799,72.381 -10.159,7.307 -23.539,9.445 -40.774,6.584 -17.148,-2.814 -29.892,-8.276 -43.48,-18.521 l -10.08,-7.686 4.572,-57.226 4.488,-57.222 13.254,1.059 z"
             style="fill:#c23016;fill-opacity:1;fill-rule:nonzero;stroke:none"
             id="path42"
             inkscape:connector-curvature="0" />
        </g>
        <g
           id="g44"
           transform="translate(2638.1401,1366.9312)">
          <path
             d="m 0,0 c -1.904,23.75 -6.562,34.696 -20.455,48.18 -29.553,28.689 -79.432,16.494 -95.264,-23.414 -4.574,-11.431 -5.041,-15.664 -3.638,-32.983 1.861,-23.899 7.449,-38.148 19.81,-50.488 8.426,-8.43 17.445,-13.446 28.752,-15.945 16.426,-3.576 40.096,3.387 52.584,15.456 4.447,4.255 10.246,13.93 13.766,22.823 C 1.184,-22.211 1.564,-19.394 0,0 m -41.242,-50.854 c -6.946,-4.298 -18.211,-5.778 -25.871,-3.366 -12.065,3.833 -22.819,24.77 -24.596,47.95 -2.244,28.434 5.756,43.823 24.385,47.168 14.308,2.499 23.711,-1.437 31.25,-13.144 4.822,-7.579 6.054,-12.344 7.492,-31.1 2.031,-26.147 -1.906,-40.775 -12.66,-47.508"
             style="fill:#c23016;fill-opacity:1;fill-rule:nonzero;stroke:none"
             id="path46"
             inkscape:connector-curvature="0" />
        </g>
        <g
           id="g48"
           transform="translate(2943.3745,1515.5649)">
          <path
             d="m 0,0 c -15.457,-1.267 -21.766,-20.766 -9.912,-30.908 3.73,-3.112 8.383,-4.847 12.701,-4.486 9.063,0.762 16.986,10.033 16.307,19.138 C 18.371,-7.218 9.105,0.701 0,0"
             style="fill:#c23016;fill-opacity:1;fill-rule:nonzero;stroke:none"
             id="path50"
             inkscape:connector-curvature="0" />
        </g>
        <g
           id="g52"
           transform="translate(3103.8472,1356.8315)">
          <path
             d="m 0,0 -3.943,6.286 -13.928,-6.584 c -22.734,-10.649 -36.539,-9.336 -48.945,4.637 -6.096,6.904 -11.903,20.154 -12.618,29.047 -0.423,4.91 -0.339,4.91 38.618,8.043 l 38.912,3.07 -2.5,13.929 c -6.862,37.557 -25.319,54.981 -55.721,52.589 -12.277,-0.974 -29.342,-11.622 -35.529,-22.313 -16.51,-28.137 -13.545,-72.466 6.265,-96.917 8.305,-10.228 14.657,-14.398 27.444,-17.808 15.703,-4.276 39.84,0.405 56.818,10.925 C 3.936,-9.421 4.609,-7.432 0,0 m -77.273,72.677 c 5.119,15.435 21.127,23.159 33.234,16.027 5.848,-3.495 12.531,-14.629 13.127,-21.996 0.34,-4.212 -1.014,-4.637 -23.924,-6.414 -26.885,-2.096 -27.139,-1.972 -22.437,12.383"
             style="fill:#c23016;fill-opacity:1;fill-rule:nonzero;stroke:none"
             id="path54"
             inkscape:connector-curvature="0" />
        </g>
        <g
           id="g56"
           transform="translate(3186.4507,1479.0493)">
          <path
             d="m 0,0 c -18.082,-1.42 -38.402,-10.419 -53.18,-23.627 l -6.732,-6.036 4.361,-56.078 4.405,-56.083 13.296,1.038 13.246,1.015 -4.191,53.226 -4.148,53.115 9.869,5.357 c 7.15,3.83 12.914,5.314 20.447,5.207 l 10.543,-0.17 4.022,10.291 C 16.723,-0.51 15.115,1.186 0,0"
             style="fill:#c23016;fill-opacity:1;fill-rule:nonzero;stroke:none"
             id="path58"
             inkscape:connector-curvature="0" />
        </g>
        <g
           id="g60"
           transform="translate(2746.8706,1356.0698)">
          <path
             d="m 0,0 3.852,-49.136 13.253,1.015 13.375,1.059 -4.277,53.094 C 21.637,64.567 20.406,69.12 7.363,78.498 -2.754,85.78 -16.178,87.875 -33.412,85.104 -50.518,82.205 -63.303,76.742 -76.85,66.515 l -10.037,-7.682 4.53,-57.205 4.447,-57.222 13.34,1.037 13.168,1.059 -4.149,54.089 -4.318,54.114 4.828,3.745 c 7.066,5.463 23.328,8.425 33.191,6.033 C -5.969,60.567 -4.447,56.078 0,0"
             style="fill:#c23016;fill-opacity:1;fill-rule:nonzero;stroke:none"
             id="path62"
             inkscape:connector-curvature="0" />
        </g>
        <g
           id="g64"
           transform="translate(2947.9897,1456.6299)">
          <path
             d="m 0,0 -12.955,-4.659 5.119,-64.887 5.082,-64.826 14.438,1.122 14.306,1.166 -5.371,68.507 C 17.652,-25.935 14.691,4.846 14.055,4.846 13.461,4.761 7.109,2.559 0,0"
             style="fill:#c23016;fill-opacity:1;fill-rule:nonzero;stroke:none"
             id="path66"
             inkscape:connector-curvature="0" />
        </g>
        <g
           id="g68"
           transform="translate(3236.7495,1343.8105)">
          <path
             d="m 0,0 c -11.854,2.754 -26.162,9.951 -26.375,13.381 -0.127,1.459 1.863,5.527 4.277,9.144 l 4.532,6.564 9.521,-3.895 c 11.988,-4.828 23.33,-5.823 33.701,-2.923 15.201,4.067 22.658,19.944 12.83,27.438 -2.287,1.735 -15.236,7.028 -28.914,11.772 -26.763,9.228 -35.316,15.494 -38.83,28.366 -3.596,13.319 -0.969,23.669 8.596,34.509 15.16,17.063 38.361,21.212 64.658,11.537 l 12.361,-4.51 -2.88,-6.457 C 47.762,111.99 48.102,112.161 36.965,116.143 15.029,124.123 -5.332,115.845 -4.107,99.437 -3.641,93.997 3.305,90.293 24.814,83.857 34.338,81.061 45.9,76.742 50.516,74.246 60.039,69.124 68.889,55.742 69.695,45.2 71.982,15.625 35.484,-8.043 0,0"
             style="fill:#c23016;fill-opacity:1;fill-rule:nonzero;stroke:none"
             id="path70"
             inkscape:connector-curvature="0" />
        </g>
        <g
           id="g72"
           transform="translate(2539.5269,1239.293)">
          <path
             d="M 0,0 C -9.955,8.722 -22.861,12.387 -38.742,10.733 -52.549,9.334 -75.494,1.461 -75.494,-1.841 c 0,-1.229 1.521,-5.144 3.39,-8.744 2.493,-4.846 4.405,-6.202 7.11,-5.059 18.924,7.831 32.264,9.208 41.836,4.234 7.873,-4.021 10.924,-9.378 10.924,-19.202 v -7.558 l -22.614,-0.825 c -20.531,-0.721 -23.627,-1.462 -33.277,-7.327 -29.68,-18.225 -25.912,-60.27 6.775,-75.408 16.555,-7.643 43.905,-3.196 63.85,10.373 l 11.385,7.813 v 41.217 C 13.885,-16.069 12.789,-11.133 0,0 m -12.234,-97.636 -7.159,-4.277 c -22.988,-14.099 -49.836,8.996 -37.722,32.411 4.318,8.318 11.98,11.178 29.679,11.178 h 15.202 z"
             style="fill:#c23016;fill-opacity:1;fill-rule:nonzero;stroke:none"
             id="path74"
             inkscape:connector-curvature="0" />
        </g>
        <g
           id="g76"
           transform="translate(2631.9175,1250.7446)">
          <path
             d="m 0,0 c -17.871,0 -38.445,-7.218 -53.945,-19.053 l -7.116,-5.355 v -55.424 -55.297 h 13.084 13.127 v 52.419 52.481 l 10.12,4.507 c 7.242,3.176 13.041,4.153 20.453,3.515 l 10.287,-1.058 4.744,9.866 C 16.426,-1.819 14.945,0 0,0"
             style="fill:#c23016;fill-opacity:1;fill-rule:nonzero;stroke:none"
             id="path78"
             inkscape:connector-curvature="0" />
        </g>
        <g
           id="g80"
           transform="translate(2740.2222,1239.293)">
          <path
             d="M 0,0 C -9.99,8.722 -23.031,12.387 -38.785,10.733 -52.592,9.334 -75.623,1.461 -75.623,-1.841 c 0,-1.229 1.572,-5.144 3.434,-8.744 2.492,-4.846 4.404,-6.202 7.109,-5.059 18.926,7.831 32.221,9.208 41.879,4.234 7.873,-4.021 10.84,-9.378 10.84,-19.202 v -7.558 l -22.53,-0.825 c -20.576,-0.721 -23.627,-1.462 -33.32,-7.327 -29.721,-18.225 -25.869,-60.27 6.818,-75.408 16.512,-7.643 43.905,-3.196 63.764,10.373 l 11.43,7.813 v 41.217 C 13.801,-16.069 12.703,-11.133 0,0 m -12.361,-97.636 -7.116,-4.277 c -22.99,-14.099 -49.88,8.996 -37.722,32.411 4.275,8.318 11.978,11.178 29.678,11.178 h 15.16 z"
             style="fill:#c23016;fill-opacity:1;fill-rule:nonzero;stroke:none"
             id="path82"
             inkscape:connector-curvature="0" />
        </g>
        <g
           id="g84"
           transform="translate(3217.2788,1137.2104)">
          <path
             d="M 0,0 -3.393,6.563 -17.574,1.165 c -23.158,-8.702 -36.582,-6.394 -47.592,8.276 -5.502,7.283 -10.16,20.682 -10.16,29.447 -0.043,4.871 0,4.871 38.443,4.871 H 1.564 l -1.402,13.93 c -3.808,37.387 -20.533,55.845 -50.553,55.888 -12.107,0.064 -29.636,-9.123 -36.541,-19.159 -18.287,-26.335 -18.882,-69.987 -1.394,-95.498 7.406,-10.712 13.297,-15.243 25.574,-19.626 15.031,-5.356 39.082,-2.666 56.522,6.352 C 3.129,-9.505 3.936,-7.601 0,0 m -70.123,77.354 c 6.103,14.692 22.402,20.982 33.795,13.064 5.414,-3.831 11.172,-15.329 11.172,-22.526 0,-4.191 -1.354,-4.446 -24.002,-4.446 -26.508,0 -26.721,0.106 -20.965,13.908"
             style="fill:#c23016;fill-opacity:1;fill-rule:nonzero;stroke:none"
             id="path86"
             inkscape:connector-curvature="0" />
        </g>
        <g
           id="g88"
           transform="translate(3044.146,1131.6841)">
          <path
             d="m 0,0 c -5.252,0.868 -9.529,2.984 -10.926,5.569 -1.443,2.729 -2.242,36.792 -2.242,95.119 0,58.153 -0.17,69.839 -3.811,68.444 -2.074,-0.786 -8.007,-2.584 -13.082,-3.962 l -9.275,-2.495 V 96.79 c 0,-93.087 0.34,-95.837 11.221,-105.533 2.832,-2.564 8.086,-5.632 11.681,-6.903 3.606,-1.268 10.713,-2.348 15.797,-2.454 l 9.276,-0.191 v 8.425 C 8.639,-1.674 8.383,-1.312 0,0"
             style="fill:#c23016;fill-opacity:1;fill-rule:nonzero;stroke:none"
             id="path90"
             inkscape:connector-curvature="0" />
        </g>
        <g
           id="g92"
           transform="translate(2863.0913,1249.3286)">
          <path
             d="m 0,0 c -0.885,-0.995 -9.693,-23.141 -19.725,-49.242 -9.955,-26.126 -18.254,-47.19 -18.55,-46.871 -0.254,0.294 -9.608,22.589 -20.704,49.6 -11.134,27.035 -20.404,49.37 -20.617,49.71 -1.359,1.778 -25.154,-9.36 -24.261,-11.307 0.509,-1.31 11.517,-27.924 24.261,-59.106 12.83,-31.163 24.598,-59.869 26.246,-63.703 l 2.883,-7.027 10.5,3.514 c 5.799,1.948 10.754,3.682 11.053,3.895 0.842,0.654 46.359,121.39 46.359,123.085 C 17.445,-4.828 1.658,1.884 0,0"
             style="fill:#c23016;fill-opacity:1;fill-rule:nonzero;stroke:none"
             id="path94"
             inkscape:connector-curvature="0" />
        </g>
        <g
           id="g96"
           transform="translate(2986.3511,1137.2104)">
          <path
             d="M 0,0 -3.35,6.563 -17.572,1.165 c -23.16,-8.702 -36.5,-6.394 -47.594,8.276 -5.502,7.283 -10.117,20.682 -10.117,29.447 0,4.871 0,4.871 38.402,4.871 H 1.648 l -1.394,13.93 c -3.858,37.387 -20.623,55.845 -50.602,55.888 -12.15,0.064 -29.763,-9.123 -36.625,-19.159 -18.246,-26.335 -18.798,-69.987 -1.267,-95.498 7.328,-10.712 13.254,-15.243 25.488,-19.626 15.074,-5.356 39.082,-2.666 56.527,6.352 C 3.129,-9.505 3.979,-7.601 0,0 m -70.123,77.354 c 6.146,14.692 22.486,20.982 33.795,13.064 5.457,-3.831 11.215,-15.329 11.215,-22.526 0,-4.191 -1.311,-4.446 -24.045,-4.446 -26.508,0 -26.678,0.106 -20.965,13.908"
             style="fill:#c23016;fill-opacity:1;fill-rule:nonzero;stroke:none"
             id="path98"
             inkscape:connector-curvature="0" />
        </g>
        <g
           id="g100"
           transform="translate(3253.0542,1114.897)">
          <path
             d="m 0,0 c -11.434,3.618 -24.857,11.75 -24.857,15.177 0,1.398 2.201,5.293 4.955,8.659 l 4.957,6.057 9.019,-4.532 c 11.299,-5.653 22.395,-7.494 32.766,-5.547 15.244,2.857 23.797,17.91 14.734,25.957 -2.074,1.904 -14.435,8.042 -27.435,13.781 -25.532,11.112 -33.405,17.93 -35.862,30.781 -2.541,13.442 0.809,23.351 11.139,33.153 16.127,15.601 39.16,17.888 64.273,6.414 l 11.725,-5.355 -3.299,-6.182 C 55.467,106.146 55.764,106.252 45.307,111.039 24.256,120.565 3.682,114.002 3.682,97.828 3.682,92.535 10.203,88.365 30.82,80.339 39.926,76.87 50.936,71.723 55.254,68.951 64.189,63.212 71.85,49.303 71.85,38.953 71.85,9.778 34.127,-10.648 0,0"
             style="fill:#c23016;fill-opacity:1;fill-rule:nonzero;stroke:none"
             id="path102"
             inkscape:connector-curvature="0" />
        </g>
        <g
           id="g104"
           transform="translate(2436.1284,1142.6733)">
          <path
             d="m 0,0 c -33.275,-14.653 -47.465,-12.068 -59.742,10.836 -6.988,13.127 -6.776,43.759 0.553,58.875 8.552,17.53 22.691,22.696 42.636,15.435 13.34,-4.723 12.785,-5.101 20.278,10.479 1.443,3.005 -18.459,10.329 -31.797,11.728 -26.629,2.793 -49.285,-11.516 -59.489,-37.621 -6.521,-16.595 -7.193,-47.44 -1.267,-60.864 8.426,-19.329 19.98,-30.973 35.775,-36.074 14.438,-4.744 57.713,4.106 60.848,12.341 0.674,1.739 -0.041,6.099 -1.529,9.76 C 4.277,-0.276 2.584,1.101 0,0"
             style="fill:#c23016;fill-opacity:1;fill-rule:nonzero;stroke:none"
             id="path106"
             inkscape:connector-curvature="0" />
        </g>
        <g
           id="g108"
           transform="translate(3105.1558,1131.6841)">
          <path
             d="m 0,0 c -5.289,0.868 -9.488,2.984 -10.881,5.569 -1.437,2.729 -2.203,36.792 -2.203,95.119 0,39.776 -0.17,56.312 -0.885,62.917 -8.261,-1.207 -16.517,-1.207 -23.543,0.128 l -1.783,-0.212 V 96.79 c 0,-93.087 0.299,-95.837 11.137,-105.533 2.883,-2.564 8.172,-5.632 11.775,-6.903 3.555,-1.268 10.67,-2.348 15.789,-2.454 l 9.276,-0.191 v 8.425 C 8.682,-1.674 8.383,-1.312 0,0"
             style="fill:#c23016;fill-opacity:1;fill-rule:nonzero;stroke:none"
             id="path110"
             inkscape:connector-curvature="0" />
        </g>
      </g>
    </g>
  </g>
</svg>
