<?xml version="1.0" encoding="UTF-8" standalone="no"?>
<!-- Created with Inkscape (http://www.inkscape.org/) -->

<svg
   xmlns:dc="http://purl.org/dc/elements/1.1/"
   xmlns:cc="http://creativecommons.org/ns#"
   xmlns:rdf="http://www.w3.org/1999/02/22-rdf-syntax-ns#"
   xmlns:svg="http://www.w3.org/2000/svg"
   xmlns="http://www.w3.org/2000/svg"
   xmlns:sodipodi="http://sodipodi.sourceforge.net/DTD/sodipodi-0.dtd"
   xmlns:inkscape="http://www.inkscape.org/namespaces/inkscape"
   version="1.1"
   id="svg2"
   xml:space="preserve"
   width="1357.4966"
   height="869.90503"
   viewBox="0 0 1357.4966 869.90502"
   sodipodi:docname="R.svg"
   inkscape:version="0.92.1 r15371"><metadata
     id="metadata8"><rdf:RDF><cc:Work
         rdf:about=""><dc:format>image/svg+xml</dc:format><dc:type
           rdf:resource="http://purl.org/dc/dcmitype/StillImage" /><dc:title></dc:title></cc:Work></rdf:RDF></metadata><defs
     id="defs6"><clipPath
       clipPathUnits="userSpaceOnUse"
       id="clipPath20"><path
         d="M 0,2381.101 H 3367.56 V 0 H 0 Z"
         id="path18"
         inkscape:connector-curvature="0" /></clipPath><clipPath
       clipPathUnits="userSpaceOnUse"
       id="clipPath28"><path
         d="M 410.254,1308.14 H 736.805 V 982.46 H 410.254 Z"
         id="path26"
         inkscape:connector-curvature="0" /></clipPath><clipPath
       clipPathUnits="userSpaceOnUse"
       id="clipPath48"><path
         d="M 0,2381.101 H 3367.56 V 0 H 0 Z"
         id="path46"
         inkscape:connector-curvature="0" /></clipPath><clipPath
       clipPathUnits="userSpaceOnUse"
       id="clipPath56"><path
         d="M 258.839,1488.51 H 1108.3 V 896.302 H 258.839 Z"
         id="path54"
         inkscape:connector-curvature="0" /></clipPath><clipPath
       clipPathUnits="userSpaceOnUse"
       id="clipPath184"><path
         d="M 0,2381.101 H 3367.56 V 0 H 0 Z"
         id="path182"
         inkscape:connector-curvature="0" /></clipPath></defs><sodipodi:namedview
     pagecolor="#ffffff"
     bordercolor="#666666"
     borderopacity="1"
     objecttolerance="10"
     gridtolerance="10"
     guidetolerance="10"
     inkscape:pageopacity="0"
     inkscape:pageshadow="2"
     inkscape:window-width="1920"
     inkscape:window-height="1136"
     id="namedview4"
     showgrid="false"
     fit-margin-top="0"
     fit-margin-left="0"
     fit-margin-right="0"
     fit-margin-bottom="0"
     inkscape:zoom="0.21025223"
     inkscape:cx="502.79957"
     inkscape:cy="400.20767"
     inkscape:window-x="1680"
     inkscape:window-y="27"
     inkscape:window-maximized="1"
     inkscape:current-layer="g10" /><g
     id="g10"
     inkscape:groupmode="layer"
     inkscape:label="logo branche A0 V2"
     transform="matrix(1.3333333,0,0,-1.3333333,-229.46474,2011.455)"><path
       d="M 1190.221,856.16253 H 172.09856 V 1508.5913 H 1190.221 Z"
       style="fill:#312883;fill-opacity:1;fill-rule:nonzero;stroke:none;stroke-width:0.59783554"
       id="path12"
       inkscape:connector-curvature="0" /><g
       id="g4846"><g
         id="g14"><g
           clip-path="url(#clipPath20)"
           id="g16"><g
             id="g22"><g
               id="g24" /><g
               id="g36"><g
                 style="opacity:0.35000604"
                 id="g34"
                 clip-path="url(#clipPath28)"><g
                   id="g32"
                   transform="translate(573.4631,982.46)"><path
                     inkscape:connector-curvature="0"
                     id="path30"
                     style="fill:#ffffff;fill-opacity:1;fill-rule:nonzero;stroke:none"
                     d="m 0,0 c -90.148,0 -163.209,72.899 -163.209,162.836 0,89.962 73.061,162.841 163.209,162.841 90.19,0 163.342,-72.879 163.342,-162.841 C 163.342,72.899 90.19,0 0,0" /></g></g></g></g></g></g><g
         transform="translate(667.998,1142.4141)"
         id="g38"><path
           inkscape:connector-curvature="0"
           id="path40"
           style="fill:#ffffff;fill-opacity:1;fill-rule:nonzero;stroke:none"
           d="M 0,0 V -25.981 H -36.632 V 10.57 h 26.063 V 23.374 H -77.951 V 10.57 h 26.112 V -25.981 H -88.52 V 0 h -12.826 v -67.172 h 12.826 v 26.045 h 36.681 v -36.594 h -26.112 v -12.804 h 67.382 v 12.804 h -26.063 v 36.594 H 0 V -67.172 H 12.867 V 0 Z" /></g><g
         id="g50"><g
           id="g52" /><g
           id="g64"><g
             style="opacity:0.35000604"
             id="g62"
             clip-path="url(#clipPath56)"><g
               id="g60"
               transform="translate(643.5627,1480.2451)"><path
                 inkscape:connector-curvature="0"
                 id="path58"
                 style="fill:#ffffff;fill-opacity:1;fill-rule:nonzero;stroke:none"
                 d="m 0,0 c -99.089,-27.007 -196.51,-68.802 -274.628,-136.854 -71.979,-62.723 -120.815,-159.35 -108.073,-256.641 10.611,-80.796 82.673,-133.699 154.024,-160.162 111.411,-41.276 236.864,-34.611 351.741,-13.975 113.465,20.471 225.003,59.426 326.307,114.376 2.501,1.337 16.835,7.415 15.242,13.286 -1.543,5.701 -17.044,3.948 -19.839,3.758 -27.991,-1.774 -60.075,-9.314 -84.846,-22.723 -15.082,-8.187 -30.331,-15.957 -45.783,-23.415 -3.8,-1.817 -7.607,-3.573 -11.449,-5.328 -1.334,-0.603 -14.16,-6.307 -3.633,-1.71 -8.857,-3.926 -17.841,-7.562 -26.775,-11.199 -7.607,-3.09 -15.25,-5.972 -22.941,-8.832 -13.195,-4.912 11.995,4.24 -1.208,-0.42 -3.8,-1.316 -7.642,-2.607 -11.442,-3.904 -7.523,-2.508 -15.124,-4.908 -22.773,-7.247 17.967,5.514 4.513,1.337 0.754,0.289 -5.057,-1.438 -10.065,-2.775 -15.081,-4.156 -3.8,-0.982 -7.517,-1.901 -11.24,-2.861 -13.573,-3.427 14.663,3.406 1.132,0.231 -7.398,-1.731 -14.872,-3.258 -22.312,-4.785 -3.674,-0.814 -7.349,-1.481 -11.023,-2.168 -13.119,-2.51 12.993,2.252 -0.042,0 -8.48,-1.422 -16.96,-2.677 -25.399,-3.868 -3.674,-0.457 -7.23,-0.897 -10.863,-1.359 -2.34,-0.227 -14.662,-1.586 -1.628,-0.164 -7.104,-0.795 -14.124,-1.357 -21.221,-1.904 -6.979,-0.518 -13.915,-0.895 -20.887,-1.207 -3.472,-0.147 -6.895,-0.274 -10.36,-0.358 -1.467,-0.062 -15.752,-0.251 -6.978,-0.23 -91.196,-0.499 -190.118,16.4 -262.76,77.494 -27.32,23.058 -47.418,55.015 -55.898,89.729 -10.82,44.387 -3.213,95.834 12.49,138.128 16.584,44.68 45.413,83.842 79.789,116.469 15.039,14.307 32.084,27.384 51.762,40.582 9.228,6.145 18.631,11.949 28.236,17.401 -9.647,-5.536 5.434,2.966 7.984,4.325 5.553,2.923 11.191,5.805 16.835,8.586 3.926,1.941 8.02,3.862 11.987,5.699 2.382,1.128 4.806,2.194 7.223,3.259 -14.159,-6.329 -5.134,-2.278 -2.089,-1.002 8.607,3.718 17.297,7.163 26.029,10.485 13.496,5.011 -13.531,-4.782 -0.084,-0.042 4.512,1.567 9.109,3.07 13.622,4.533 5.595,1.858 23.848,7.269 -0.252,0.147 4.219,1.254 8.523,2.42 12.826,3.611 14.159,3.824 28.319,8.334 41.48,14.895 2.549,1.273 16.835,7.497 15.333,13.285 -1.586,5.761 -17.087,4.01 -19.888,3.8 C 28.738,6.937 14.118,3.845 0,0" /></g></g></g></g><g
         transform="translate(555.6292,1377.6064)"
         id="g146"><path
           inkscape:connector-curvature="0"
           id="path148"
           style="fill:#ffffff;fill-opacity:1;fill-rule:nonzero;stroke:none"
           d="m 0,0 c 11.819,61.157 125.111,72.163 155.944,13.136 30.785,-59.029 -6.391,-137.919 -92.781,-192.873 120.975,65.129 227.001,35.657 223.697,-53.178 -1.837,-49.439 -63.331,-84.447 -96.246,-90.943 26.111,-46.891 57.819,-113.149 -5.219,-153.168 -63.086,-40.041 -165.095,27.114 -180.428,137.566 40.942,-42.55 94.158,-89.461 138.438,-72.086 0,0 69.311,16.419 32.168,95.83 58.441,38.873 53.978,69.119 37.639,95.812 0,0 -51.379,69.577 -157.531,34.046 45.246,68.156 45.951,83.614 41.152,136.685 C 91.985,3.925 50.463,31.833 0,0" /></g><g
         transform="translate(543.0481,1472.0566)"
         id="g150"><path
           inkscape:connector-curvature="0"
           id="path152"
           style="fill:#ffffff;fill-opacity:1;fill-rule:nonzero;stroke:none"
           d="M 0,0 C -131.712,-131.924 -124.985,-248.516 -27.607,-411.209 -40.348,-118.68 10.863,-136.684 0,0" /></g><g
         transform="translate(505.3264,1053.3105)"
         id="g154"><path
           inkscape:connector-curvature="0"
           id="path156"
           style="fill:#ffffff;fill-opacity:1;fill-rule:nonzero;stroke:none"
           d="M 0,0 C -174.198,224.059 -371.287,81.148 -159.074,-38.371 -156.818,49.545 -88.975,16.836 0,0" /></g><g
         transform="translate(516.7759,1045.2881)"
         id="g158"><path
           inkscape:connector-curvature="0"
           id="path160"
           style="fill:#ffffff;fill-opacity:1;fill-rule:nonzero;stroke:none"
           d="M 0,0 C -73.774,-66.191 -5.679,-141.45 -101.598,-144.769 26.817,-210.48 44.574,-136.328 0,0" /></g></g></g></svg>