<?xml version="1.0" encoding="UTF-8" standalone="no"?>
<!-- Created with Inkscape (http://www.inkscape.org/) -->

<svg
   xmlns:dc="http://purl.org/dc/elements/1.1/"
   xmlns:cc="http://creativecommons.org/ns#"
   xmlns:rdf="http://www.w3.org/1999/02/22-rdf-syntax-ns#"
   xmlns:svg="http://www.w3.org/2000/svg"
   xmlns="http://www.w3.org/2000/svg"
   xmlns:sodipodi="http://sodipodi.sourceforge.net/DTD/sodipodi-0.dtd"
   xmlns:inkscape="http://www.inkscape.org/namespaces/inkscape"
   width="534.54211mm"
   height="256.51291mm"
   viewBox="0 0 534.54211 256.51291"
   version="1.1"
   id="svg876"
   inkscape:version="0.92.1 r15371"
   sodipodi:docname="sg.svg">
  <defs
     id="defs870" />
  <sodipodi:namedview
     id="base"
     pagecolor="#ffffff"
     bordercolor="#666666"
     borderopacity="1.0"
     inkscape:pageopacity="0.0"
     inkscape:pageshadow="2"
     inkscape:zoom="0.35"
     inkscape:cx="-66.984477"
     inkscape:cy="553.32021"
     inkscape:document-units="mm"
     inkscape:current-layer="layer1"
     showgrid="false"
     fit-margin-top="0"
     fit-margin-left="0"
     fit-margin-right="0"
     fit-margin-bottom="0"
     inkscape:window-width="1920"
     inkscape:window-height="1136"
     inkscape:window-x="1680"
     inkscape:window-y="27"
     inkscape:window-maximized="1" />
  <metadata
     id="metadata873">
    <rdf:RDF>
      <cc:Work
         rdf:about="">
        <dc:format>image/svg+xml</dc:format>
        <dc:type
           rdf:resource="http://purl.org/dc/dcmitype/StillImage" />
        <dc:title></dc:title>
      </cc:Work>
    </rdf:RDF>
  </metadata>
  <g
     inkscape:label="Calque 1"
     inkscape:groupmode="layer"
     id="layer1"
     transform="translate(-123.55631,-38.719738)">
    <g
       transform="matrix(0.35277777,0,0,-0.35277777,-516.17806,608.12479)"
       id="g761">
      <g
         transform="translate(1898.1943,1072.4946)"
         id="g162">
        <path
           inkscape:connector-curvature="0"
           id="path164"
           style="fill:#006ab2;fill-opacity:1;fill-rule:nonzero;stroke:none"
           d="M 0,0 -63.995,406.028 45.197,423.56 110.598,434.032 52.895,376.66 -6.623,317.472 -6.541,316.728 -7.454,316.666 37.999,27.195 41.557,4.472 Z m 59.642,6.416 v 0 l -5.667,36.012 -40.402,257.37 51.454,2.959 76.28,4.388 0.127,0.021 17.593,0.972 0.408,0.062 48.678,2.793 67.928,-416.707 -45.163,-0.371 -147.849,-1.367 h -5.503 l -15.067,95.987 z m 154.305,323.041 c 0.791,3.848 0.293,7.966 -1.819,11.631 -4.596,7.821 -14.694,10.493 -22.515,5.918 l -0.873,-0.519 c -6.615,-4.015 -9.224,-11.837 -6.949,-18.875 l -25.249,-1.468 -21.276,130.175 -0.539,-0.104 -0.291,1.616 -1.906,-1.944 -90.267,-14.508 -16.482,100.188 -109.06,-120.305 -1.495,-0.249 69.458,-440.839 0.956,0.124 0.407,-2.565 3.105,2.939 55.223,5.918 17.629,-112.293 235.223,2.069 -73.879,453.627 z" />
      </g>
      <g
         transform="translate(2333.5039,1299.5898)"
         id="g166">
        <path
           inkscape:connector-curvature="0"
           id="path168"
           style="fill:#006ab2;fill-opacity:1;fill-rule:nonzero;stroke:none"
           d="m 0,0 c 10.104,21.73 9.813,48.882 -5.046,67.778 -12.295,17.985 -32.163,30.61 -54.556,33.112 -8.817,1.284 -17.012,3.499 -20.487,13.556 -0.332,2.855 -0.955,5.693 0,8.527 3.475,23.633 44.449,15.148 39.404,-7.884 14.819,-4.122 32.489,-2.837 47.309,-0.311 h 0.289 c 6.002,31.541 -6.913,52.028 -27.07,62.438 -20.195,9.127 -49.543,11.985 -70.028,3.478 -40.359,-16.742 -59.609,-74.111 -20.785,-110.992 5.965,-5.07 12.914,-9.146 21.442,-10.741 17.636,-3.455 42.55,-6.314 45.077,-26.468 5.046,-29.347 -41.023,-28.707 -42.552,-1.949 -14.195,-0.245 -33.445,1.949 -48.262,-0.245 v -0.952 -0.972 c -2.527,-40.047 37.539,-63.661 74.418,-64.657 C -35.017,-37.192 -10.099,-25.852 0,0" />
      </g>
      <g
         transform="translate(2382.0576,1275.9331)"
         id="g170">
        <path
           inkscape:connector-curvature="0"
           id="path172"
           style="fill:#006ab2;fill-opacity:1;fill-rule:nonzero;stroke:none"
           d="m 0,0 c 7.246,-7.223 16.391,-11.961 27.111,-13.885 24.258,0 58.651,-6.603 73.137,13.885 5.711,5.671 7.248,27.775 8.861,49.525 -8.861,2.506 -31.582,-0.332 -40.027,0.621 C 67.803,44.768 65.566,36.24 61.51,33.444 51.697,26.803 23.635,28.045 25.207,47.622 c 0.955,14.819 0.333,28.084 1.904,41.017 0.623,3.456 1.572,5.319 2.859,6.271 2.808,3.498 6.291,5.672 10.678,6.955 16.392,4.077 26.821,-5.36 29.016,-20.179 10.764,-1.571 29.347,-4.118 40.068,-1.571 -0.955,27.731 -0.333,48.218 -12.3,56.744 -8.852,8.508 -21.436,12.297 -35.016,13.207 -8.859,0.973 -16.099,-0.581 -24.584,0.33 -19.87,0 -41.307,-5.362 -47.308,-18.294 -1.247,-4.056 -4.721,-13.847 -5.011,-18.584 -1.28,-7.576 -1.904,-15.11 -1.904,-22.685 C -12.916,63.394 -22.725,20.179 0,0" />
      </g>
      <g
         transform="translate(2597.083,1320.4097)"
         id="g174">
        <path
           inkscape:connector-curvature="0"
           id="path176"
           style="fill:#006ab2;fill-opacity:1;fill-rule:nonzero;stroke:none"
           d="m 0,0 c -1.279,-5.36 -3.764,-8.839 -7.28,-10.431 -11.011,-6.001 -37.173,-5.007 -36.218,14.175 0.912,14.84 0.33,27.485 1.861,41.021 0.664,3.457 1.612,5.36 2.859,6.312 2.81,3.457 6.333,5.669 10.72,6.931 16.39,3.79 26.779,-3.474 29.017,-18.272 C 3.477,27.423 1.573,13.534 0,0 m 28.684,92.695 c -8.809,8.507 -21.434,12.604 -34.973,13.556 -8.817,0.931 -16.1,-0.661 -24.584,0.312 -19.873,0 -41.309,-5.361 -47.311,-18.277 -1.286,-4.717 -4.718,-13.905 -5.051,-18.625 -1.24,-7.863 -1.572,-15.127 -1.572,-22.703 2.528,-27.423 -6.623,-70.636 16.1,-90.791 7.246,-7.264 16.39,-12.006 27.07,-13.868 24.295,0 58.651,-6.644 73.181,13.868 8.193,8.174 9.149,49.502 10.099,74.09 -0.95,27.751 -0.95,54.575 -12.959,62.438" />
      </g>
      <g
         transform="translate(2667.6982,1276.2856)"
         id="g178">
        <path
           inkscape:connector-curvature="0"
           id="path180"
           style="fill:#006ab2;fill-opacity:1;fill-rule:nonzero;stroke:none"
           d="m 0,0 c 17.386,-14.84 46.068,-11.715 63.372,0.91 2.235,1.596 5.711,3.478 7.903,4.72 0.291,-5.983 -0.333,-9.437 0.624,-16.701 0,-2.817 15.435,0.287 18.915,0.287 10.1,0.972 12.002,0.972 22.102,0 1.57,55.549 -0.333,106.296 -0.333,158.013 -20.196,-1.571 -24.585,2.194 -39.112,-1.903 v -1.243 C 69.373,116.619 74.758,88.286 73.178,59.562 71.566,36.86 50.123,39.075 43.215,42.549 c -0.332,0.291 -0.954,0.291 -1.244,0.602 -6.623,5.071 -6.949,20.218 -7.905,30.607 -1.57,22.706 0.332,53.935 -1.238,73.138 -14.861,0 -24.634,0.953 -39.412,-1.238 C -4.056,102.132 -13.242,11.964 0,0" />
      </g>
      <g
         transform="translate(2796.9619,1421.2998)"
         id="g182">
        <path
           inkscape:connector-curvature="0"
           id="path184"
           style="fill:#006ab2;fill-opacity:1;fill-rule:nonzero;stroke:none"
           d="m 0,0 -0.908,-38.473 c 8.82,0 16.058,0 22.723,0.333 -0.372,-30.568 -0.372,-58.033 5.013,-90.526 10.715,-25.516 52.957,-29.326 86.359,-27.731 4.429,12.937 1.571,30.897 0,42.55 -14.156,-0.931 -40.353,0.951 -48.513,12.646 -0.326,18.895 -0.326,40.977 -0.326,63.68 h 48.839 c -1.572,11.362 4.139,32.783 -1.865,39.403 -21.483,-1.238 -34.68,-2.215 -47.638,-2.501 0,6.291 -0.291,12.313 -0.291,17.632 V 59.292 C 49.487,57.721 33.777,61.777 22.73,60.223 21.15,44.457 22.398,17.964 22.398,-0.333 15.774,-0.333 8.526,-0.333 0,0" />
      </g>
      <g
         transform="translate(2999.4287,1259.8535)"
         id="g186">
        <path
           inkscape:connector-curvature="0"
           id="path188"
           style="fill:#006ab2;fill-opacity:1;fill-rule:nonzero;stroke:none"
           d="m 0,0 c 24.258,-0.29 46.648,7.884 56.414,28.396 7.913,22.993 5.055,37.209 -4.097,52.357 -9.764,12.583 -32.157,17.013 -55.792,20.47 -19.907,6.952 -19.575,28.994 -0.333,32.472 10.72,0.951 24.261,-8.86 21.775,-19.54 14.154,-2.833 31.498,-2.211 45.071,0 0,22.707 -7.57,42.242 -27.444,50.769 -22.099,5.028 -54.221,5.028 -70.612,0.641 -40.683,-10.739 -46.684,-70.322 0.623,-86.424 23.348,-10.058 52.03,-5.341 49.503,-26.161 0.954,-24.297 -38.49,-17.34 -39.444,1.884 -12.917,0 -32.74,1.261 -46.611,-0.309 V 53.933 52.98 C -70.947,19.245 -42.297,-1.553 0,0" />
      </g>
      <g
         transform="translate(2409.335,1139.0132)"
         id="g190">
        <path
           inkscape:connector-curvature="0"
           id="path192"
           style="fill:#006ab2;fill-opacity:1;fill-rule:nonzero;stroke:none"
           d="m 0,0 h -0.623 c -8.526,0 -53.932,5.336 -64.611,-1.284 -0.374,-0.332 -0.659,-0.332 -0.659,-0.332 -0.33,0 -0.33,0 -0.33,-0.291 v -0.329 c 1.569,-14.486 -0.293,-19.539 1.28,-33.074 4.096,-1.613 18.291,0.291 23.304,-0.661 2.567,-0.952 0.664,-15.438 -0.292,-18.917 -1.612,-6 -5.046,-9.187 -9.766,-11.34 -5.999,-2.235 -13.246,-3.765 -19.54,-2.855 -2.851,0.62 -5.376,1.571 -7.281,2.855 -7.87,6.291 -9.441,18.916 -10.388,28.063 -2.569,31.541 -1.289,70.623 4.713,90.802 0.956,3.447 2.527,7.565 3.439,8.538 5.089,5.029 12.003,3.765 19.285,3.457 12.258,0 18.916,-17.684 21.402,-26.17 12.624,-1.595 17.385,-0.973 29.678,-0.973 6.623,0.308 9.108,0 10.057,1.281 L 0,40.636 c 5.999,51.435 -33.775,74.782 -80.754,68.781 -11.301,-1.596 -22.021,-4.43 -30.551,-11.694 -12.292,-8.527 -16.388,-22.393 -18.583,-36.237 -2.233,-13.587 -2.852,-27.765 -3.184,-41.321 -0.955,-31.219 0.658,-45.414 3.184,-72.238 0.913,-8.483 2.484,-17.301 3.765,-22.059 5.01,-17.965 12.957,-29.929 29.637,-37.213 20.205,-8.527 46.028,-3.765 66.847,2.235 16.066,5.96 27.778,16.062 29.971,37.501 4.098,22.723 2.526,48.882 0,71.276 z" />
      </g>
      <g
         transform="translate(2515.917,1184.7393)"
         id="g194">
        <path
           inkscape:connector-curvature="0"
           id="path196"
           style="fill:#006ab2;fill-opacity:1;fill-rule:nonzero;stroke:none"
           d="m 0,0 v -1.284 c -4.097,-27.423 1.24,-55.787 -0.332,-84.551 -1.57,-22.682 -23.015,-20.447 -29.928,-16.972 -0.325,0.333 -0.99,0.333 -1.281,0.623 -6.622,5.049 -6.954,20.155 -7.863,30.585 -1.612,22.727 0.291,53.926 -1.287,73.15 -14.811,0 -24.584,0.93 -39.403,-1.243 2.526,-43.512 -6.658,-133.704 6.582,-145.706 17.386,-14.819 46.068,-11.673 63.372,0.91 2.236,1.616 5.71,3.52 7.945,4.804 0.293,-6.005 -0.33,-9.438 0.625,-16.723 0,-2.859 15.434,0.287 18.875,0.287 10.14,0.911 12,0.911 22.1,0 1.57,55.506 -0.332,106.251 -0.332,157.982 C 18.916,0.308 14.488,4.056 0,0" />
      </g>
      <g
         transform="translate(2621.2188,1206.168)"
         id="g198">
        <path
           inkscape:connector-curvature="0"
           id="path200"
           style="fill:#006ab2;fill-opacity:1;fill-rule:nonzero;stroke:none"
           d="m 0,0 c 0,12.604 -0.954,32.846 -0.954,38.227 l -42.878,0.932 c -0.29,-19.228 1.241,-29.077 1.241,-41.374 C -26.161,-1.263 -3.771,-5.669 0,0" />
      </g>
      <g
         transform="translate(2621.2188,1029.9033)"
         id="g202">
        <path
           inkscape:connector-curvature="0"
           id="path204"
           style="fill:#006ab2;fill-opacity:1;fill-rule:nonzero;stroke:none"
           d="m 0,0 c -2.858,50.787 0,104.967 0.284,155.746 v 0.952 H -5.05 c -13.539,-0.311 -23.304,0.311 -28.683,0.619 -2.195,0 -7.246,0.644 -8.858,0.333 v -0.333 C -47.604,107.826 -40.357,51.41 -44.454,-1.903 -38.786,-0.373 -4.095,-4.759 0,0" />
      </g>
      <g
         transform="translate(2708.8457,1067.7363)"
         id="g206">
        <path
           inkscape:connector-curvature="0"
           id="path208"
           style="fill:#006ab2;fill-opacity:1;fill-rule:nonzero;stroke:none"
           d="m 0,0 c -17.969,0 -28.691,20.196 -28.691,41.307 0,5.962 0,12.292 2.237,18.297 2.194,14.777 12.583,22.359 29.928,22.359 18.002,0 19.25,-3.775 19.25,-36.267 C 22.724,19.204 21.476,0 0,0 M 64.029,-39.404 C 65.601,21.11 62.126,86.809 62.126,157.161 v 20.799 c -13.863,2.547 -39.693,0.623 -39.693,-0.308 v -3.479 c -1.406,-27.73 -2.196,-7.72 -0.957,-64.127 -1.571,7.556 -37.873,12.625 -60.554,4.057 -18.585,-6.599 -25.534,-34.683 -25.534,-63.978 0.947,-42.262 5.338,-85.431 52.976,-88.909 11.636,-1.574 23.014,0.951 29.305,13.576 1.289,2.527 2.236,0.911 3.15,-1.284 0,-4.716 0.325,-6.292 0.325,-10.43 0,-0.911 0,-1.862 0.332,-2.195 12.625,-1.529 29.638,-0.287 42.553,-0.287" />
      </g>
      <g
         transform="translate(2865.2412,1131.7661)"
         id="g210">
        <path
           inkscape:connector-curvature="0"
           id="path212"
           style="fill:#006ab2;fill-opacity:1;fill-rule:nonzero;stroke:none"
           d="m 0,0 c -31.187,0 -31.187,-1.902 -29.658,6.915 1.613,11.372 6.334,20.497 26.178,20.497 4.761,0 7.578,-0.952 11.052,-3.145 C 15.103,20.46 19.864,12.296 19.864,3.77 19.864,-2.564 21.729,0 0,0 m 11.67,56.099 c -29.969,7.582 -66.827,-1.575 -77.838,-26.492 -5.088,-13.867 -5.711,-28.364 -6.95,-43.844 -1.577,-34.064 6.293,-71.235 28.684,-87.006 5.051,-2.855 10.387,-4.717 16.389,-5.627 23.947,0 58.298,-6.375 72.494,13.826 6.008,5.049 7.248,27.771 8.819,49.211 -9.102,2.484 -31.207,-0.329 -39.737,0.623 1.572,-34.068 -29.304,-33.777 -39.382,-14.199 -4.721,7.576 -4.389,14.49 -4.721,27.073 v 5.71 c 13.227,-2.526 75.645,0 84.463,2.525 2.568,35.307 -3.107,71.576 -42.221,78.2" />
      </g>
      <g
         transform="translate(3064.1631,1137.106)"
         id="g214">
        <path
           inkscape:connector-curvature="0"
           id="path216"
           style="fill:#006ab2;fill-opacity:1;fill-rule:nonzero;stroke:none"
           d="m 0,0 c 0,22.696 -7.531,42.231 -27.394,50.759 -22.066,5.059 -54.264,5.059 -70.62,0.64 -40.684,-10.722 -46.683,-70.356 0.622,-86.415 23.306,-10.097 52.03,-5.339 49.461,-26.159 0.997,-24.297 -38.448,-17.341 -39.403,1.862 -12.916,0 -32.738,1.284 -46.645,-0.291 v -0.619 -0.952 c 0,-33.735 28.727,-54.554 70.946,-52.979 24.294,-0.291 46.644,7.862 56.459,28.391 7.862,23.014 5.004,37.213 -4.098,52.361 -9.816,12.582 -32.164,17.012 -55.844,20.449 C -86.379,-6 -86.047,16.092 -66.807,19.549 -56.084,20.522 -42.545,10.711 -45.03,0 -30.877,-2.855 -13.49,-2.235 0,0" />
      </g>
      <g
         transform="translate(2038.8799,1287.2974)"
         id="g218">
        <path
           inkscape:connector-curvature="0"
           id="path220"
           style="fill:#006ab2;fill-opacity:1;fill-rule:nonzero;stroke:none"
           d="m 0,0 c 1.162,-0.229 2.277,-0.312 3.398,-0.312 4.43,0 8.611,1.8 11.586,4.822 0.041,0.041 0.084,0.103 0.084,0.103 2.07,2.133 3.599,4.821 4.221,7.967 2.07,7.7 -1.695,15.587 -8.609,18.999 0,0.021 -0.084,0.021 -0.084,0.041 -0.948,0.437 -1.946,0.807 -2.934,1.098 -8.859,2.381 -17.844,-2.897 -20.161,-11.674 -0.126,-0.308 -0.245,-0.993 -0.329,-1.342 C -14.613,10.801 -8.895,1.82 0,0" />
      </g>
      <g
         transform="translate(2282.0146,1526.4531)"
         id="g222">
        <path
           inkscape:connector-curvature="0"
           id="path224"
           style="fill:#006ab2;fill-opacity:1;fill-rule:nonzero;stroke:none"
           d="M 0,0 C 1.946,0 3.89,0.354 5.793,1.035 L 6.582,1.347 C 15.066,4.554 19.373,14.075 16.143,22.54 12.915,31.067 3.392,35.331 -5.094,32.123 L -5.752,31.874 C -14.279,28.686 -18.583,19.187 -15.398,10.701 -12.914,4.081 -6.623,0 0,0" />
      </g>
      <g
         transform="translate(2631.8916,1586.5762)"
         id="g226">
        <path
           inkscape:connector-curvature="0"
           id="path228"
           style="fill:#006ab2;fill-opacity:1;fill-rule:nonzero;stroke:none"
           d="m 0,0 -1.072,0.229 c -8.9,1.675 -17.303,-4.202 -19.04,-13.124 -1.698,-8.959 4.347,-17.631 13.331,-19.307 1.113,-0.27 2.275,-0.353 3.39,-0.353 7.616,0 14.405,5.277 16.058,13.04 C 14.613,-10.638 8.902,-1.904 0,0" />
      </g>
      <g
         transform="translate(2338.0977,1544.376)"
         id="g230">
        <path
           inkscape:connector-curvature="0"
           id="path232"
           style="fill:#006ab2;fill-opacity:1;fill-rule:nonzero;stroke:none"
           d="M 0,0 C 1.449,0 2.944,0.187 4.39,0.583 13.209,2.796 18.585,11.715 16.392,20.554 14.155,29.348 5.22,34.729 -3.597,32.534 L -4.678,32.202 C -13.447,29.846 -18.417,20.841 -16.013,12.089 -14.028,4.783 -7.238,0 0,0" />
      </g>
      <g
         transform="translate(2229.0732,1502.6333)"
         id="g234">
        <path
           inkscape:connector-curvature="0"
           id="path236"
           style="fill:#006ab2;fill-opacity:1;fill-rule:nonzero;stroke:none"
           d="m 0,0 c 2.652,0 5.385,0.624 7.87,1.966 8.11,4.159 11.252,14.116 7.074,22.144 -4.141,8.071 -14.071,11.3 -22.142,7.098 L -8.07,30.755 C -16.14,26.492 -18.918,16.619 -14.612,8.61 -11.668,3.104 -5.959,0 0,0" />
      </g>
      <g
         transform="translate(2134.042,1434.2358)"
         id="g238">
        <path
           inkscape:connector-curvature="0"
           id="path240"
           style="fill:#006ab2;fill-opacity:1;fill-rule:nonzero;stroke:none"
           d="m 0,0 c 4.098,0 8.236,1.53 11.42,4.571 l 0.791,0.81 c 6.414,6.434 6.414,16.806 0,23.239 -6.416,6.437 -16.849,6.437 -23.307,0 l -0.289,-0.266 C -17.967,22.042 -18.169,11.632 -11.878,5.07 -8.65,1.716 -4.348,0 0,0" />
      </g>
      <g
         transform="translate(2170.0537,1501.9727)"
         id="g242">
        <path
           inkscape:connector-curvature="0"
           id="path244"
           style="fill:#006ab2;fill-opacity:1;fill-rule:nonzero;stroke:none"
           d="m 0,0 -0.624,-0.437 c -7.452,-5.276 -9.147,-15.562 -3.847,-22.951 3.227,-4.509 8.279,-6.89 13.407,-6.89 3.314,0 6.666,0.973 9.566,3.063 l 0.616,0.435 c 7.37,5.278 9.109,15.543 3.814,22.973 C 17.669,3.561 7.365,5.298 0,0" />
      </g>
      <g
         transform="translate(2511.1963,1566.2725)"
         id="g246">
        <path
           inkscape:connector-curvature="0"
           id="path248"
           style="fill:#006ab2;fill-opacity:1;fill-rule:nonzero;stroke:none"
           d="m 0,0 0.998,-0.042 c 9.102,0 16.472,7.389 16.472,16.456 0,9.084 -7.37,16.453 -16.472,16.453 H 0.457 0.25 c -9.025,0 -16.348,-7.161 -16.473,-16.186 C -16.346,7.575 -9.101,0.104 0,0" />
      </g>
      <g
         transform="translate(2733.5967,1521.9644)"
         id="g250">
        <path
           inkscape:connector-curvature="0"
           id="path252"
           style="fill:#006ab2;fill-opacity:1;fill-rule:nonzero;stroke:none"
           d="m 0,0 0.699,-0.249 c 2.028,-0.827 4.139,-1.242 6.166,-1.242 6.5,0 12.667,3.869 15.276,10.264 3.398,8.424 -0.664,18.027 -9.059,21.464 l -0.708,0.249 C 3.973,33.918 -5.633,29.884 -9.068,21.46 -12.5,13.037 -8.443,3.434 0,0" />
      </g>
      <g
         transform="translate(2395.3877,1556.939)"
         id="g254">
        <path
           inkscape:connector-curvature="0"
           id="path256"
           style="fill:#006ab2;fill-opacity:1;fill-rule:nonzero;stroke:none"
           d="m 0,0 c 0.99,0 1.945,0.083 2.936,0.228 8.941,1.471 15.025,9.936 13.619,18.875 -1.451,8.98 -9.89,15.047 -18.875,13.618 L -3.314,32.576 C -12.293,30.983 -18.01,22.477 -16.432,13.556 -15.027,5.589 -7.869,0 0,0" />
      </g>
      <g
         transform="translate(2679.7471,1540.8394)"
         id="g258">
        <path
           inkscape:connector-curvature="0"
           id="path260"
           style="fill:#006ab2;fill-opacity:1;fill-rule:nonzero;stroke:none"
           d="m 0,0 0.99,-0.291 c 1.531,-0.456 3.067,-0.64 4.555,-0.64 7.156,0 13.738,4.718 15.808,11.877 2.526,8.756 -2.519,17.882 -11.253,20.366 L 9.559,31.5 C 0.865,34.126 -8.318,29.223 -10.927,20.508 -13.578,11.835 -8.65,2.606 0,0" />
      </g>
      <g
         transform="translate(2568.1553,1562.981)"
         id="g262">
        <path
           inkscape:connector-curvature="0"
           id="path264"
           style="fill:#006ab2;fill-opacity:1;fill-rule:nonzero;stroke:none"
           d="m 0,0 0.83,-0.08 c 0.572,-0.062 1.071,-0.103 1.654,-0.103 8.361,0 15.517,6.332 16.348,14.815 0.914,9.046 -5.709,17.117 -14.736,18.027 L 3.389,32.722 C -5.669,33.631 -13.742,27.074 -14.696,18.048 -15.609,9.005 -9.027,0.914 0,0" />
      </g>
      <g
         transform="translate(2453.417,1564.2651)"
         id="g266">
        <path
           inkscape:connector-curvature="0"
           id="path268"
           style="fill:#006ab2;fill-opacity:1;fill-rule:nonzero;stroke:none"
           d="m 0,0 c 0.497,0 0.99,0 1.488,0.062 9.026,0.644 15.899,8.527 15.235,17.55 -0.625,9.108 -8.486,15.853 -17.595,15.275 l -1.03,-0.062 C -10.971,32.019 -17.386,24.028 -16.598,14.985 -15.851,6.437 -8.444,0 0,0" />
      </g>
      <g
         transform="translate(2056.3076,1342.9868)"
         id="g270">
        <path
           inkscape:connector-curvature="0"
           id="path272"
           style="fill:#006ab2;fill-opacity:1;fill-rule:nonzero;stroke:none"
           d="m 0,0 c 2.359,-1.242 4.886,-1.861 7.412,-1.861 l 0.16,-0.042 0.248,0.042 c 5.843,0.041 11.47,3.25 14.321,8.797 l 0.416,0.661 c 4.179,8.07 1.121,18.027 -6.95,22.228 -4.22,2.194 -8.941,2.336 -13.123,0.889 C 2.359,30.673 2.193,30.61 2.07,30.569 -1.529,29.161 -4.678,26.555 -6.625,22.89 l -0.33,-0.682 C -11.219,14.158 -8.07,4.202 0,0" />
      </g>
      <g
         transform="translate(2807.0254,1502.8823)"
         id="g274">
        <path
           inkscape:connector-curvature="0"
           id="path276"
           style="fill:#006ab2;fill-opacity:1;fill-rule:nonzero;stroke:none"
           d="m 0,0 c 4.755,7.763 2.354,17.902 -5.384,22.661 -0.084,0.062 -0.499,0.249 -0.543,0.311 -7.778,4.637 -17.627,2.007 -22.304,-5.71 -4.68,-7.762 -2.112,-17.903 5.585,-22.664 2.692,-1.654 5.674,-2.419 8.608,-2.419 5.553,0 10.93,2.793 14.038,7.821" />
      </g>
      <g
         transform="translate(3192.3545,1144.3076)"
         id="g278">
        <path
           inkscape:connector-curvature="0"
           id="path280"
           style="fill:#006ab2;fill-opacity:1;fill-rule:nonzero;stroke:none"
           d="M 0,0 82.041,0.291 41.723,84.337 Z" />
      </g>
      <g
         transform="translate(3245.5869,1309.709)"
         id="g282">
        <path
           inkscape:connector-curvature="0"
           id="path284"
           style="fill:#006ab2;fill-opacity:1;fill-rule:nonzero;stroke:none"
           d="M 0,0 23.88,44.166 5.336,54.202 -11.549,22.91 l -17.592,34.791 -18.789,-9.5 24.128,-47.868 -89.488,-165.278 0.825,-0.456 h 22.929 l 77.278,142.782 72.026,-142.782 h 22.098 l 1.205,0.664 z" />
      </g>
      <g
         transform="translate(3200.2588,1050.3081)"
         id="g286">
        <path
           inkscape:connector-curvature="0"
           id="path288"
           style="fill:#006ab2;fill-opacity:1;fill-rule:nonzero;stroke:none"
           d="m 0,0 c -7.24,5.547 -17.546,4.143 -23.097,-3.063 l -0.366,-0.495 c -5.593,-7.16 -4.306,-17.507 2.893,-23.055 2.984,-2.36 6.541,-3.52 10.058,-3.52 4.928,0 9.772,2.195 13.039,6.375 l 0.537,0.748 C 8.611,-15.808 7.207,-5.502 0,0" />
      </g>
      <g
         transform="translate(3228.6982,1100.9312)"
         id="g290">
        <path
           inkscape:connector-curvature="0"
           id="path292"
           style="fill:#006ab2;fill-opacity:1;fill-rule:nonzero;stroke:none"
           d="m 0,0 c -8.027,4.222 -18.008,1.118 -22.229,-6.953 l -0.533,-1.075 c -4.015,-8.158 -0.583,-17.841 7.571,-21.855 2.319,-1.117 4.763,-1.658 7.164,-1.658 6.166,0 12.084,3.478 14.935,9.313 C 11.132,-14.154 8.029,-4.222 0,0" />
      </g>
      <g
         transform="translate(2824.7363,920.1333)"
         id="g294">
        <path
           inkscape:connector-curvature="0"
           id="path296"
           style="fill:#006ab2;fill-opacity:1;fill-rule:nonzero;stroke:none"
           d="m 0,0 -0.747,0.042 c -8.893,0.498 -16.471,-6.417 -17.006,-15.48 -0.541,-9.063 6.783,-16.847 15.852,-17.424 0.29,-0.042 0.622,-0.042 0.955,-0.042 8.644,0 15.89,6.786 16.431,15.479 C 16.018,-8.361 9.069,-0.536 0,0" />
      </g>
      <g
         transform="translate(2715.8779,941.0366)"
         id="g298">
        <path
           inkscape:connector-curvature="0"
           id="path300"
           style="fill:#006ab2;fill-opacity:1;fill-rule:nonzero;stroke:none"
           d="m 0,0 -0.74,0.207 c -8.571,3.063 -17.596,-1.492 -20.662,-10.016 -3.1,-8.568 1.703,-18.129 10.271,-21.192 1.82,-0.623 3.683,-0.952 5.544,-0.952 6.749,0 13.083,4.181 15.485,10.884 C 12.957,-12.5 8.568,-3.104 0,0" />
      </g>
      <g
         transform="translate(3095.9521,974.6465)"
         id="g302">
        <path
           inkscape:connector-curvature="0"
           id="path304"
           style="fill:#006ab2;fill-opacity:1;fill-rule:nonzero;stroke:none"
           d="m 0,0 -0.864,-0.54 c -7.786,-4.675 -10.064,-14.652 -5.386,-22.432 3.068,-5.091 8.57,-7.866 14.197,-7.866 2.943,0 5.967,0.789 8.652,2.401 7.828,4.596 10.514,14.653 5.917,22.52 C 17.928,1.946 7.863,4.596 0,0" />
      </g>
      <g
         transform="translate(2666.583,964.1738)"
         id="g306">
        <path
           inkscape:connector-curvature="0"
           id="path308"
           style="fill:#006ab2;fill-opacity:1;fill-rule:nonzero;stroke:none"
           d="m 0,0 c -0.082,0.042 -0.789,0.496 -0.831,0.537 -7.738,4.679 -17.462,1.99 -22.183,-5.71 -4.721,-7.701 -2.027,-18.006 5.669,-22.764 2.693,-1.7 5.667,-2.486 8.652,-2.486 5.502,0 10.886,2.731 13.99,7.784 C 10.098,-14.942 7.74,-4.799 0,0" />
      </g>
      <g
         transform="translate(2602.8799,1000.4321)"
         id="g310">
        <path
           inkscape:connector-curvature="0"
           id="path312"
           style="fill:#006ab2;fill-opacity:1;fill-rule:nonzero;stroke:none"
           d="m 0,0 c -7.284,-5.381 -8.812,-15.688 -3.436,-23.013 0,0 0.291,-0.413 0.998,-1.243 3.182,-3.848 7.696,-5.835 12.334,-5.835 3.683,0 7.364,1.243 10.473,3.766 6.99,5.672 7.986,16.144 2.395,23.221 C 17.303,4.015 7.162,5.382 0,0" />
      </g>
      <g
         transform="translate(3046.1592,950.5151)"
         id="g314">
        <path
           inkscape:connector-curvature="0"
           id="path316"
           style="fill:#006ab2;fill-opacity:1;fill-rule:nonzero;stroke:none"
           d="m 0,0 -0.456,-0.208 c -8.527,-3.187 -12.872,-12.666 -9.683,-21.189 2.485,-6.583 8.778,-10.68 15.401,-10.68 1.944,0 3.89,0.328 5.793,1.035 l 0.949,0.37 C 20.447,-27.36 24.629,-17.84 21.32,-9.354 18.004,-0.868 8.487,3.312 0,0" />
      </g>
      <g
         transform="translate(2993.3037,935.0352)"
         id="g318">
        <path
           inkscape:connector-curvature="0"
           id="path320"
           style="fill:#006ab2;fill-opacity:1;fill-rule:nonzero;stroke:none"
           d="m 0,0 c -0.084,0 -0.825,-0.167 -0.825,-0.167 -8.902,-1.902 -14.196,-10.554 -12.376,-19.41 1.613,-7.741 8.734,-12.999 16.431,-12.999 1.114,0 2.278,0.125 3.393,0.332 8.899,1.821 14.61,10.514 12.791,19.453 C 17.551,-3.89 8.857,1.821 0,0" />
      </g>
      <g
         transform="translate(1996.748,1205.2998)"
         id="g322">
        <path
           inkscape:connector-curvature="0"
           id="path324"
           style="fill:#006ab2;fill-opacity:1;fill-rule:nonzero;stroke:none"
           d="m 0,0 c 0.741,-1.305 1.489,-2.527 2.196,-3.682 0.699,-1.077 1.113,-1.741 1.364,-1.907 0.082,-0.104 0.664,0.083 1.816,0.602 1.16,0.515 2.654,1.2 4.432,2.09 1.862,0.786 3.931,1.799 6.207,2.959 2.28,1.201 4.64,2.381 6.959,3.561 1.278,-2.319 2.601,-4.595 3.846,-6.852 1.324,-2.215 2.447,-4.243 3.478,-5.959 1.16,-1.945 2.191,-3.87 3.148,-5.808 l 11.003,6.634 -9.184,18.153 c 2.444,1.404 4.839,2.688 7.199,3.972 2.359,1.263 4.471,2.46 6.332,3.516 2.07,1.201 4.098,2.339 6.044,3.457 l -6.417,10.701 c -2.069,-0.889 -4.18,-1.862 -6.334,-3.001 -1.945,-0.827 -4.098,-1.82 -6.449,-3.062 -2.361,-1.16 -4.721,-2.34 -7.082,-3.541 l -8.984,17.819 c -0.248,0.166 -0.907,-0.062 -2.151,-0.66 -1.157,-0.54 -2.362,-1.243 -3.684,-2.008 -1.363,-0.685 -2.568,-1.429 -3.683,-2.132 -1.12,-0.706 -1.778,-1.18 -1.944,-1.387 -0.082,-0.084 0.043,-0.578 0.492,-1.592 0.458,-0.976 1.038,-2.256 1.869,-3.893 0.825,-1.634 1.779,-3.454 2.892,-5.486 1.081,-2.09 2.279,-4.24 3.601,-6.516 C 14.612,14.777 12.252,13.597 9.89,12.417 7.572,11.195 5.421,10.16 3.599,9.188 1.737,8.257 0.242,7.472 -0.788,6.911 -1.944,6.208 -2.484,5.813 -2.526,5.672 -2.692,5.443 -2.526,4.778 -1.944,3.643 -1.369,2.546 -0.747,1.304 0,0" />
      </g>
      <g
         transform="translate(1985.6123,1238.8472)"
         id="g326">
        <path
           inkscape:connector-curvature="0"
           id="path328"
           style="fill:#006ab2;fill-opacity:1;fill-rule:nonzero;stroke:none"
           d="m 0,0 c 7.404,13.017 21.275,21.896 37.291,21.896 19.541,0 35.889,-13.244 41.143,-31.188 l 1.785,-10.929 c 0,-0.328 0.117,-0.64 0.117,-0.972 0,-23.716 -19.324,-43.078 -43.045,-43.078 -11.011,0 -20.943,4.305 -28.557,11.073 -8.859,7.914 -14.527,19.256 -14.527,32.005 0,7.721 2.194,14.944 5.793,21.193 m 12.125,-73.934 c 7.656,-3.624 16.141,-5.735 25.166,-5.735 20.115,0 37.916,10.224 48.431,25.769 0.042,0.1 0.082,0.121 0.082,0.183 6.294,9.282 9.934,20.522 9.934,32.524 0,18.833 -8.945,35.555 -22.806,46.255 -0.043,0.022 -0.084,0.063 -0.125,0.084 -9.891,7.596 -22.184,12.147 -35.516,12.147 -15.849,0 -30.169,-6.313 -40.724,-16.535 -10.97,-10.639 -17.802,-25.499 -17.802,-41.951 0,-23.242 13.663,-43.304 33.36,-52.741" />
      </g>
      <g
         transform="translate(2042.4854,1059.334)"
         id="g330">
        <path
           inkscape:connector-curvature="0"
           id="path332"
           style="fill:#006ab2;fill-opacity:1;fill-rule:nonzero;stroke:none"
           d="m 0,0 -30.593,-59.937 8.528,0.291 23.553,0.703 0.706,0.041 32.074,0.994 -18.666,31.541 z" />
      </g>
      <g
         transform="translate(2097.2061,1039.1338)"
         id="g334">
        <path
           inkscape:connector-curvature="0"
           id="path336"
           style="fill:#006ab2;fill-opacity:1;fill-rule:nonzero;stroke:none"
           d="M 0,0 H 0.534 L 22.93,0.744 4.258,32.201 l -2.645,4.513 -2.652,4.472 -2.566,-5.05 -10.141,-19.909 -8.65,-16.972 z" />
      </g>
      <g
         transform="translate(2035.2803,1077.2983)"
         id="g338">
        <path
           inkscape:connector-curvature="0"
           id="path340"
           style="fill:#006ab2;fill-opacity:1;fill-rule:nonzero;stroke:none"
           d="M 0,0 32.863,0.993 25.955,12.704 -2.275,60.306 -29.597,6.745 V 6.703 l -3.971,-7.779 32.827,1.034 z" />
      </g>
      <g
         transform="translate(3140.9922,1009.2505)"
         id="g342">
        <path
           inkscape:connector-curvature="0"
           id="path344"
           style="fill:#006ab2;fill-opacity:1;fill-rule:nonzero;stroke:none"
           d="m 0,0 -0.915,-0.54 c -7.78,-4.676 -10.016,-14.653 -5.336,-22.433 3.059,-5.048 8.568,-7.866 14.153,-7.866 2.977,0 5.961,0.789 8.652,2.443 7.864,4.555 10.514,14.612 5.919,22.475 C 17.919,1.944 7.82,4.551 0,0" />
      </g>
      <g
         transform="translate(2930.9258,922.8672)"
         id="g346">
        <path
           inkscape:connector-curvature="0"
           id="path348"
           style="fill:#006ab2;fill-opacity:1;fill-rule:nonzero;stroke:none"
           d="m 0,0 -0.865,-0.498 c -7.786,-4.717 -10.056,-14.652 -5.384,-22.436 3.107,-5.09 8.527,-7.862 14.153,-7.862 2.943,0 5.967,0.743 8.694,2.359 7.828,4.635 10.472,14.653 5.884,22.558 C 17.927,1.945 7.828,4.592 0,0" />
      </g>
      <g
         transform="translate(2873.0615,917.8154)"
         id="g350">
        <path
           inkscape:connector-curvature="0"
           id="path352"
           style="fill:#006ab2;fill-opacity:1;fill-rule:nonzero;stroke:none"
           d="m 0,0 -0.871,-0.537 c -7.78,-4.72 -10.059,-14.694 -5.379,-22.436 3.066,-5.132 8.57,-7.904 14.156,-7.904 2.983,0 5.959,0.827 8.694,2.401 7.82,4.634 10.47,14.653 5.877,22.558 C 17.921,1.906 7.822,4.554 0,0" />
      </g>
      <g
         transform="translate(2757.2666,924.9751)"
         id="g354">
        <path
           inkscape:connector-curvature="0"
           id="path356"
           style="fill:#006ab2;fill-opacity:1;fill-rule:nonzero;stroke:none"
           d="m 0,0 -0.865,-0.495 c -7.779,-4.679 -10.057,-14.694 -5.385,-22.477 3.066,-5.091 8.57,-7.821 14.162,-7.821 2.977,0 5.959,0.744 8.65,2.401 7.864,4.551 10.508,14.612 5.961,22.474 C 17.926,1.949 7.87,4.596 0,0" />
      </g>
    </g>
  </g>
</svg>
