<?xml version="1.0" encoding="UTF-8" standalone="no"?>
<!-- Created with Inkscape (http://www.inkscape.org/) -->

<svg
   xmlns:dc="http://purl.org/dc/elements/1.1/"
   xmlns:cc="http://creativecommons.org/ns#"
   xmlns:rdf="http://www.w3.org/1999/02/22-rdf-syntax-ns#"
   xmlns:svg="http://www.w3.org/2000/svg"
   xmlns="http://www.w3.org/2000/svg"
   xmlns:sodipodi="http://sodipodi.sourceforge.net/DTD/sodipodi-0.dtd"
   xmlns:inkscape="http://www.inkscape.org/namespaces/inkscape"
   width="544.3446mm"
   height="181.60677mm"
   viewBox="0 0 544.3446 181.60677"
   version="1.1"
   id="svg329"
   inkscape:version="0.92.1 r15371"
   sodipodi:docname="VDL.svg">
  <defs
     id="defs323">
    <clipPath
       clipPathUnits="userSpaceOnUse"
       id="clipPath184">
      <path
         d="M 0,2381.101 H 3367.56 V 0 H 0 Z"
         id="path182"
         inkscape:connector-curvature="0" />
    </clipPath>
  </defs>
  <sodipodi:namedview
     id="base"
     pagecolor="#ffffff"
     bordercolor="#666666"
     borderopacity="1.0"
     inkscape:pageopacity="0.0"
     inkscape:pageshadow="2"
     inkscape:zoom="0.35"
     inkscape:cx="2505.8255"
     inkscape:cy="-279.66326"
     inkscape:document-units="mm"
     inkscape:current-layer="layer1"
     showgrid="false"
     fit-margin-top="0"
     fit-margin-left="0"
     fit-margin-right="0"
     fit-margin-bottom="0"
     inkscape:window-width="1680"
     inkscape:window-height="1013"
     inkscape:window-x="0"
     inkscape:window-y="0"
     inkscape:window-maximized="1" />
  <metadata
     id="metadata326">
    <rdf:RDF>
      <cc:Work
         rdf:about="">
        <dc:format>image/svg+xml</dc:format>
        <dc:type
           rdf:resource="http://purl.org/dc/dcmitype/StillImage" />
        <dc:title></dc:title>
      </cc:Work>
    </rdf:RDF>
  </metadata>
  <g
     inkscape:label="Calque 1"
     inkscape:groupmode="layer"
     id="layer1"
     transform="translate(557.16633,106.76767)">
    <g
       transform="matrix(0.35277777,0,0,-0.35277777,-1194.8776,416.70223)"
       id="g274">
      <g
         transform="translate(2344.188,1328.5195)"
         id="g162">
        <path
           inkscape:connector-curvature="0"
           id="path164"
           style="fill:#6a71a5;fill-opacity:1;fill-rule:nonzero;stroke:none"
           d="M 0,0 38.092,96.521 H 74.277 L 14.132,-55.143 h -28.27 L -74.284,96.521 h 36.192 z" />
      </g>
      <g
         transform="translate(2538.3364,1425.04)"
         id="g166">
        <path
           inkscape:connector-curvature="0"
           id="path168"
           style="fill:#6a71a5;fill-opacity:1;fill-rule:nonzero;stroke:none"
           d="m 0,0 v -30.141 h -74.514 v -31.247 h 67.018 v -28.846 h -67.018 v -31.477 H 2.354 v -29.952 H -107.863 V 0 Z" />
      </g>
      <g
         transform="translate(2669.3574,1425.04)"
         id="g170">
        <path
           inkscape:connector-curvature="0"
           id="path172"
           style="fill:#6a71a5;fill-opacity:1;fill-rule:nonzero;stroke:none"
           d="M 0,0 H 33.403 V -151.663 H 0 l -71.295,95.04 v -95.04 h -33.363 V 0 h 31.267 L 0,-97.649 Z" />
      </g>
      <g
         transform="translate(2797.1357,1395.7793)"
         id="g174">
        <path
           inkscape:connector-curvature="0"
           id="path176"
           style="fill:#6a71a5;fill-opacity:1;fill-rule:nonzero;stroke:none"
           d="M 0,0 V -122.402 H -33.391 V 0 H -75.772 V 29.261 H 42.395 V 0 Z" />
      </g>
      <g
         id="g178">
        <g
           clip-path="url(#clipPath184)"
           id="g180">
          <g
             transform="translate(2416.1172,1184.9004)"
             id="g186">
            <path
               inkscape:connector-curvature="0"
               id="path188"
               style="fill:#6a71a5;fill-opacity:1;fill-rule:nonzero;stroke:none"
               d="m 0,0 c 14.279,-13.224 21.39,-31.644 21.39,-55.206 0,-23.584 -6.936,-42.256 -20.824,-55.999 -13.943,-13.723 -35.158,-20.614 -63.727,-20.614 h -51.114 V 19.883 h 52.831 C -34.759,19.883 -14.257,13.219 0,0 m -24.504,-90.152 c 8.201,7.814 12.316,19.156 12.316,34.07 0,14.892 -4.115,26.358 -12.316,34.42 -8.208,8.003 -20.81,12.031 -37.792,12.031 h -18.623 v -92.238 h 21.215 c 15.256,0 26.992,3.929 35.2,11.717" />
          </g>
          <g
             transform="translate(2500.2515,1092.2461)"
             id="g190">
            <path
               inkscape:connector-curvature="0"
               id="path192"
               style="fill:#6a71a5;fill-opacity:1;fill-rule:nonzero;stroke:none"
               d="m 0,0 c 5.567,-7 13.083,-10.487 22.473,-10.487 9.43,0 16.876,3.487 22.402,10.487 5.484,7.037 8.242,16.645 8.242,28.758 v 83.779 H 86.501 V 27.693 c 0,-22.015 -6,-38.871 -17.994,-50.673 -11.966,-11.799 -27.299,-17.733 -46.034,-17.733 -18.673,0 -34.069,5.977 -46.105,17.816 -12.064,11.866 -18.079,28.721 -18.079,50.59 v 84.844 H -8.327 V 28.758 C -8.327,16.645 -5.553,7.037 0,0" />
          </g>
          <g
             transform="translate(2666.3877,1053.0996)"
             id="g194">
            <path
               inkscape:connector-curvature="0"
               id="path196"
               style="fill:#6a71a5;fill-opacity:1;fill-rule:nonzero;stroke:none"
               d="M 0,0 V 151.664 H 33.349 V 30.141 H 97.168 V 0 Z" />
          </g>
          <g
             transform="translate(2888.7578,1053.0996)"
             id="g198">
            <path
               inkscape:connector-curvature="0"
               id="path200"
               style="fill:#6a71a5;fill-opacity:1;fill-rule:nonzero;stroke:none"
               d="M 0,0 -13.901,32.753 H -76.617 L -90.519,0 h -35.542 l 64.658,151.664 h 32.321 L 35.548,0 Z m -45.134,106.506 -18.861,-43.99 h 37.463 z" />
          </g>
          <g
             transform="translate(3057.2622,1154.4473)"
             id="g202">
            <path
               inkscape:connector-curvature="0"
               id="path204"
               style="fill:#6a71a5;fill-opacity:1;fill-rule:nonzero;stroke:none"
               d="M 0,0 C 0,-24.334 -9.514,-40 -28.487,-47.104 L 9.43,-101.366 h -41.117 l -33.181,48.415 H -88.01 v -48.415 h -33.364 V 50.316 h 56.695 c 23.304,0 39.874,-3.988 49.8,-11.905 C -4.974,30.432 0,17.648 0,0 m -40.251,-18.027 c 4.136,3.758 6.204,9.711 6.204,17.901 0,8.187 -2.152,13.784 -6.435,16.793 -4.281,3.071 -11.756,4.573 -22.465,4.573 H -88.01 v -44.928 h 24.386 c 11.456,0 19.237,1.899 23.373,5.661" />
          </g>
          <g
             transform="translate(3182.9165,1130.3398)"
             id="g206">
            <path
               inkscape:connector-curvature="0"
               id="path208"
               style="fill:#6a71a5;fill-opacity:1;fill-rule:nonzero;stroke:none"
               d="M 0,0 H 33.594 V -53.844 C 18.763,-70.6 -1.837,-79.016 -28.025,-79.016 c -22.025,0 -40.439,7.414 -55.36,22.161 -14.914,14.747 -22.396,33.38 -22.396,55.875 0,22.474 7.628,41.273 22.808,56.353 15.222,15 33.558,22.559 55.012,22.559 21.493,0 40.145,-7.185 55.994,-21.514 L 10.675,31.04 c -6.679,5.931 -12.882,10.004 -18.484,12.259 -5.637,2.237 -11.757,3.364 -18.337,3.364 -12.7,0 -23.388,-4.407 -32.105,-13.138 -8.711,-8.751 -13.035,-20.3 -13.035,-34.589 0,-14.372 4.135,-25.795 12.51,-34.42 8.349,-8.586 18.261,-12.891 29.87,-12.891 11.555,0 21.202,2.237 28.906,6.748 z" />
          </g>
          <g
             transform="translate(3348.3687,1204.7637)"
             id="g210">
            <path
               inkscape:connector-curvature="0"
               id="path212"
               style="fill:#6a71a5;fill-opacity:1;fill-rule:nonzero;stroke:none"
               d="m 0,0 v -30.143 h -74.528 v -31.246 h 67.053 v -28.867 h -67.053 v -31.498 H 2.341 v -29.91 H -107.842 V 0 Z" />
          </g>
          <g
             transform="translate(2012.8022,1094.832)"
             id="g214">
            <path
               inkscape:connector-curvature="0"
               id="path216"
               style="fill:#6a71a5;fill-opacity:1;fill-rule:nonzero;stroke:none"
               d="M 0,0 C 8.683,2.594 17.548,4.011 26.643,4.199 30.863,4.24 35.166,4.073 39.371,3.721 43.583,3.406 47.788,3.029 51.93,2.15 c 6.127,-1.168 12.288,-2.505 18.198,-4.384 9.305,-3.028 18.435,-6.496 27.648,-9.858 3.606,-1.337 7.175,-2.947 11.122,-4.554 2.989,6.871 6.16,13.472 8.675,20.284 2.823,7.745 5.505,15.558 7.482,23.557 1.928,7.897 3.08,15.979 4.135,24.045 0.957,7.059 1.621,14.243 1.768,21.385 0.139,7.143 -0.335,14.352 -0.831,21.517 -0.371,5.7 -0.937,11.404 -1.837,17.003 -1.188,7.83 -2.369,15.706 -4.29,23.33 -2.515,10.236 -5.539,20.405 -8.865,30.369 -3.01,9.002 -6.538,17.902 -10.373,26.588 -4.045,9.13 -8.452,18.13 -13.265,26.862 -5.526,10.044 -11.31,19.969 -17.45,29.599 -5.128,7.956 -10.737,15.558 -16.409,23.079 -5.994,7.855 -12.246,15.476 -18.617,22.954 -4.338,5.053 -9.081,9.692 -13.734,14.474 -2.255,2.256 -4.68,4.344 -7.271,6.643 C 3.473,206.034 -11.093,97.252 -25.671,-11.529 c 0,0 0.328,0.062 0.517,0.209 C -17.253,-6.454 -8.906,-2.567 0,0" />
          </g>
          <g
             transform="translate(2171.6743,1121.2354)"
             id="g218">
            <path
               inkscape:connector-curvature="0"
               id="path220"
               style="fill:#6a71a5;fill-opacity:1;fill-rule:nonzero;stroke:none"
               d="m 0,0 c -8.522,-18.778 -19.644,-35.865 -32.616,-51.907 -7.999,-9.961 -40.243,-38.242 -46.404,-39.059 9.241,11.571 15.779,24.669 21.41,38.58 h -3.081 c -77.106,0 -154.176,0 -231.241,0.022 -1.054,0 -2.151,0.126 -3.08,0.457 -9.472,3.804 -19.168,5.285 -29.263,3.637 -6.426,-1.023 -12.419,-3.51 -17.659,-7.227 -7.929,-5.516 -13.811,-12.868 -17.589,-21.872 -4.072,-9.751 -5.246,-19.862 -3.982,-30.181 0.824,-7.06 3.032,-13.786 6.559,-20.029 5.673,-10.172 13.755,-17.525 24.554,-21.617 7.216,-2.699 14.677,-3.807 22.264,-2.301 10.226,2.027 18.664,7.228 24.763,15.855 5.602,7.936 8.417,16.793 7.104,26.797 -1.18,9.045 -5.295,16.356 -12.469,21.661 -9.717,7.163 -20.104,8.917 -31.226,3.281 -9.926,-5.058 -15.682,-17.38 -13.194,-28.26 2.758,-11.907 15.521,-20.014 27.319,-15.69 8.047,2.948 13.524,12.054 11.345,20.68 -1.976,7.541 -8.118,12.596 -16.479,11.762 -5.889,-0.651 -10.946,-6.289 -10.918,-11.804 0,-2.528 0.943,-3.636 3.31,-4.011 1.538,-0.271 3.535,1.231 3.871,3.218 0.936,5.741 6.992,6.515 10.646,2.986 2.773,-2.632 3.143,-5.85 1.928,-9.315 -1.342,-3.844 -5.547,-6.935 -9.081,-7.145 -9.759,-0.605 -16.689,9.045 -14.838,17.608 1.915,9.004 9.766,15.919 18.714,15.73 7.958,-0.168 14.516,-3.742 19.329,-10.443 2.403,-3.427 4.073,-7.146 4.45,-11.281 0.587,-6.83 -0.782,-13.264 -4.394,-19.156 -5.442,-8.832 -13.265,-14.012 -23.373,-15.224 -7.971,-0.94 -15.55,0.877 -22.577,5.033 -9.06,5.368 -14.81,13.45 -18.135,23.29 -2.507,7.435 -2.913,15.123 -1.942,22.974 1.586,12.075 6.79,22.058 16.171,29.619 6.567,5.368 14.273,8.004 22.724,8.208 7.237,0.189 14.167,-1.334 20.657,-4.424 5.274,-2.486 10.443,-5.494 15.123,-9.004 4.512,-3.364 8.25,-7.709 12.456,-11.427 6.517,-5.723 13.013,-11.424 19.824,-16.834 10.493,-8.439 21.774,-15.812 33.741,-21.931 7.062,-3.594 14.334,-6.642 21.64,-9.652 13.587,-5.662 27.908,-8.626 42.466,-9.902 5.825,-0.498 11.756,-0.373 17.638,-0.019 6.79,0.461 13.586,1.149 20.285,2.276 12.84,2.132 25.064,6.497 36.779,12.138 8.46,4.073 16.5,8.937 24.24,14.285 9.619,6.623 18.456,14.207 26.713,22.414 5.902,5.91 11.449,12.259 16.724,18.818 5.566,6.768 10.862,13.682 15.632,20.972 8.202,12.532 15.634,25.544 21.439,39.393 3.598,8.481 7.313,16.942 10.164,25.711 3.31,10.048 5.868,20.407 8.647,30.683 0.868,3.196 1.35,6.456 2.027,9.882 H 17.87 C 14.355,38.036 8.458,18.567 0,0" />
          </g>
          <g
             transform="translate(1897.0249,1114.5293)"
             id="g222">
            <path
               inkscape:connector-curvature="0"
               id="path224"
               style="fill:#6a71a5;fill-opacity:1;fill-rule:nonzero;stroke:none"
               d="m 0,0 c 8.823,0.081 17.618,0.418 26.454,-0.71 7.782,-1.065 15.361,-2.546 22.745,-5.2 8.746,-3.111 16.744,-7.584 23.136,-14.559 1.782,-1.92 3.437,-4.052 5.595,-6.558 12.784,93.031 25.442,185.709 38.141,278.343 -0.635,-0.335 -0.88,-0.793 -1.083,-1.253 -2.032,-4.866 -4.079,-9.713 -6.188,-14.58 C 103.224,222.285 97.734,209.02 91.986,195.842 87.48,185.604 82.841,175.477 78.028,165.385 73.012,154.818 67.885,144.229 62.527,133.846 54.885,119.098 47.083,104.437 39.042,89.922 33.495,79.959 27.6,70.246 21.474,60.656 13.189,47.518 4.618,34.486 -5.26,22.496 c -6.392,-7.75 -12.966,-15.33 -19.469,-22.955 -1.152,-1.295 -2.445,-2.424 -4.052,-4.009 5.254,1.003 9.836,1.984 14.461,2.693 C -9.542,-1.047 -4.813,-0.082 0,0" />
          </g>
          <g
             transform="translate(1881.7261,1447.7871)"
             id="g226">
            <path
               inkscape:connector-curvature="0"
               id="path228"
               style="fill:#6a71a5;fill-opacity:1;fill-rule:nonzero;stroke:none"
               d="m 0,0 c 0.44,-0.232 0.72,-0.417 1.014,-0.584 5.232,-3.302 10.226,-6.791 13.865,-12.033 6.225,-8.916 7.364,-18.883 6.281,-29.431 -0.147,-1.815 0,-3.674 0,-5.577 3.87,0.922 7.425,1.861 11.008,2.55 5.561,1.044 11.122,1.401 16.801,0.272 8.306,-1.735 14.578,-6.664 20.272,-12.574 0.615,-0.607 1.104,-1.337 1.67,-2.025 0.147,0.164 0.377,0.312 0.565,0.479 -1.935,14.204 -6.426,26.757 -21.795,32.562 5.827,2.924 11.192,5.871 16.836,8.25 9.661,4.093 19.558,7.267 29.835,9.504 9.151,1.945 18.414,2.99 27.704,3.384 4.422,0.231 8.935,0 13.426,-0.394 7.385,-0.735 14.747,-1.549 22.005,-2.78 12.7,-2.09 24.756,-6.476 36.443,-11.908 9.64,-4.507 18.903,-9.752 27.397,-16.291 6.985,-5.325 13.775,-10.924 20.252,-16.896 4.959,-4.576 9.451,-9.713 13.796,-14.852 4.393,-5.2 8.529,-10.61 12.433,-16.146 8.831,-12.448 16.109,-25.858 22.088,-39.957 5.498,-12.907 9.99,-26.13 13.05,-39.812 1.669,-7.498 2.849,-15.102 4.115,-22.68 0.788,-4.723 1.333,-9.484 1.78,-14.27 0.476,-4.864 0.622,-9.754 0.902,-14.703 h 30.931 c -0.23,2.695 -0.377,5.262 -0.677,7.771 -0.698,5.952 -1.391,11.903 -2.18,17.879 -1.536,10.963 -4.303,21.743 -7.53,32.352 -5.288,17.192 -12.084,33.756 -20.579,49.63 -5.26,9.817 -11.044,19.217 -17.394,28.342 -6.888,10.03 -14.697,19.241 -22.976,28.053 -4.91,5.262 -10.29,10.172 -15.864,14.703 -7.013,5.704 -14.298,11.051 -21.78,16.169 -11.54,7.939 -24.24,13.764 -37.429,18.361 -8.676,2.966 -17.401,5.553 -26.523,6.66 C 161.016,5.052 152.229,6.35 143.434,6.6 135.478,6.852 127.388,5.995 119.349,5.346 114.507,4.931 109.638,4.322 104.888,3.363 97.972,1.961 90.994,0.564 84.288,-1.565 74.068,-4.846 63.96,-8.544 53.985,-12.388 48.381,-14.496 43.044,-17.21 37.618,-19.676 36.625,-15.707 34.725,-12.26 32.134,-9.086 26.028,-1.881 10.22,2.568 0,0" />
          </g>
          <g
             transform="translate(1839.0034,1472.6641)"
             id="g230">
            <path
               inkscape:connector-curvature="0"
               id="path232"
               style="fill:#6a71a5;fill-opacity:1;fill-rule:nonzero;stroke:none"
               d="m 0,0 c 10.15,-1.902 17.743,-7.75 23.255,-16.482 2.41,-3.84 4.665,-7.705 7.188,-11.822 12.469,16.125 27.593,24.753 48.542,17.253 -0.378,0.752 -0.412,1.045 -0.566,1.254 C 73.759,-3.907 68.276,0.94 61.368,3.969 55.423,6.535 49.394,7.686 43.401,5.18 39.733,3.717 36.485,1.418 33.028,-0.565 32.804,-0.189 32.371,0.541 31.861,1.293 27.362,7.769 21.159,10.943 13.356,11.174 7.14,11.361 1.376,9.605 -4.051,6.851 -7.133,5.307 -9.927,3.176 -12.777,1.293 -12.7,1.167 -12.567,1.024 -12.469,0.898 -8.348,0.627 -4.051,0.752 0,0" />
          </g>
          <g
             transform="translate(2191.5127,1190.5811)"
             id="g234">
            <path
               inkscape:connector-curvature="0"
               id="path236"
               style="fill:#6a71a5;fill-opacity:1;fill-rule:nonzero;stroke:none"
               d="m 0,0 c 9.947,0 19.804,-0.022 29.724,0.062 0.565,0 1.431,0.77 1.549,1.316 0.309,1.754 0.372,3.594 0.497,5.39 0.21,2.235 0.44,4.512 0.586,6.744 0.378,5.305 0.678,10.653 1.006,16.085 H 2.257 C 1.551,19.698 0.755,9.985 0,0" />
          </g>
        </g>
      </g>
    </g>
  </g>
</svg>
